<?xml version="1.0" encoding="UTF-8" standalone="no"?>
<!-- Generator: imaengine 1.0   -->

<svg
   xmlns:dc="http://purl.org/dc/elements/1.1/"
   xmlns:cc="http://creativecommons.org/ns#"
   xmlns:rdf="http://www.w3.org/1999/02/22-rdf-syntax-ns#"
   xmlns:svg="http://www.w3.org/2000/svg"
   xmlns="http://www.w3.org/2000/svg"
   xmlns:sodipodi="http://sodipodi.sourceforge.net/DTD/sodipodi-0.dtd"
   xmlns:inkscape="http://www.inkscape.org/namespaces/inkscape"
   width="900"
   height="1500"
   viewBox="0 0 900 1500"
   version="1.0"
   xml:space="preserve"
   id="svg2"
   inkscape:version="0.91 r13725"
   sodipodi:docname="basicreceiptthing.svg"><metadata
     id="metadata14"><rdf:RDF><cc:Work
         rdf:about=""><dc:format>image/svg+xml</dc:format><dc:type
           rdf:resource="http://purl.org/dc/dcmitype/StillImage" /><dc:title></dc:title><dc:creator><cc:Agent><dc:title>j4p4n</dc:title></cc:Agent></dc:creator><cc:license
           rdf:resource="http://creativecommons.org/publicdomain/zero/1.0/" /></cc:Work><cc:License
         rdf:about="http://creativecommons.org/publicdomain/zero/1.0/"><cc:permits
           rdf:resource="http://creativecommons.org/ns#Reproduction" /><cc:permits
           rdf:resource="http://creativecommons.org/ns#Distribution" /><cc:permits
           rdf:resource="http://creativecommons.org/ns#DerivativeWorks" /></cc:License></rdf:RDF></metadata><defs
     id="defs12" /><sodipodi:namedview
     pagecolor="#ffffff"
     bordercolor="#666666"
     borderopacity="1"
     objecttolerance="10"
     gridtolerance="10"
     guidetolerance="10"
     inkscape:pageopacity="0"
     inkscape:pageshadow="2"
     inkscape:window-width="1916"
     inkscape:window-height="1035"
     id="namedview10"
     showgrid="false"
     fit-margin-top="0"
     fit-margin-left="0"
     fit-margin-right="0"
     fit-margin-bottom="0"
     inkscape:zoom="0.27282898"
     inkscape:cx="-28.159152"
     inkscape:cy="195.44952"
     inkscape:window-x="4"
     inkscape:window-y="1"
     inkscape:window-maximized="1"
     inkscape:current-layer="svg2" /><g
     label="Stroke Layer"
     groupmode="layer"
     id="layer2"
     style="display:inline;opacity:1;fill:#000000;fill-opacity:1"
     transform="translate(-458.60046,-331.98359)"><path
       d="m 731,1788 c 17.2,-11.8 20.5,-39.9 29,-58 7.8,-21.7 15.7,-42.7 28,-59 8.5,-20.9 20.5,-40.3 25,-63 3.8,-40.3 17.8,-29.2 26,-2 9.3,21.2 23.4,38.5 34,54 17.8,12.3 21.2,37.7 37,50 7.1,-22.3 17.5,-40.6 26,-61 12.7,-1.6 23,-65.9 24,-26 3.6,26.3 17.1,44.2 24,63 11.4,19 13.3,46 23,64 15.6,34.9 28.4,6.4 37,-13 10.8,-18.1 23.6,-34 31,-55 13.4,-16.3 20.7,-40.3 31,-57 -1.2,-23.6 27.7,17.4 34,24 14.1,16.2 25.2,33.9 36,51 14.5,32.1 30.6,12.7 35,-14 11.9,-16.9 22.3,-37.9 31,-57 11.3,-17.2 18.7,-38.6 31,-55 5.3,-24 20.3,-40.3 35,-53 -1.7,-27.5 2.4,-51.1 5,-78 2.8,-25 2.5,-61.5 0,-85 -1.9,-26.3 -0.2,-56.8 -3,-84 -3,-24.6 -3.5,-52.9 -5,-81 -0.1,-28 -0.5,-56.3 -4,-82 -1.8,-27.4 -5,-56.7 0,-82 1.7,-28.2 2,-54.2 -2,-82 -3.6,-24 -8.5,-48 -12,-74 -1.7,-26.4 -9.9,-47 -11,-76 1.3,-29.2 -2.8,-56.5 -2,-86 1.4,-28.8 0.8,-57.1 -1,-85 -1.7,-26.2 -2.7,-54 -6,-80 -5,-23.3 -7.2,-50 -11,-76 -9.1,-19.1 2.8,-62.3 -26,-61 -21.4,7.3 -44.2,13.4 -65,21 -13.9,15.7 -37.3,23.6 -60,28 -24.2,4.9 -42.3,15.6 -65,22 -24.9,4.1 -51.7,8.6 -80,7 -24.7,4.8 -50.5,7.8 -78,9 -29.3,1.2 -51.9,-3.8 -80,-3 -25.5,-4.7 -56.1,3.5 -82,-1 -26.7,-1.4 -52.8,-6.7 -82,-6 -26.4,-1.2 -51.8,-4.7 -74,-13 -30,-18 -45.8,6.2 -37,40 -4.5,30.1 4.7,52.8 2,82 6.8,23.6 4.9,56.8 9,79 -0.5,30.4 2.7,56.1 3,83 -0.9,31.2 3.4,55.8 2,85 l 0,87 c -1.2,30.8 3.3,57.7 1,86 4,28.9 2.6,50.2 3,80 2.8,28.2 3.2,59.2 3,85 2.4,30.1 2.2,54.6 0,80 -1,28.3 0.4,61 -3,85 0.7,29.5 4.8,62.4 -10,76 -5,27.3 1.2,40.1 1,69 2.3,31.4 -1.7,56.2 -3,84 -2,27 -1.1,59.3 -5,83 0.9,29.4 1.8,59.1 -3,83 0.7,19.1 -2.9,25.9 23,5 15.7,-13.5 30.6,-27.4 42,-45 15,-14.1 25.6,-34.9 42,-46 17,-31.7 28.8,7.1 40,19 7.8,21.5 17.5,40.6 26,60 11,18.7 22.8,35.8 31,55 m 3,-24 c -5.1,-25.5 -23.8,-40.1 -32,-62 -10.9,-19.4 -16.6,-44.5 -25,-68 -14.5,-16.9 -0.5,-62.7 -15,-73 -5.5,41 -42.2,4.8 -33,27 13.3,26.4 -16.4,43 -21,63 -7.9,23.3 -26,36.1 -39,54 -12.5,5 -35,50.2 -34,34 9.8,-21.2 9.9,-52 17,-76 3.5,-2.6 5.4,-14.3 2,-20 -3.9,-19.5 -14.9,52.9 -11,3 -11.4,-38.2 32.9,-38.2 14,-66 -4.2,-36.2 15.5,-50.5 6,-82 2.3,-29.7 2.3,-58.6 0,-89 -0.6,-31.5 0.7,-58.7 0,-91 0.9,-30.2 0.5,-61.5 8,-85 -3.2,-27.4 -3.7,-57.8 -5,-88 -1.3,-28.9 -5.8,-55.3 -6,-87 -2.2,-28.1 -0.7,-62.9 -2,-92 0.7,-29 5.8,-59.4 2,-88 1.8,-32.7 -1.9,-62.4 -2,-93 -0.9,-28.7 -2.7,-57.7 -4,-88 -3.4,-27.2 0.6,-64.5 -5,-89 2.1,-32.4 -1.3,-59.9 -5,-88 -12.8,-38.5 34.4,-29 56,-25 28.8,2.8 57.2,5.4 85,8 27.6,4.2 61.7,3.4 91,3 29.3,2.2 60.9,1.4 88,4 32,2.2 60.7,-6 86,-4 31.3,11.2 49.6,-8.4 79,-8 22.2,-9.1 47.1,-17.5 71,-23 25.3,-5.7 48.2,-13.6 68,-25 16.8,-13.8 48,-13.4 62,-31 8.2,18.6 7.8,52.9 13,76 5.8,26.9 10,56.2 13,82 0.5,30.9 3.2,59.1 1,91 2.1,30.4 5.1,60.8 5,89 2.3,29.9 4.5,58.6 5,88 1.1,31.1 5.3,60.3 9,85 3.4,28.5 1.1,61.8 1,91 2,32 -4.3,61.4 4,87 4.4,26.7 8.8,53.1 10,81 4.7,28.4 4,62.5 3,92 1.8,30 8.5,54.2 8,84 4.9,30.2 1.3,64.6 -3,88 -3.3,27.9 -0.2,61.8 -18,74 -13.3,19 -23.3,42.3 -33,62 -10,20.9 -21,40.9 -32,60 -10.6,12.7 -18.8,63 -37,31 -11.3,-18.6 -24.9,-35.9 -33,-60 -1.7,-17.2 -23.1,-62.9 -40,-29 -13.2,17.3 -21,40.3 -34,58 -8.4,23.1 -26.1,38.8 -38,56 -18.2,35.6 -30.1,6.7 -34,-22 -8.8,-21.5 -18.9,-44.8 -28,-66 -7.5,-24.4 -8,-49 14,-57 19.4,-39.3 -27,35.9 -30,-2 -22.2,-43.1 -8.1,40.2 -3,28 -4.9,26.2 -22,42.5 -31,63 -7.8,33.6 -25.5,35.4 -33,0 -9.7,-20.7 -18,-45.8 -27,-68 1.9,-20.6 -19,-64.6 -35,-26 -4.7,0.1 -5.8,19.6 -8,8 22.1,-24.4 -14.9,-34.7 -20,-12 -5.7,24.8 -13.3,48.1 -20,72 -5.2,25.9 -12.7,49.3 -22,71 -5.4,25.3 -19.2,42.3 -23,70 m 261,-196 c 18.6,3.4 31.7,-28.5 39,-5 18.4,22.6 3.6,-36.9 -10,-14 -11.9,5.7 -35.7,27.8 -17,2 2.3,-36.7 -16.6,11.5 -12,17 m 76,0 c 22.5,-0.5 38.4,-10.1 51,-19 25.7,-9.8 2.1,-35.6 -19,-29 -35.3,11.7 -27.2,-7.8 -3,-11 22.6,6.6 40.5,-4.8 15,-19 3.8,-10.1 18.2,-55.4 -1,-34 -7.8,15.8 -13.3,35.8 -36,34 1.6,-11.5 21.8,-50.4 0,-38 -8.5,13.6 -7.2,37.6 -24,43 -31.3,22.8 -6.6,-18.7 -17,-28 -17.4,-12 -31.1,13.7 -42,19 -23.3,20 11.7,30.8 25,17 12.9,17.5 36.9,2.8 44,-8 22.6,13 26.2,2.8 5,22 -1.5,28 37.5,8.4 51,15 8.2,6.7 -22.7,20.4 -35,22 -4.3,1.2 -12,2.3 -14,3 9.6,6.9 -2.8,2.5 0,11 m 162,-8 c 42,1.2 15.1,-46.3 3,-53 -28.4,-20.2 -21.3,51.4 -3,53 m -64,-8 c 28.5,0.9 43.5,-36.8 16,-49 -12.3,-7.5 -41.3,37.8 -16,49 m 73,-4 c -15.3,0.7 -13.1,-25.3 -15,-33 11.8,3.7 20.6,19.7 15,33 m -66,-8 c -15.1,0 -1.1,-25.9 7,-19 20.2,3.2 0.3,19.1 -7,19 m -496,-9 c 52.7,-7 -10.1,-2.3 -6,-27 -19.6,-22.1 -0.8,-35.7 25,-37 32.8,-11.4 12.8,40.4 21,56 5.9,15.5 23.5,-21 28,-34 -1.3,13 11.4,55.3 32,28 17.3,-9 37.7,-22.6 44,-28 1,-5.1 3.4,-12.5 3,-17 22,-19.7 -17,-2.9 -13,11 -13.5,26.9 -34.4,14.8 -12,-10 23.8,-29.3 -26.1,-1.7 -20,16 0.2,37.6 -28.7,24 -25,-6 -13.1,-23.2 -26.8,44 -29,14 0.8,-20.7 0.5,-52.1 -8,-70 1.6,19.7 -15.2,35.9 -44,31 -23.6,3.7 -48,6 -73,8 3.2,24.6 52.8,-3.6 51,11 3.6,23.6 11.3,42.6 26,54 m 188,-14 c 19.9,0.5 37.9,-14.8 39,-22 -9.8,4.6 -36.1,24.5 -40,0 -8.9,-22.4 27.4,-16.6 25,-34 -24.3,11.9 -34.1,2.2 -7,-6 -21.1,-20.5 -18.1,17.9 -40,14 -21.3,-0.1 -11.8,31 -31,34 21,9.6 11.2,-29.3 36,-23 15.4,-7.4 -2.7,37.9 18,37 m 41,-3 c 27.7,6.8 62.1,-20.7 26,-30 -43.6,-14.6 31.9,-23.7 15,-31 -25,-9.6 -55.1,21.8 -29,36 51.8,12.7 -5.6,8.1 -12,25 m 91,-14 c -1.5,-6.9 20.5,-20.1 30,-28 8,11.8 -15.4,25.1 -30,28 m 100,-64 c 27.5,1.8 44.8,-9.3 45,-34 -1.4,-3.7 -5.3,-9.6 -10,-10 -33.1,-3.9 0,-3.4 0,-20 3,-19.3 -32.3,-22 -52,-16 -36.2,19.2 15.5,7.8 32,11 31.4,9.5 -34.2,19.3 -20,28 -16.3,11.2 51,-8.1 37,18 -5.6,13.2 -57.9,20.6 -20,5 29,-16.3 -39.3,4.2 -12,18 m 40,0 c 15.5,-4 26.5,-15.5 40,-20 13.1,-3.5 19.9,-34.5 0,-35 -14.1,-13.3 -38.9,4 -29,12 7,19.8 -11.6,32.8 -11,43 m -224,-3 c 15.2,2.9 31,-29.1 22,-26 -10,13.6 -26.2,24 -25,-6 23.4,-6.3 20.8,-14.9 -6,-14 -4.9,14.6 -3.5,42.6 9,46 m 39,-3 c 21.4,-2 50.1,-42.7 14,-14 -6.8,8.4 -10.8,-0.1 -11,-6 -8.7,-40.6 -14.3,14 -3,20 m 82,0 c 15.4,-2.5 43.7,-46.6 12,-18 -3.4,2.6 -5.6,13.3 -8,1 -4.7,-37.8 -15,5.3 -4,17 m 134,-20 c -13.1,2.1 -9,-38.1 5,-23 19,2.1 6.1,21.3 -5,23 m 35,-4 c 26.7,0.6 58.1,-27.7 33,-51 -35.9,-21.1 -49.4,26.9 -33,51 m 7,-13 c -12.4,-16.9 -0.3,-44.6 20,-31 20.3,13.8 -6.6,31.5 -20,31 m -246,-20 c 18.8,-11 -8.7,-50.9 14,-54 29,-20 -7.1,-17.7 -17,-1 3.7,-13.4 29.9,-32.5 36,-5 13.7,35.9 21.5,-7.7 23,-22 12,-38.9 7.5,-8.8 11,14 0.4,24.2 35.4,23.1 43,6 15.5,-15.4 4,-30.8 -22,-27 17.8,4.4 33.3,23.5 2,27 -27.2,0.6 -7.3,-36.9 -23,-47 -16.3,3.1 -20.5,27.1 -25,46 -7.8,-4.8 -20.2,-39.8 -37,-19 -10.8,13.7 -16.9,34.1 -39,34 -22.5,-0.6 -19.9,-28 -28,-46 -10.6,-21.9 -8.3,25.5 -1,35 4.2,21.9 32.1,23.5 48,11 15.2,1 2.6,39.8 15,48 m -355,-9 c 26.5,1.1 56.1,3.2 60,-16 11.3,-28.3 -22.3,-27.1 -43,-29 -37.6,6.2 -19.6,-26.2 -4,-31 11.7,-10.5 58.6,-0.8 21,-18 -25.1,-0.4 -36.3,15.7 -48,28 -14.9,23.1 12.8,35.9 34,32 33.6,-6.8 43.1,21.1 13,23 -13.6,-0.3 -68.4,-0.4 -33,11 m 65,-6 c 24,-1.4 13.4,-39.4 31,-45 10.7,6.6 23,39.6 34,6 7.4,-12.7 22.4,-50.4 25,-14 6.4,14.5 -2.7,61.4 23,42 16.3,-3.5 27.4,-33.7 32,-34 -2.1,24.8 24.2,38.5 34,15 2.4,-16.1 18.3,27.3 26,-14 6.1,-4.9 24.7,-55.1 8,-29 -6.6,7.3 -20.3,58.6 -20,25 4.5,-32.2 -19.7,-42 -11,-2 -1.7,32.8 -32.4,19 -31,-4 2.2,-21.6 -27.7,-34.1 -37,-13 -9.9,19.7 -13.6,49.7 -17,7 0.2,-30.3 -32,-16.4 -34,3 -9.4,33 -21,-19.2 -43,3 -14.4,9.8 -13.5,35.5 -20,54 m 105,-19 c 3.9,-12.7 20.2,-55.1 29,-43 14.2,9.1 -18.1,35.5 -29,43 m 404,-14 c 19.3,3.3 41.6,-12.3 10,-6 -14.9,-2.8 -13.4,-22.9 -17,-38 -1,-9.9 -14.7,-41.2 -17,-11 0.4,13.4 -12.8,34.6 -22,23 1,-9.6 -25.3,-33.5 -15,-9 5.9,11 7.8,32.9 26,26 13.2,1.3 12.5,-37 20,-23 3.6,14.8 5.4,33.6 15,38 m -89,-6 c 48.5,9.5 16.6,-35.4 18,-57 -6.4,-48.4 -30.3,-2.4 -37,8 20.8,-22.2 26,-28.8 31,14 32.4,33 -48.9,-4.3 -12,35 m 146,0 c 27.7,5.8 21.5,-21.9 14,-35 1.1,-19.5 23.4,-19.7 27,-34 5.9,-26.3 -11.6,14.3 -22,10 -20.7,23.7 -5.6,-8.6 0,-17 27.8,-14.2 1.5,-7.5 -12,0 -1.5,19.1 -9.3,33.9 -27,34 -29.4,13.8 3.6,11.9 17,7 11.4,4.1 22.4,36 3,35 m -46,-6 c 20.7,-3.8 47.6,-16.7 39,-20 -14.2,13.6 -54.9,14.9 -37,-17 24.5,-12.4 43.3,-9.2 1,-17 -15.9,2.3 -20,52 -3,54 m -347,-63 c 7.9,0.5 15,0.4 18,-3 25.3,-26.7 -5.3,6.1 -17,-11 -2.7,-53 -26.6,4.7 -1,14 m 48,-7 c 16.1,0.8 64.8,-48.6 28,-21 -6.5,2.1 -12.7,7.9 -17,9 -4,9 -10.6,-0.2 -8,-6 -5.7,-33.1 -17,15.4 -3,18 m 43,-1 c 19.4,0.6 21.8,-18.5 34,-23 20.2,-15.7 8,-17.2 -5,-3 -8.8,2.3 -27.1,33.4 -21,4 -3.2,-26.6 -17.9,15.6 -8,22 m 97,-8 c 22.3,2.9 30.3,-32 39,-26 -3,34.4 52.1,1.8 28,5 -29.6,18.5 -16.7,-50.8 -25,-28 4.5,20.4 -33.6,0.7 -51,3 0.1,-16.7 42.4,-17.2 46,-12 -0.6,-21 -40.9,-22.2 -48,-7 -19.5,24.7 7.2,38 33,33 15.4,2.5 -25.3,21.9 -22,32 m -49,-4 c 25.9,-0.8 15.4,-35.6 8,-11 6.6,-40 -19.8,-2.6 -8,11 m 142,-16 c 27.8,4.1 34.3,-54.1 1,-49 -37.5,-3.7 -18.4,47.5 -1,49 m 43,-1 c 30.5,7.4 45.3,-39.7 19,-50 -33.7,-12.4 -38.8,37 -19,50 m -37,-13 c -16.8,6.4 -15.1,-26.6 -3,-23 14.1,2.3 15.5,21.7 3,23 m 51,0 c -23.1,7.9 -14.2,-32.9 -2,-28 19.2,3 14.8,25.6 2,28 m -423,-6 c 28.5,1.4 20.9,-35.6 22,-60 7.1,-28.4 1.6,-49.2 -28,-48 -12.7,21.5 -35.8,19.9 -45,-3 0.3,-6.4 -6,-7.4 -9,-12 -34.2,-2.7 4,7.5 3,20 17.7,10.1 28.3,28.8 34,48 26.5,13.8 45.3,-31.1 35,12 14.8,39.2 -32.8,39.5 -20,9 -7.6,-16.3 -18.9,38.3 8,34 m -153,-6 c 6.4,-24.2 21.9,-41.1 48,-43 26.9,19.3 -37.2,52.1 -11,17 -10.1,7.1 -5.6,-6.2 -1,-6 3.6,-8.6 -31.6,14.2 -14,29 27.4,8.6 39.9,-16.6 43,-40 -1.3,-5.2 -5.4,-12 -12,-11 -22.7,6.3 19.2,-19.7 -2,-36 -4.5,-25.3 -54.9,-9.7 -54,-10 44.5,-18.1 -35,-15.9 -6,20 3.7,26.8 -1.1,61.4 9,80 m 227,-12 c 22.3,-11.2 -1.6,-34.8 -3,-48 1.9,19 41.3,17.6 46,4 11.8,-35.6 10.5,33 25,8 1.4,-14.1 -0.4,-58.5 14,-31 4.7,19.4 17.3,32.3 40,30 19.5,2.7 35.6,19.6 53,4 12.8,-6.5 20.6,-33.6 40,-23 23,7.6 21.9,-42.9 29,-8 12.7,15.5 36.5,-0.8 52,5 17.9,-10.2 29.3,-30.5 2,-12 -23.9,15.1 -14.4,-36.1 -11,-44 10,-14 42.2,-10.4 3,-18 -15.2,7.3 -16.5,31.6 -18,51 -5.6,30.5 -27.6,5.3 -26,-13 -5.1,-42.7 -13.7,7.6 -16,17 -14.7,30.9 -28.5,-15.1 -9,-21 -10.9,-11.3 -21.8,20.8 -23,34 4.6,-7.9 -15.9,-22.1 -19,-39 -2.8,-18.9 -0.6,-46.5 -6,-63 -15.3,3.3 -1.8,42.1 -5,55 18.5,25.3 -30.2,43.7 -7,22 7.7,-22.6 -16.3,17.8 -20,22 -3.7,18.4 -31.3,34.8 -13,7 8.8,-11.8 6.9,-52.9 -14,-32 -8,11 4.1,61.6 -18,32 -0.2,-15.3 -23.7,-38.3 -34,-17 1,42.6 -4.2,17.7 -14,0 -0.7,-16.9 -36.6,-16.1 -48,-7 -9.5,9.7 -0.2,56.7 -8,46 -6,-15.6 -8.6,-38.5 -24,-45 -16.9,-1.7 15.6,23.5 11,37 7.5,15.9 11.6,34.4 21,47 m -140,-14 c 17.6,-12.3 1.7,-51.7 -3,-68 -11.5,6.4 3.1,48.2 3,68 m -74,-19 c -20,-11.7 -9.2,-67.7 20,-46 29.3,15.4 1.8,49.2 -20,46 m 379,-6 c -31.7,5.2 -17,-30.7 -1,-32 26.9,-0.3 22.4,31.3 1,32 m -242,-6 c -29,5.1 -15.2,-27.8 -3,-30 24.8,-8.8 20.3,33.4 3,30 m 105,0 c -26.2,8.1 -20.5,-33.9 -5,-31 24.3,-0.1 21.7,28.4 5,31 m 322,-37 c 18,-3.3 8.7,-33.2 21,-42 5.4,-3.9 26.1,-35.1 13,-26 -9.2,4 -20.2,32 -26,23 0,-20 15.4,-27.1 20,-40 -7,7.8 -27.9,11.3 -26,32 5.2,26.1 -21.4,20 -34,28 -35.2,6.1 3,12.8 17,5 23.3,-15.4 25.3,5.7 15,20 M 814,984 c 31.2,-0.9 61.6,-2.4 90,-6 15.1,7.6 88.6,7.1 48,-9 -23.8,-7.6 -61.1,-4.3 -88,-2 -11.7,6.8 -84.7,7.4 -50,17 m -92,-54 c 14.9,-2.4 18,-51.7 28,-35 3.3,18.8 15.2,44.6 40,27 15.7,-7.8 35.2,-26.6 52,-13 35,-24.2 -18.6,7.5 -6,-31 1,-6.5 -1.6,-13.8 -6,-14 -37.3,-0.3 14.2,-7.3 -20,-8 -20.3,5.2 -12.4,42.7 -17,54 -24.8,22.5 -33,-13.1 -39,-28 -20.4,-19 -22,53.5 -28,13 2.7,-21.1 1,-53.2 -6,-70 -37.3,-23.9 9.4,11.6 -20,17 -20.2,5.9 -35.7,18.8 -58,20 -34.3,9.1 -18.2,25.2 9,10 27.3,-21.7 36.1,4 32,30 22.2,34 8.7,-7.3 8,-29 -9.8,-16.1 41.2,-42.6 26,-12 4.2,24 -3.3,49.4 5,69 m 316,-4 c 20.1,-3.6 10.1,-28.7 16,-45 4.7,-15.8 10.3,-30.7 14,-48 -4.7,-16.5 40.9,-21.6 9,-22 -20.6,0.5 -17.7,24 -23,39 -3.2,27.2 -29,7.8 -33,-3 -2.6,-15.3 -30.5,-26.7 -14,-2 10.4,11.8 16.9,25.9 33,30 8.7,11.7 -4.3,32.2 -2,51 m -142,-5 c 14.6,2.6 17.1,-44.4 8,-19 -5.2,29.8 -5,-12 -9,-21 1.1,-20.9 -16.1,-29.4 -22,-11 -4.7,30.6 -11.9,-0.2 -3,-12 14.7,-14.2 -18.9,7.4 -12,20 -2.6,15.9 6.5,46.5 12,18 4.1,-6.1 14.9,-43.9 15,-20 5.5,14.6 2,36.6 11,45 m 91,-9 c 27.3,-9.5 -38.6,-25.9 -40,-31 6.7,-2 13.9,-6.6 17,-9 21.3,-27.6 -32.2,-1.8 -28,7 1.7,-6.1 4.2,-18.3 0,-23 -12.8,-33.4 -3,37.3 -12,42 -0.5,13.7 11.5,4.9 11,0 16.8,-14.4 35.6,13.7 52,14 m 104,-11 c 23.8,2.3 28.7,-14.4 38,-26 8,-16.4 5.9,-39.2 -9,-47 -19.7,-3.2 -31.2,10.7 -37,25 -5.4,14.5 -8.2,44.4 8,48 m -280,-2 c -14.1,-3 -4.2,-35.2 5,-31 14.7,2 7.2,32.9 -5,31 m 289,-9 c -21.5,-7.4 -8.2,-52.8 12,-49 24.2,11.1 2.9,45.5 -12,49 m 54,-11 c 19.1,0.9 22.7,-14.1 26,-29 6.5,-22.9 6.8,21.3 14,23 17.7,-1.2 -2,-22.8 0,-37 -2,-8.7 0,-48.4 -11,-32 -2.4,15.5 -2.6,33.7 -11,44 -4.2,12.1 -15.6,34.2 -18,7 1.1,-8.8 -11.4,-47.1 -14,-17 4,15.2 4.6,33.1 14,41 M 788,822 c 21,2.1 34.8,-5.6 51,-6 16.8,-3.7 33.5,-2.3 51,-2 16.7,-4.7 36.4,0.4 51,-3 11.7,0.2 38.1,-18 8,-17 -16.1,3.3 -39.1,1.9 -54,3 -16.9,-3.2 -33,3.2 -50,4 -15,3 -36,3.6 -51,6 -16.1,6.3 -10.2,4.7 -6,15 M 626,753 c 10.6,-14.3 1.9,-50.7 5,-74 -0.2,-26.2 -4.8,-48.3 -5,-76 -2.9,-28 8.1,-48.7 36,-42 16.2,8.3 35.8,24.2 26,48 -3.4,36 -22.3,18.6 -42,17 5.4,22.7 24.9,30 36,45 12.1,15.3 23.8,30.3 37,43 16.5,11 26.6,27.7 46,34 32.2,1.4 -13.2,-20 -20,-28 -16.1,-9.4 -27.1,-25.2 -42,-38 -4.9,-14.5 -38.3,-28.4 -17,-48 11.3,-11.5 22,-42.5 6,-59 -9.2,-14 -26.2,-28.8 -50,-26 -19.9,7.2 -26,27.9 -27,54 3.2,24.9 2.3,52.5 2,79 1.7,25.6 1.2,52.8 9,71 m 451,-17 c 10.1,-24.1 -7.1,-49.2 -9,-74 -0.9,-25.1 -14.2,-55.7 -5,-79 20.6,-24.6 32.3,20.9 34,40 -2,5.5 -0.3,18.1 -5,19 -32.3,-2.2 -27.8,25.4 3,13 17.7,-11.8 9.9,-59.5 0,-74 -5.5,-31 -41.6,-17.4 -51,2 0.4,31.8 10.1,53 11,82 7.7,24.1 8.4,54.2 22,71 M 794,714 c 17.8,4.6 43.3,-11.7 31,-17 -11.9,7.8 -35.6,5.6 -49,0 -16.5,-2.3 -34.7,-21.4 -6,-11 18.5,-0.4 27.9,-10.6 31,-27 1.1,-20.9 -13.2,-29.1 -27,-34 -18.9,-0.1 -28.1,10.2 -32,26 -4.7,19.8 4.9,36.6 11,46 8.5,11.8 25,14.9 41,17 m 88,-6 c 28.3,0.4 26.4,-24 -1,-12 -16.3,-4.2 -31.5,-12.5 -39,-25 -7.8,-16.9 2.7,-38.7 11,-46 9.2,-11.7 29.2,-17.9 45,-13 5.7,-11.6 -27.2,-21.3 -36,-9 -12.4,8.2 -23.8,20.3 -28,35 -8.8,15.2 -2.6,42.9 7,48 10,11.8 26.8,18.5 41,22 m 71,-8 c 21.7,-2 36.4,-11 42,-29 7.8,-31.3 -14.3,11.9 -23,14 -19.4,10.2 -42.3,-3.6 -43,-19 18,-5 30.9,-15.8 35,-35 0.2,-17.2 -24.9,-34.2 -38,-17 -9,5.4 -12.2,52.8 -19,34 1.5,-30.1 -17.9,25.5 8,20 8.9,15.3 18.1,29.8 38,32 m 236,-3 c 12.7,-11.2 -8.2,-43.3 -10,-62 -19.4,-29.3 46.8,-16.9 29,-38 -34.9,16.3 -44.5,-4.4 -43,-36 -13.2,-22.4 19.6,-62.7 -8,-60 -4.3,23.2 -3.4,62.1 0,82 19.9,37.6 -28.8,24.9 -46,34 0.4,22.7 58.3,-12.4 57,15 8.1,21.9 9.6,49.2 21,65 m -162,-9 c 18.7,-9.9 -1.6,-35.7 -1,-50 -6.3,-14.3 -7.6,-37.5 -16,-50 -12.6,5.5 4.1,36.1 4,47 5.6,17.2 9.7,37.6 13,53 M 768,676 c -30.3,1.3 -12.9,-38.2 5,-34 28,-2 18.1,41.3 -5,34 m 162,-21 c -11.9,-3.5 -0.8,-39.8 17,-34 19.6,12.9 -6.4,31.4 -17,34 m 60,-83 c 30.8,13.1 30.4,-35.5 5,-20 30.9,-1.2 -19,11.5 -5,20 z"
       id="path8"
       inkscape:connector-curvature="0"
       style="fill:#000000;fill-opacity:1;fill-rule:evenodd;stroke:none"
       sodipodi:nodetypes="cccccccccccccccccccccccccccccccccccccccccccccccccccccccccccccccccccccccccccccccccccccccccccccccccccccccccccccccccccccccccccccccccccccccccccccccccccccccccccccccccccccccccccccccccccccccccccccccccccccccccccccccccccccccccccccccccccccccccccccccccccccccccccccccccccccccccccccccccccccccccccccccccccccccccccccccccccccccccccccccccccccccccccccccccccccccccccccccccccccccccccccccccccccccccccccccccccccccccccccccccccccccccccccccccccccccccccccccccccccccccccccccccccccccccccccccccccccccccccccccccccccccccccccccccccccccccccccccccccccccccccccccccccccccccccccccccccccccccccccccccccccccccccccccccccccccc" /></g></svg>