<?xml version="1.0" encoding="UTF-8" standalone="no"?>
<!-- Generator: imaengine 1.0   -->

<svg
   xmlns:dc="http://purl.org/dc/elements/1.1/"
   xmlns:cc="http://creativecommons.org/ns#"
   xmlns:rdf="http://www.w3.org/1999/02/22-rdf-syntax-ns#"
   xmlns:svg="http://www.w3.org/2000/svg"
   xmlns="http://www.w3.org/2000/svg"
   xmlns:sodipodi="http://sodipodi.sourceforge.net/DTD/sodipodi-0.dtd"
   xmlns:inkscape="http://www.inkscape.org/namespaces/inkscape"
   width="1440"
   height="1462"
   viewBox="0 0 1440 1462"
   version="1.0"
   xml:space="preserve"
   id="svg2"
   inkscape:version="0.91 r13725"
   sodipodi:docname="cashregister-drawing.svg"><metadata
     id="metadata14"><rdf:RDF><cc:Work
         rdf:about=""><dc:format>image/svg+xml</dc:format><dc:type
           rdf:resource="http://purl.org/dc/dcmitype/StillImage" /><dc:title></dc:title></cc:Work></rdf:RDF></metadata><defs
     id="defs12" /><sodipodi:namedview
     pagecolor="#ffffff"
     bordercolor="#666666"
     borderopacity="1"
     objecttolerance="10"
     gridtolerance="10"
     guidetolerance="10"
     inkscape:pageopacity="0"
     inkscape:pageshadow="2"
     inkscape:window-width="1916"
     inkscape:window-height="1035"
     id="namedview10"
     showgrid="false"
     inkscape:zoom="0.33345764"
     inkscape:cx="720"
     inkscape:cy="894.82374"
     inkscape:window-x="4"
     inkscape:window-y="1"
     inkscape:window-maximized="1"
     inkscape:current-layer="layer2" /><g
     label="Stroke Layer"
     groupmode="layer"
     id="layer2"
     style="display:inline;opacity:0.8"
     transform="translate(0,-1100)"><g
       id="g4166"
       transform="translate(-26.989935,827.69133)"><path
         inkscape:connector-curvature="0"
         id="path4142"
         d="m 379.58726,705.88264 -53.07788,41.81894 -19.30105,22.51789 -3.21684,48.25261 16.08421,59.51157 -57.90314,64.33682 -53.07788,104.54733 -75.59577,156.0168 17.69263,33.7768 27.34315,41.819 -77.20419,122.2399 -16.084209,48.2527 43.427359,77.2041 9.65052,25.7348 96.50524,3.2168 138.32417,-1.6084 109.3726,8.0421 83.63787,0 83.63787,-3.2168 48.25261,-3.2169 86.85472,-4.8252 144.75785,-17.6927 17.69263,-4.8252 43.42735,-70.7705 24.12632,-45.0358 99.7221,-28.9516 19.301,-1.6084 152.8,-242.8715 77.2042,-115.8063 40.2105,-93.2884 -16.0842,-80.42102 -49.8611,-152.79996 -14.4758,-30.55999 -51.4694,3.21684 -69.1621,-3.21684 -152.8,-1.60842 -197.83569,3.21684 -218.7452,16.0842 -54.6863,6.43369 -1.60842,-43.42736 4.82526,-17.69263 77.20419,-11.25894 19.30105,-9.65052 6.43368,-69.16209 -3.21684,-75.59577 -19.30105,-12.86736 -69.16208,12.86736 -141.54102,20.90947 -12.86736,12.86737 -6.43368,25.73473 9.65052,98.11365 6.43368,24.12631 35.38526,3.21684 20.90946,-9.65052 33.77684,-3.21684 3.21684,56.29472 -56.29472,3.21684 -61.11999,6.43368 z"
         style="fill:#e5e5e5;fill-opacity:1;fill-rule:evenodd;stroke:none;stroke-width:1px;stroke-linecap:butt;stroke-linejoin:miter;stroke-opacity:1" /><path
         inkscape:connector-curvature="0"
         id="path4148"
         d="m 181.75153,1265.613 -80.42103,147.9747 -16.084209,30.56 62.728399,-1.6084 104.54734,-1.6084 115.80628,-9.6506 218.7452,-9.6505 165.66732,1.6084 175.31785,-8.0421 40.21051,-75.5957 49.86101,-83.6379 1.6085,-27.3432 -70.77055,8.0421 -102.93892,-1.6084 -196.22731,9.6505 -170.49259,9.6506 -69.16208,-3.2169 -53.07788,1.6084 -128.67365,8.0421 z"
         style="opacity:1;fill:#999999;fill-opacity:0.8;fill-rule:evenodd;stroke:#000000;stroke-width:1px;stroke-linecap:butt;stroke-linejoin:miter;stroke-opacity:1" /><path
         inkscape:connector-curvature="0"
         id="path4162"
         d="m 847.16511,1336.8822 -19.80163,4.3047 -16.35786,18.0797 15.49692,23.2454 25.82821,2.5828 12.9141,-7.7484 6.02658,-12.0532 -6.02658,-17.2188 -12.05316,-7.7485 z"
         style="fill:#c2b97b;fill-opacity:0.8;fill-rule:evenodd;stroke:none;stroke-width:1px;stroke-linecap:butt;stroke-linejoin:miter;stroke-opacity:1" /><path
         inkscape:connector-curvature="0"
         id="path4160"
         d="m 883.32459,1268.007 -20.66256,23.2453 -4.3047,16.3579 6.02658,13.775 c 0,0 6.02658,12.0532 9.47034,11.1923 3.44376,-0.861 28.41103,-8.6094 28.41103,-8.6094 l 7.74846,8.6094 -18.07975,20.6625 5.16565,26.6892 22.38444,2.5828 10.33128,-7.7485 10.33128,-18.0797 -4.3047,-18.0798 -18.94068,-8.6094 -11.19222,-16.3578 9.47034,-17.2188 -5.16564,-22.3845 -12.05316,-5.1656 z"
         style="fill:#c2b97b;fill-opacity:0.8;fill-rule:evenodd;stroke:none;stroke-width:1px;stroke-linecap:butt;stroke-linejoin:miter;stroke-opacity:1" /><path
         inkscape:connector-curvature="0"
         id="path4158"
         d="m 829.08536,1261.9804 -20.66256,2.5828 -21.5235,20.6626 6.02658,25.8282 6.88752,9.4703 18.07974,0 12.9141,-8.6094 12.91411,-15.4969 1.72188,-14.636 -2.58282,-17.2188 z"
         style="fill:#c2b97b;fill-opacity:0.8;fill-rule:evenodd;stroke:none;stroke-width:1px;stroke-linecap:butt;stroke-linejoin:miter;stroke-opacity:1" /><path
         inkscape:connector-curvature="0"
         id="path4156"
         d="m 754.18357,1313.6368 -11.19222,-0.861 -18.07974,22.3845 -3.44376,18.9407 17.2188,21.5235 21.5235,0.8609 18.07974,-7.7484 6.88753,-15.497 -1.72188,-18.0797 -22.38445,-12.9141 z"
         style="fill:#c2b97b;fill-opacity:0.8;fill-rule:evenodd;stroke:none;stroke-width:1px;stroke-linecap:butt;stroke-linejoin:miter;stroke-opacity:1" /><path
         inkscape:connector-curvature="0"
         id="path4154"
         d="m 593.18776,1246.4835 -28.41102,52.5173 -20.66257,44.7689 20.66257,37.0204 79.20649,-0.8609 18.07974,-2.5828 7.74847,-24.1064 31.85478,-53.3783 27.55009,-38.7423 5.16564,-20.6625 -58.54393,1.7219 -68.87521,6.8875 z"
         style="fill:#87ac81;fill-opacity:0.8;fill-rule:evenodd;stroke:none;stroke-width:1px;stroke-linecap:butt;stroke-linejoin:miter;stroke-opacity:1" /><path
         inkscape:connector-curvature="0"
         id="path4152"
         d="m 424.44349,1250.7882 -16.35786,53.3782 -7.74846,31.8548 -2.58282,17.2188 -3.44376,12.9141 17.2188,-0.8609 6.02658,14.636 63.70957,-3.4438 12.91411,-0.8609 11.19222,-22.3845 17.2188,-37.8813 15.49692,-37.8814 0.86094,-24.9673 -29.27196,3.4438 -47.35171,-3.4438 -23.24538,0 z"
         style="fill:#87ac81;fill-opacity:0.8;fill-rule:evenodd;stroke:none;stroke-width:1px;stroke-linecap:butt;stroke-linejoin:miter;stroke-opacity:1" /><path
         inkscape:connector-curvature="0"
         id="path4150"
         d="m 267.75239,1260.2585 -36.15949,60.2658 -35.29855,46.4908 6.88753,13.775 20.66256,8.6094 4.3047,9.4704 6.02658,1.7218 90.39872,-10.3312 16.35786,-2.5829 9.47034,-33.5766 28.41103,-79.2065 8.6094,-22.3845 -33.57667,-0.8609 -46.49077,7.7485 -21.5235,0 z"
         style="fill:#87ac81;fill-opacity:0.8;fill-rule:evenodd;stroke:none;stroke-width:1px;stroke-linecap:butt;stroke-linejoin:miter;stroke-opacity:1" /><path
         inkscape:connector-curvature="0"
         id="path4146"
         d="m 482.52618,516.08901 0,45.03578 11.25894,46.6442 40.21051,-4.82526 90.07156,-14.47579 22.51789,-8.0421 -3.21685,-20.90947 -9.65052,-45.03578 -6.43368,-14.47578 -4.82526,-6.43368 -38.6021,9.65052 -64.33682,6.43368 -24.12631,3.21684 z"
         style="fill:#616c60;fill-opacity:1;fill-rule:evenodd;stroke:none;stroke-width:1px;stroke-linecap:butt;stroke-linejoin:miter;stroke-opacity:1" /><path
         inkscape:connector-curvature="0"
         id="path4144"
         d="m 141.54101,1227.0109 36.99368,46.6442 62.7284,-16.0842 125.4568,-6.4337 61.11999,1.6084 136.71575,-1.6084 56.29472,-4.8252 234.8294,-12.8674 117.41471,0 46.64424,0 12.8673,54.6863 20.9095,41.8189 -12.8674,32.1684 -35.3852,57.9032 25.7347,-8.0421 78.8126,-27.3432 22.5179,-4.8252 -28.9516,-64.3369 -11.2589,-41.8189 8.0421,-75.5958 -159.23366,8.0421 -189.79363,11.259 -32.16841,-3.2169 -94.89681,6.4337 -286.29887,16.0842 -73.98734,-1.6084 -56.29472,1.6084 -33.77684,-6.4336 z"
         style="fill:#6b6b6b;fill-opacity:1;fill-rule:evenodd;stroke:none;stroke-width:1px;stroke-linecap:butt;stroke-linejoin:miter;stroke-opacity:1" /><path
         inkscape:connector-curvature="0"
         id="path4164"
         d="m 934.12006,469.0545 -9.47034,94.70341 -6.88752,104.17376 0.86094,53.37829 3.44376,18.94068 -19.80162,38.74231 100.73002,6.88752 151.5254,-13.77504 12.9141,-17.2188 -24.1063,-12.05317 -13.775,-8.6094 -5.1657,-24.10632 9.4704,-92.1206 5.1656,-43.047 4.3047,-105.89564 -12.0531,-29.27197 -11.1923,24.96727 -10.3312,22.38444 -3.4438,15.49692 -17.2188,-34.4376 -7.7485,10.33128 -10.3313,26.68914 -5.1656,-0.86094 -8.6094,-23.24538 -6.0266,-13.77504 -6.0266,6.02658 -14.6359,33.57666 -9.4704,-6.88752 -5.1656,-15.49692 -10.3313,-9.47034 -8.60941,2.58282 -6.02658,8.6094 -0.86094,24.96726 -1.72188,3.44377 -4.3047,3.44376 -15.49692,-16.35787 -10.33128,-17.2188 -8.60941,-7.74846 -7.74846,-2.58282 z"
         style="opacity:0.9;fill:#fefefa;fill-opacity:0.8;fill-rule:evenodd;stroke:#000000;stroke-width:1px;stroke-linecap:butt;stroke-linejoin:miter;stroke-opacity:1" /><path
         sodipodi:nodetypes="ccccccccccccccccccccccccccccccccccccccccccccccccccccccccccccccccccccccccccccccccccccccccccccccccccccccccccccccccccccccccccccccccccccccccccccccccccccccccccccccccccccccccccccccccccccccccccccccccccccccccccccccccccccccccccccccccccccccccccccccccccccccccccccccccccccccccccccccccccccccccccccccccccccccccccccccccccccccccccccccccccccccccccccccccccccccccccccccccccccccccccccccccccccccccccccccccccccccccccccccccccccccccccccccccccccccccccccccccccccccccccccccccccccccccccccccccccccccccccccccccccccccccccccccccssscccccccccccccccccccccccccccccccccccccccccccccccccccccccccccccccccccccccccccccccccccccccccccsccccccccccccccccccccccccccccccccccccccccccccccccccccccccccccccccccccccccc"
         style="fill:#1a1a1a;fill-opacity:1;fill-rule:evenodd;stroke:none"
         inkscape:connector-curvature="0"
         id="path8"
         d="m 486,1566 100,0 c 32,-1.3 63.3,-5.4 96,-5 29,-6.9 65.7,2.8 94,-3 30.4,-2.5 61.2,-7.1 89,-10 27.2,-7 62.3,-7.3 85,-16 14.3,-19.2 28.1,-40.8 37,-63 15.9,-17.9 16.6,-52.6 45,-56 24.7,-8 51.6,-14 76,-23 33.1,4.5 37.1,-28 52,-45 17.7,-15.5 28.4,-40.2 43,-57 12.3,-21.2 31.8,-37.1 42,-58 11.6,-22.3 25.2,-44 37,-64 15.5,-17.7 29.3,-39.3 40,-60 10.9,-22.6 28.1,-40.8 37,-63 10.4,-23.4 24.6,-44.6 31,-70 10.5,-20.1 28.5,-43.3 14,-75 -5.4,-27.3 -8.9,-59.1 -20,-80 -6.4,-26.5 -18.3,-50 -23,-78 -8.3,-24 -17.9,-49.8 -30,-71 -15.5,-17.5 -56,4.1 -84,-6 -32.1,-0.5 -66.4,-1.6 -99,-1 -26.4,-0.9 -0.1,-53.2 -6,-76 3.3,-29.8 4.2,-64.2 6,-94 5.7,-27.9 -9.4,-80 -25,-43 -1.2,6.7 -6.9,12.8 -9,17 -5.4,35.5 -10.7,23.1 -19,-3 -18.5,-21.4 -24.6,67.7 -34,17 -15.2,-50.5 -26.7,31.7 -35,18 -8.5,-26.2 -38.7,-44.7 -40,-2 2.3,48.6 -17.4,-19.6 -33,-21 -24.8,-35.1 -30.5,20.3 -32,43 -4.5,31.1 -1.4,61.1 -3,94 4.5,37.8 -7.1,59.2 -50,50 -27.1,5.5 -66.7,1.3 -95,4 -31.9,2 -60.3,9 -91,10 -31.7,1.6 -58.9,9.6 -93,7 -20.5,-25.9 -4.6,-59.2 29,-52 26,-8.1 65.7,-3.8 65,-36 3.3,-29.6 7,-63.8 3,-94 10.1,-40.9 -8.4,-61.8 -46,-51 -32.4,0.7 -51.7,14.3 -86,13 -29.1,4.3 -62.3,6.5 -87,13 -32.5,1.2 -44.2,24.8 -38,62 0.2,33.9 3,66.5 10,90 -1.6,39.4 49.6,13.5 71,20 37,-32.8 29.9,36.3 13,41 -31.8,2.3 -67,2.4 -96,5 -90.54125,1.55785 -54.58962,8.19963 -94,46 -24.3,9.6 -31.5,37.7 -29,71 -13.3,31.4 7.8,59.1 -10,79 -13.3,19.9 -27.8,40.7 -40,60 -13.4,20.1 -24.3,44.5 -35,65 -10.8,23 -25.6,43.6 -37,63 -14.5,19.7 -22.6,46.9 -33,68 -6.8,22 -32.2,45.1 -20,71 13.2,21.1 25.5,41.8 39,60 -10.9,23.2 -25,44.5 -39,62 -11.2,22.3 -20,48.8 -34,67 -11.8,20.8 -32.9,45.9 -6,63 13.7,20.5 22.5,47.1 34,66 4.5,30.1 48,21.9 77,23 29.5,5.3 66.5,3.7 97,3 32.2,-4.1 63.3,0.7 96,-1 31.4,2.5 63.8,3.1 93,6 m 114,-9 -63,0 c -19.1,-1.4 -41,-2.9 -61,-3 -18.6,-1.1 -41.2,-2.1 -60,-3 l -62,0 c -14.9,-1.4 -41.9,0.2 -58,1 l -62,0 c -16,-3.6 -40.9,-2.2 -60,-3 -20,0.5 -39.5,-0.6 -42,-20 -6.8,-12.9 -12.4,-30.8 -21,-42 -6.2,-13.7 -14.2,-29.2 -25,-38 -3.3,-11.7 33,3.5 46,-2 20.4,-0.2 43.6,2.4 60,-1 18.7,-2.9 45.5,0.3 61,-3 21.8,1.2 36.9,-4.3 57,-5 17.8,-2.8 41.9,-2.2 58,-5 18.2,-2.4 41.4,0.2 61,-1 19.9,-0.8 42.4,-1.7 60,-3 l 63,0 c 18.3,-1.3 45.1,-3 60,0 21.5,0.4 38.9,-2.7 60,-2 l 64,0 c 17.1,-3 42,1.3 58,-3 19.8,-1.3 43.2,-1.5 61,-3 20.2,3.1 43.1,-3.4 57,2 7.2,13.9 6.9,37.7 10,52 2.4,19.9 8,37.8 16,48 -10.1,10.7 -36.1,8.2 -51,12 -17.4,3.4 -34.2,7.2 -54,8 -17.3,3.6 -38.9,5.5 -56,8 -17.6,2.2 -38.6,1.8 -60,1 -16.2,-1.8 -40.6,2.6 -60,0 -17.7,3.1 -38.9,2.4 -57,5 m 346,-36 c -5.9,-21.9 -12.6,-56.4 -8,-81 -11,-32.1 13,-46.7 22,-68 8.7,-23.1 24.5,-39.2 32,-64 10.9,-13.5 22.8,-52.5 32,-49 -1,34.1 17.4,47.6 20,76 -4.7,26.3 -19.8,43.2 -30,64 -13.4,19.3 -20.4,44.3 -33,64 -11,19.9 -25,39.3 -35,58 m -389,-9 c 27.2,8.5 50.3,-40.4 17,-45 -36.4,-9.6 -43.5,38.8 -17,45 m -338,-8 c 24.6,-0.9 47.8,-6.1 71,-7 l 77,0 c 25.3,1.3 52.3,2.6 75,3 18.7,-5.2 61.2,4.8 64,-8 -21.2,-4.7 -48.9,1.1 -73,0 -22.7,-1.8 -49.7,-0.6 -74,-3 l -79,0 c -20.3,4.9 -49.8,1.1 -61,15 m 348,-1 c -21.1,4.9 -19.3,-26.1 -4,-25 27.1,-2 12.2,18.3 4,25 m 54,-8 c 16.7,-6.8 39.9,-9 59,-11 22.4,-0.4 44.4,-4 65,-4 20.3,-3.1 48.3,-0.5 68,-2 20.3,-0.8 50.2,2.9 57,-8 -19.4,-2.5 -44.4,3.1 -66,0 -22.2,1.5 -49.8,-0.6 -68,2 -22.2,1 -44.8,3.9 -65,5 -19,3.3 -44.4,0.5 -50,18 m -425,-57 -58,0 c -18.5,3.2 -39.2,-4.5 -51,0 0.7,-1 14.3,-22.2 17,-31 8.7,-10.4 15.2,-25.5 22,-35 6.3,-13 14.7,-26.1 20,-37 8,-11.4 15.7,-25.2 22,-36 9.1,-9.4 14.8,-25.2 32,-25 13.7,-4.6 31.2,-5.6 46,-9 31.6,-9.5 3.1,13.1 0,20 -3.6,14.9 -13.8,26.2 -21,36 -6.7,11.9 -15.3,24.9 -23,34 -11.3,9.6 -15.5,26.3 4,29 12.1,8 19.8,21.8 40,17 16.7,-2.7 36.8,-4 51,-6 18.7,-0.8 44.9,3.9 50,-8 5.4,-12.8 6.7,-30.1 11,-45 5.4,-12.7 10.2,-29.5 15,-41 6.6,-12.6 11.8,-29 15,-42 8.6,-12.1 37.1,-2.2 48,-3 20.5,-0.9 34.8,3.4 54,1 23.4,2.5 45.4,-5.7 27,13 -6.5,12.5 -11.2,29.3 -17,40 -7.2,10 -10.5,33.5 -25,29 -11.7,-0.7 -33.4,5.8 -50,0 -21.6,2.9 -21.9,-17.6 -13,-31 3,-15.1 9.6,-30 12,-44 -12.8,-6.5 -12.1,25.1 -17,34 -7.2,10.9 -3.4,33.1 -22,33 -23.9,13.8 28.1,-0.8 7,24 4,0.6 40.6,-6.2 10,6 -32.8,2.4 3,11.6 8,9 -0.4,26.7 20.5,4.8 36,8 17.3,-1.3 33.8,-6.3 43,-14 17.9,-22.7 4.5,14.9 -6,14 17.9,-0.7 23.7,-16.4 26,-31 6.2,-12.5 14.3,-26 18,-39 7,-11.8 14.5,-25.9 17,-40 0.2,-18.8 26.8,-13.7 40,-17 20.5,1.5 40.8,0.3 56,-1 17.5,-1.3 34.1,-3.3 51,-5 l 57,0 c 20.6,1.7 36.1,-4.2 54,-3 16.9,-2 38.6,-1.8 53,-5 17.9,0.1 35.8,3.6675 52,1.1675 16.7,3.4 39.6,-2.1675 56,-2.1675 17.4,3.6 41,-8.3 49,1 -1.6,17.5 -11.5,29.2 -17,40 -4.1,14.9 -13.2,24.3 -20,36 -7,11.8 -14.2,26.1 -20,37 -5.9,13 -12.1,28.3 -20,37 -6.2,12.8 -15.6,24.9 -33,25 l -55,0 c -15.9,2.8 -39.6,0.6 -54,3 -16.7,2 -36.1,4.2 -54,3 l -57,0 c -15.8,2.9 -35.5,1.7 -54,1 -19.3,3.1 -38.8,-3.6 -54,0 l -57,0 c -20.2,-0.5 -37.3,3.9 -56,2 -15.5,3 -35.2,1.8 -54,2 -19.6,-1.2 -37.2,2.7 -54,3 -18.6,-0.2 -36.9,3.2 -53,4 -15.5,3.1 -36.6,3.5 -52,5 -16.4,2 -35.4,1.5 -52,3 m 822,-29 c 7.1,-15.6 21.3,-33.9 28,-51 15.2,-17.7 13.7,-37.7 0,-56 -7.5,-18.6 -12.1,-43.4 -17,-65 12.2,-25.5 -39.3,-4.3 -56,-9 -27.2,2.8 -53.9,-3.2 -78,0 -27.2,-0.1 -50,3.9 -76,5 -27.4,-0.6 -50.6,5.6 -77,4 -26.7,0.5 -53.4,0.6 -79,2 -21.5,5.4 -54.6,1.7 -77,4 -24.9,2.3 -48.5,5.5 -74,7 -26.5,-0.1 -54.3,-1.7 -79,-3 -24.2,-3.8 -50.2,0.5 -75,1 -25.1,2.6 -55.7,1.4 -78,5 -22.9,0.1 -49.8,8.6 -72,1 -26.8,-12.1 -29.1,34 -43,-6 -28.9,-25.5 -3.1,-9.5 23,-8 22.3,6.1 55.5,2.3 77,5 24.8,-0.7 54.1,-5.3 71,0 23.7,-3.4 53.7,-2.8 76,-6 25,-1.5 49.9,-3.4 75,-5 24.6,-2.6 53.3,-3.2 76,-6 25.3,-1.2 50.9,-2.4 75,-5 29.8,2.6 52.3,-4.3 78,-4 25.7,5.7 48.9,-3.3 75,-2 23.4,8.7 53.1,-0.3 76,0 25.8,-0.6 50.5,-2.6 76,-4 24.9,-2.7 47.3,7.5 74,1 25.7,0.8 49.3,-5.7 72,-4 1.5,21.4 0.8,55.6 -1,77 -3.1,30.2 15.4,38.5 18,61 18.2,25.6 -3.8,39.8 -26,42 -20.7,6.3 -41.8,12 -62,19 m -770,-16 c -42.9,2.2 -13.2,-8.7 11,-8 14.5,-5.3 44.2,-15.1 45,-6 37.7,-8.1 22.1,2.1 -4,6 -1.6,4.5 -38.5,5.2 -52,8 m 583,0 c 22.2,0.4 37.9,-5.5 44,-21 6.2,-20.5 -9.8,-33.2 -24,-37 -23,-7.7 -33.6,7.1 -41,20 -6.4,21.2 6.3,37.1 21,38 m -267,-4 c 20.7,1.4 36.1,-1.7 53,-4 15.2,-2 40.8,3.1 45,-9 10.8,-24.6 24,-47.4 38,-69 8.6,-10.3 15.8,-21.6 22,-34 14.7,-13.7 10.3,-24.6 -3,-8 -28.7,61.8 11.4,-44.1 -17,14 -6.6,12.1 -10.5,26.8 -19,37 -5.3,12.3 -12,26.1 -18,36 8.2,38.8 -82.6,19.1 -19,15 11,-16.6 -42.1,8.8 -62,-6 -9.3,1.3 -16,-1.2 -23,-5 -38.1,-14.9 17.6,-1.1 34,-3 16.8,3.1 36.5,1.9 54,2 14.7,-3.7 18.3,-20.7 22,-33 3.5,-15.9 43.2,-59.2 8,-66 -8.4,7.7 -14.4,39.7 -2,14 13.5,-26.1 5.9,12.1 0,17 -16.5,19.1 -9.5,62.2 -49,58 -18.2,0.7 -32.7,-3.3 -53,-3 -18.5,-4.2 -39,7.9 -23,-12 12.4,-23.8 23.9,-48.2 36,-73 -21.7,15.1 -26.8,46.1 -41,68 -17.9,24.6 11.2,52.8 17,64 m 337,0 c 23.7,1.8 31.6,-11.9 40,-25 8.7,-15.3 9.4,-38.2 -12,-40 -26.2,-1.2 2.3,-28 -8,-45 -6.6,-12.6 -24.9,-19.8 -42,-20 -7.4,13.9 -20.4,22.5 -26,39 -2.1,24.2 7.5,36.3 23,41 20.7,-2.9 38.6,-17.9 16,3 -7.6,13.6 -7.7,45.6 9,47 m -676,-7 c -48.3,-14.4 3.5,-4.3 29,-10 52.6,-7.8 -13.5,10.2 -29,10 m 522,-1 c 24.4,-0.3 37.8,-14.4 44,-31 0.5,-24 -22.2,-25.9 -32,-42 -20.3,-6.2 -30.6,19.3 -40,30 -4.3,22.8 11.3,37.2 28,43 m 106,0 c -21.7,0.3 -49,-21.4 -22,-37 31.6,-10.5 46.6,28.8 22,37 m 273,-2 c 1,-9.2 -4.8,-33.8 -9,-49 -2.4,-17.6 -11.4,-32.1 -14,-49 -5.5,-15.6 -4.4,-39.8 -2,-56 3.1,-18.3 19.5,-25.4 30,-34 9.9,-11.5 19.1,-23.9 28,-37 9.7,-10.9 20,-24 26,-37 10,-10.8 18.3,-26 25,-39 6.5,-13.6 16.7,-26.8 23,-40 7.2,-13.8 16.2,-26.5 23,-41 7.5,-13.7 14.7,-30 21,-42 8.8,-12.7 14,-30.9 21,-43 4.2,-16.5 13.5,-30.7 18,-45 4.2,-16.8 14.3,-30.2 15,-48 8.4,-18.2 -2.6,-35 -6,-51 2.6,-19 -16.3,-32.4 -7,-49 8.2,-5.6 12.5,-51.1 17,-19 6,16.3 10.8,33.2 17,48 3.1,18.4 13.3,31.6 15,48 12.1,14.9 -2.4,36.1 11,46 7,14.9 11.8,33.5 14,50 1.5,17.2 10.1,40.6 0,55 -5,16.3 -13.9,30.9 -20,43 -7.5,14.2 -17.5,27.7 -24,40 -7.7,13.2 -15.2,29.3 -23,41 -8.8,12.1 -17.1,25.4 -26,38 -8.6,12.5 -17.9,26.6 -25,39 -8.7,11.6 -16.4,27.5 -26,37 -6.6,14 -16.3,27.8 -23,40 -9.2,11.6 -17.5,26.9 -25,39 -8.4,11.7 -17.3,26.4 -24,38 -7.9,13.5 -18.2,26.8 -27,37 -7.6,13.2 -14.1,30.1 -23,40 m -211,-1 c -26.1,-2.5 -9.4,-39.8 7,-39 27.8,5.3 7.1,36.5 -7,39 m -576,-6 c -7.8,-5 -31.6,-2.1 -49,-3 13.5,-7.4 31.7,-4.9 41,-5 3.6,-6.9 10.1,-20.9 16,-34 3.9,-13.7 12,-26.2 12,-42 3.8,-14.6 6.7,-30.2 20,-35 3.7,9.6 -5.6,28.2 -11,38 -3.2,15.3 -9.4,27.6 -15,40 -3.4,14.9 -8.5,30.3 -14,41 m 79,0 c -9.1,-22.8 19.3,-23.7 35,-20 15.2,4 40.6,15 39,-11 7.6,-13.1 15.6,-25.7 23,-39 8.1,-11.6 7.8,-34.4 17,-43 11,-5.2 -3.6,28.8 -8,35 -4,16.7 -12.4,28.9 -20,42 -8.6,11.9 -11.5,29.6 -34,28 -14.1,5.4 -45.2,-3.2 -52,8 m 327,0 c -24.9,-5.1 -21.1,-46.4 -2,-53 9.6,-2.5 -23.9,42.2 2,53 m 18,-2 c -28,6.8 -19.8,-48.8 0,-39 31.5,0.7 21.5,39.3 0,39 m -558,-5 c 3.4,-8.4 18.4,-26 24,-38 9.3,-14.3 25.6,-23.5 30,-40 3.5,-19.6 19.8,-28.7 43,-27 18.3,-4.3 47.6,-0.3 62,-7 -11.1,11.8 -14.5,33.9 -23,46 -7.4,16 -13,35.9 -22,48 -16.2,10.9 -41.9,-0.1 -62,1 -17.9,5.2 -39.9,8.7 -52,17 m 46,-18 c 21.9,-12.2 19.5,-48.6 32,-70 -18.2,15.7 -17.3,50.6 -32,70 m 43,-9 c 16.9,-25.1 5.6,-11.9 8,-44 -8.6,-22.4 -5.4,34.9 -8,44 m 323,-11 c 10.7,-9.8 15.6,-37.4 11,-54 -3.4,9.8 -6.3,37.8 -11,54 m -188,-2 c 20.9,9.9 -17,-27.9 4,-51 -2.4,-14.2 -20.6,39.5 -4,51 m 365,-1 c 26.6,3 37.8,-11.2 48,-22 10.9,-9.5 15.7,-40.1 -4,-45 -23.9,-5.4 -40.4,7.1 -50,17 -10.5,12.1 -6.5,45.6 6,50 m 87,-2 c -35.8,-0.3 -11.7,-52.5 9,-48 37.8,1.5 6.2,48.5 -9,48 m -70,-4 c -33.6,-2.4 37.2,-8.6 28,-34 18.3,-16.6 -8.8,37.6 -28,34 m 3,-14 c -36,6.5 -17,-34.6 -1,-36 32.6,-9.5 18.2,34.7 1,36 m -566,-73 c -32.3,-0.5 -62.4,-4.4 -94,-8 -5.5,-1.6 -11.1,-7.8 -16,-10 18.4,13.3 -5,-27.9 19,-34 -11.6,-12.4 11.8,-44.5 22,-62 13.9,-19.1 25.4,-43 37,-63 14,-19.9 22.9,-45 32,-70 11.1,-22.1 21.8,-46.8 35,-65 20.1,-13.9 25.7,-42.3 62,-40 35.6,2.2 63.8,-4.9 97,-3 34.8,0.5 62.5,-5.7 98,-4 34.3,0.7 67.9,-1 97,-4 33,-0.5 66.7,-0.7 97,-4 33.8,0.1 64.2,-4.9 94,-6 36.5,1.9 61.8,-6.8 94,-8 30.7,-3.2 63.7,-5.6 93,-8 31,-3.6 68.4,6.1 93,-4 30.6,-2.9 67.9,-0.9 98,-2 33.2,-0.7 68,-2.5 96,-3 35.1,-23.2 -1.8,36.7 -3,48 -9.7,24 -21.6,46.1 -34,68 -9.9,23.1 -22,46.4 -37,63 -11,22.9 -25.7,42.2 -37,65 -14.4,18.8 -25.8,42.7 -42,58 -14,20.1 -26.7,41.3 -46,56 -31.1,-3.7 -62.9,3.8 -94,3 -28.7,-6.9 -61.4,3.8 -96,0 -32.9,0.4 -65.2,3.5 -91,9 -32.9,1.2 -63.8,4.3 -97,5 -29.3,4.2 -63.6,5.2 -94,6 -30.9,1.6 -65.5,6.4 -96,3 -33.9,-0.3 -65,3.9 -99,2 -30.5,2.5 -66.3,2 -95,4 -28.9,5.4 -64.7,4.9 -93,8 m 137,-48 c 31.6,8.6 23.8,-36.3 44,-29 1.2,4.8 -4.7,-32.9 6,-49 10.9,-35.6 -4.3,-39.2 -34,-39 -21.2,-1.9 -52.3,-1.9 -74,0 -21.1,5.4 -49.8,5 -60,19 -3,18.1 -12.3,47.6 -4,64 12.8,15.1 32.3,23.9 51,28 25.2,2 49.5,3.4 71,6 m 587,-12 c 24.3,0.3 52.3,1.9 69,-3 20.4,-3.7 39.4,-8.4 45,-26 9.8,-9.8 28.8,-35.8 6,-45 -16.6,-6 -28.4,-17.9 -54,-17 -25.6,2.7 -45.2,-4.2 -69,-3 -24.5,1.4 -44,-2.8 -70,-2 -21.8,2.2 -47.5,2.9 -71,2 -23.1,0.1 -46.9,-0.1 -69,1 -24.8,-0.3 -47.2,3.8 -68,5 -22.4,1.3 -41,6.3 -48,23 -7.4,8.6 -21.5,45.2 -5,50 15.6,9.1 34.3,14 59,12 l 73,0 c 21.6,-1.9 43.3,-3.8 66,-5 26.1,-0.9 48.5,3.2 71,2 25.4,-1 44.2,4 65,6 m -590,-2 c -19.3,0.1 -45.3,2.6 -61,-1 -19.6,-0.9 -34.5,-9.5 -45,-19 -11.5,-8.9 -4.3,-40.8 -2,-52 5.6,-15.4 24.5,-17 42,-20 16.3,-2.8 43.4,-4.5 59,-2 13.4,6.9 53.4,-5.9 49,11 -0.1,20.9 -6.7,37.8 -8,56 -6.5,13.5 -12.7,27.8 -34,27 m 74,0 c 12.6,-9.3 10.8,-35.6 14,-52 1.5,-20.4 10.2,-33.3 33,-32 22.7,-0.9 42.1,1.3 60,4 19.3,-0.3 47.8,4.6 29,26 -13.2,6.2 -6.7,57.4 0,24 17,7.1 -4,27.3 -26,17 -15.8,-4.6 -39.5,-6.6 -57,-2 -16.5,-2.5 -59.25705,6.9248 -39.95705,14.9248 18.9,4 51.95705,-7.5248 67.95705,-3.9248 17.7,1.7 45.9,4.5 58,-3 26.1,-7.7 -4,-27.5 5,-42 8,-13.3 12.5,-41.8 -12,-40 -19.5,4.5 -40.7,-3.9 -61,-3 -18.7,-2.2 -41.8,-0.8 -54,4 -5.1,-25 -9.5,22.5 -10,33 -2.1,18.4 -10.6,35.3 -7,55 m 567,-6 c -21.1,0.5 -44.1,1.9 -62,-3 -18.8,-1.6 -38.6,-3.5 -62,-3 -18.5,-1.7 -40.9,-1 -63,-1 -22.7,-1.6 -39.6,3.1 -62,3 -18.1,2.8 -41.6,0.9 -63,1 -19.7,3.9 -39.7,0.6 -56,-6 -12,-11.2 -1.6,-38 5,-48 21.8,-6 18.7,-13.9 42,-17 21,-0.2 39,-3.8 61,-3 19.4,-2.7 43.6,0 64,-1 22.8,1 42.7,-0.7 63,-2 22.5,0.1 43.9,0.3 62,3 18.4,2.4 36.7,10.7 57,5 18.5,-2.8 44.2,-1.6 55,6 11.9,8.9 15.1,35.2 7,49 -8.4,13.8 -31.8,12 -48,17 m -3,-111 88,0 c 22.7,-6.1 30.2,-30 41,-46 13.7,-16 30,-31.2 36,-53 18.2,-33.7 -28.5,-30.9 -50,-26 -26,2.9 -51.3,9 -77,11 -25.5,-7.6 -46.7,9 -61,20 -10.2,19.5 -17.1,43.9 -25,63 -21.8,35.2 30.8,25.4 48,31 m 85,-8 c -28.9,1.1 -55.9,-0.7 -84,-3 -21.8,-1 -46.2,-20.2 -29,-43 7,-21.7 18.7503,-30.73557 37.1503,-40.93557 23.4,-5.1 56.2497,-10.46443 79.8497,-13.06443 17.8,-3.9 59.7,-18.5 60,11 -3.3354,2.86491 -6.3734,6.85213 -9.7117,11.97339 -3.3382,5.12125 -6.9767,11.37654 -11.5132,18.77758 -4.5364,7.40104 -12.9385,28.80823 -19.8685,38.51253 -6.93,9.7042 -12.3877,7.7056 -22.9066,19.7365 m -723,-6 c 30.5,3.3 53.7,-2.9 76,-6 24.5,-3 15.2,-42 18,-60 8.1,-19.8 9.8,-57.5 -18,-54 -23.2,-2.8 -49.4,-3.4 -77,-3 -15,17.3 -54.5,-4.4 -60,15 -12,15.8 -22.5,34.7 -30,53 -14.7,20.1 -5.8,49.2 19,47 18.2,9.8 48.9,5.9 72,8 m 395,0 c 34.2,3.2 58.9,-3 88,-4 34.9,3.9 49.8,-13.6 68,-24 11.6,-14.8 18.6,-51.8 8,-75 -8.6,-20.9 -53.8,-8 -77,-14 -31.6,-0.6 -57.6,4.3 -88,5 -28.6,1.4 -52.6,9.7 -57,34 -15.3,14.2 -21.5,41.9 -22,67 20.7,11.2 59.4,4.8 80,11 m -253,-6 c 20.7,-2.5 48.3,-0.4 68,-2 20.2,-2.4 50.3,2.2 63,-6 9.3,-13.8 15.2,-33.3 17,-52 1,-22.7 -7.9,-39.3 -30,-39 -17.3,-4.8 -38.9,-8.7 -61,-9 -18.7,-1.4 -50.9,-4.6 -55,11 -2.5,20.5 -10.1,38.4 -16,54 -6.5,16.1 -10.8,47.1 14,43 m -123,-3 c -24.2,-0.2 -53.9,2.2 -73,-3 -17.8,-2.8 -46.3,-9.4 -31,-34 7.9,-17.7 18.3,-34.7 27,-49 6,-18.8 41.3,-8.2 57,-17 6.5,0 13.6,-2.7 18,-2 -5.4,4 0.4,12.5 25,6 17.8,-2.5 57.4,-11.4 48,20 -6,19.6 -6.7,46.3 -8,68 -13.3,11.5 -43.3,6.2 -63,11 m 149,-6 c -16.7,1.5 -47.5,4 -33,-19 4.2,-14.6 7.3,-31 12,-46 0.9,-17.2 18.1,-25.2 34,-19 17.7,3.1 32.6,7.8 51,8 15.1,5.3 42.4,-2.4 46,13 1.5,20.5 -4.4,34.1 -9,49 -6,11.7 -29,13.6 -45,11 -18.5,0.7 -40.2,-1.4 -56,3 m 221,0 c -21.5,-4.3 -59.5,7 -62,-19 -1.8,-28.8 18.4,-35.3 25,-55 11.9,-15.3 40.2,-13.8 63,-17 26.3,0.7 57.5,-0.2 78,0 21.5,0.9 61.8,-10.9 60,17 -7.7,18.9 -6,47.4 -22,58 -19.7,7.2 -42.8,10.9 -68,13 -25.5,3.9 -49.2,-1.5 -74,3 M 350,868 c -31.5,5 -27.6,-26.7 -36,-47 -0.7,-22.7 -2.5,-57.6 24,-58 2.9,20.1 30.7,5.8 47,-4 23,-4.7 45.1,-12 65,-17 24.6,-3.5 50.2,-5.6 74,-9 25.7,-2.8 51.7,-4.5 76,-8 26.4,-1.3 51.9,-3.7 79,-5 24.9,-1.6 51.6,-4.3 77,-4 29.3,1.4 52.7,-3 82,-2 24.5,3.9 62.2,-6 72,11 11.8,34.3 -15.8,37.7 -34,46 4.2,24.3 41.4,16.5 62,20 27.6,1.3 57.3,-0.6 82,2 26,-1.7 54.1,-1.3 77,-6 23.5,-4.5 54.8,-1 69,-14 18.1,-26.5 -21.6,-29.3 -31,-42 11.4,-16.8 46.8,-9.2 71,-12 27.6,1.3 59,-2.3 81,3 22,6.3 28.8,27.3 31,52 10.7,22.6 3.6,54 -22,51 -27.5,-1.1 -55,4.2 -79,2 -25.7,1.6 -52.6,2.4 -82,1 -27.6,0 -50.1,5.3 -80,3 -25.9,1.5 -53.1,3.7 -77,5 -25.6,2.2 -50.7,4.9 -76,8 -25.4,1.7 -48.4,6.5 -78,4 -26.9,1.6 -50.5,5.8 -79,5 -25.6,1.6 -51.4,5.2 -76,6 -25.2,2.4 -52,3.4 -80,3 -24.1,3.9 -54.4,1.4 -82,2 -27.6,-0.3 -50.8,4.3 -80,3 -24.3,-1.2 -55.6,-2.8 -77,1 m 673.1181,-88.04295 c -33.39998,0.9 -65.89998,0.5 -92.99998,-6 -37.4333,7.97613 -9.7119,-14.17577 -3.09483,-32.26451 C 932.43722,726.89277 932.02998,716.43996 926,706 c -5.7,-25.7 2.1,-59.9 1,-89 1.8,-30.8 4.3,-62.6 6,-91 2.3,-6.4 1.6,-15.4 3,-22 -4.4,-38 13,-25.9 24,-8 14.2,26.8 34.8,42.3 35,-3 4.1,-39.2 26.5,19.3 34,27 14.3,18.2 10.9,-75.4 28,-33 10.7,47.7 24,15.9 31,-12 2.5,-1.5 27,68.7 24,26 1.5,-21.1 27.2,-71.3 19,-29 0.1,28 9.1,56.1 4,86 -1,31.7 -2.7,62.9 -9,90 -1.6,30.1 -10.9,57.6 -3,85 2.3,6.6 5.3,11.9 9,15 46.4,3.2 -0.097,16.08188 -11.0966,19.88188 -21.4,11 -58.7034,6.01812 -86.9034,8.11812 M 338,753 c -6.3,-5.4 28.2,-22.8 35,-34 13.9,-14.1 42.2,-13.7 66,-17 25.6,-3.2 56.4,-2.8 81,-5 25.2,-2 51.3,-3.8 77,-6 30.8,2.7 51,-7.4 79,-6 27.3,-0.2 48.8,-6.5 74,-9 26.7,-1.6 54.6,-4 81,-4 25.1,-2.6 54.8,-0.7 78,-6 12.4,24.2 1.2,57.6 -33,40 l -83,0 c -24.6,4.2 -58.7,0.5 -82,3 -27.4,0.9 -51.1,5 -79,5 -24.1,3.9 -56,2.4 -78,6 -25.1,3.3 -50.9,5.4 -74,10 -24,4.3 -50.5,8.1 -75,10 -23.6,7.1 -49.2,2.4 -67,13 m 810,-39 c -30.2,8.1 -13.8,-24.7 -14,-38 7.6,-15.5 36,-3.5 52,-7 22.3,0 38.9,3.9 61,2 18.9,2.8 39.8,2.2 57,-2 30.1,-8.7 17,29.5 10,36 -9.7,14 -30.7,3.3 -50,4 -19.4,4.9 -35.6,3 -58,2 -20.3,-0.2 -39.7,1.1 -58,3 M 563,686 c -27.6,6.7 -19,-40 -9,-46 27.4,-14.6 21.8,45.1 9,46 m -91,-44 c -37.5,2.3 -25.2,-47.3 -34,-73 1.2,-29.4 -13,-82.8 23,-80 36.4,0.7 63.9,-9.2 91,-16 32.7,-2 61.2,-8.5 91,-14 47.6,-10.5 31.9,42.5 36,71 -5.3,31 5.2,78.9 -24,84 -23.3,11.5 -64,8.2 -91,15 -32.8,2 -56.1,13.7 -92,13 m 24,-30 c 25.5,0.2 45.8,-6.9 68,-7 23.5,-2.4 48.4,-4.9 65,-11 22.3,-2.5 27.4,-28 22,-51 -5.8,-18.3 -8.4,-40.4 -26,-48 -18.8,-5.9 -47.2,2.8 -65,5 -22.5,2.3 -47.5,4.8 -67,9 -31.6,-2.3 -16.8,29.7 -17,49 6.7,19.6 2.5,48.6 20,54 m 19,-11 c -29.2,8.7 -19,-25.9 -28,-38 1.4,-17.1 -13.1,-44.3 9,-46 18.5,-4 37.6,-6.6 58,-8 16.3,-5.1 37.7,-5.3 55,-9 21.3,1.4 27,20.2 29,37 5,14.5 9.4,48 -12,46 -12.5,8.9 -32.2,10.8 -54,11 -19.5,1.7 -36.9,5.9 -57,7" /></g></g></svg>