<?xml version="1.0" encoding="UTF-8" standalone="no"?>
<!-- Generator: imaengine 1.0   -->

<svg
   width="1440"
   height="1462"
   viewBox="0 0 1440 1462"
   version="1.0"
   xml:space="preserve"
   id="svg2"
   inkscape:version="1.3.2 (091e20e, 2023-11-25, custom)"
   sodipodi:docname="posprogram.svg"
   inkscape:export-filename="posprogram_export.png"
   inkscape:export-xdpi="17.066668"
   inkscape:export-ydpi="17.066668"
   xmlns:inkscape="http://www.inkscape.org/namespaces/inkscape"
   xmlns:sodipodi="http://sodipodi.sourceforge.net/DTD/sodipodi-0.dtd"
   xmlns="http://www.w3.org/2000/svg"
   xmlns:svg="http://www.w3.org/2000/svg"
   xmlns:rdf="http://www.w3.org/1999/02/22-rdf-syntax-ns#"
   xmlns:cc="http://creativecommons.org/ns#"
   xmlns:dc="http://purl.org/dc/elements/1.1/"><metadata
     id="metadata14"><rdf:RDF><cc:Work
         rdf:about=""><dc:format>image/svg+xml</dc:format><dc:type
           rdf:resource="http://purl.org/dc/dcmitype/StillImage" /></cc:Work></rdf:RDF></metadata><defs
     id="defs12" /><sodipodi:namedview
     pagecolor="#ffffff"
     bordercolor="#666666"
     borderopacity="1"
     objecttolerance="10"
     gridtolerance="10"
     guidetolerance="10"
     inkscape:pageopacity="0"
     inkscape:pageshadow="2"
     inkscape:window-width="1920"
     inkscape:window-height="1001"
     id="namedview10"
     showgrid="false"
     inkscape:zoom="0.33345764"
     inkscape:cx="721.23104"
     inkscape:cy="895.16617"
     inkscape:window-x="-9"
     inkscape:window-y="-9"
     inkscape:window-maximized="1"
     inkscape:current-layer="layer2"
     inkscape:showpageshadow="2"
     inkscape:pagecheckerboard="0"
     inkscape:deskcolor="#d1d1d1" /><g
     label="Stroke Layer"
     groupmode="layer"
     id="layer2"
     style="display:inline;opacity:0.8"
     transform="translate(0,-1100)"><g
       id="g4166"
       transform="translate(-26.989935,827.69133)"><path
         inkscape:connector-curvature="0"
         id="path4142"
         d="m 379.58726,705.88264 -53.07788,41.81894 -19.30105,22.51789 -3.21684,48.25261 16.08421,59.51157 -57.90314,64.33682 -53.07788,104.54733 -75.59577,156.0168 17.69263,33.7768 27.34315,41.819 -77.20419,122.2399 -16.084209,48.2527 43.427359,77.2041 9.65052,25.7348 96.50524,3.2168 138.32417,-1.6084 109.3726,8.0421 83.63787,0 83.63787,-3.2168 48.25261,-3.2169 86.85472,-4.8252 144.75785,-17.6927 17.69263,-4.8252 43.42735,-70.7705 24.12632,-45.0358 99.7221,-28.9516 19.301,-1.6084 152.8,-242.8715 77.2042,-115.8063 40.2105,-93.2884 -16.0842,-80.42102 -49.8611,-152.79996 -14.4758,-30.55999 -51.4694,3.21684 -69.1621,-3.21684 -152.8,-1.60842 -197.83569,3.21684 -218.7452,16.0842 -54.6863,6.43369 -1.60842,-43.42736 4.82526,-17.69263 77.20419,-11.25894 19.30105,-9.65052 6.43368,-69.16209 -3.21684,-75.59577 -19.30105,-12.86736 -69.16208,12.86736 -141.54102,20.90947 -12.86736,12.86737 -6.43368,25.73473 9.65052,98.11365 6.43368,24.12631 35.38526,3.21684 20.90946,-9.65052 33.77684,-3.21684 3.21684,56.29472 -56.29472,3.21684 -61.11999,6.43368 z"
         style="fill:#e5e5e5;fill-opacity:1;fill-rule:evenodd;stroke:none;stroke-width:1px;stroke-linecap:butt;stroke-linejoin:miter;stroke-opacity:1" /><path
         inkscape:connector-curvature="0"
         id="path4148"
         d="m 181.75153,1265.613 -80.42103,147.9747 -16.084209,30.56 62.728399,-1.6084 104.54734,-1.6084 115.80628,-9.6506 218.7452,-9.6505 165.66732,1.6084 175.31785,-8.0421 40.21051,-75.5957 49.86101,-83.6379 1.6085,-27.3432 -70.77055,8.0421 -102.93892,-1.6084 -196.22731,9.6505 -170.49259,9.6506 -69.16208,-3.2169 -53.07788,1.6084 -128.67365,8.0421 z"
         style="opacity:1;fill:#999999;fill-opacity:0.8;fill-rule:evenodd;stroke:#000000;stroke-width:1px;stroke-linecap:butt;stroke-linejoin:miter;stroke-opacity:1" /><path
         inkscape:connector-curvature="0"
         id="path4162"
         d="m 847.16511,1336.8822 -19.80163,4.3047 -16.35786,18.0797 15.49692,23.2454 25.82821,2.5828 12.9141,-7.7484 6.02658,-12.0532 -6.02658,-17.2188 -12.05316,-7.7485 z"
         style="fill:#c2b97b;fill-opacity:0.8;fill-rule:evenodd;stroke:none;stroke-width:1px;stroke-linecap:butt;stroke-linejoin:miter;stroke-opacity:1" /><path
         inkscape:connector-curvature="0"
         id="path4160"
         d="m 883.32459,1268.007 -20.66256,23.2453 -4.3047,16.3579 6.02658,13.775 c 0,0 6.02658,12.0532 9.47034,11.1923 3.44376,-0.861 28.41103,-8.6094 28.41103,-8.6094 l 7.74846,8.6094 -18.07975,20.6625 5.16565,26.6892 22.38444,2.5828 10.33128,-7.7485 10.33128,-18.0797 -4.3047,-18.0798 -18.94068,-8.6094 -11.19222,-16.3578 9.47034,-17.2188 -5.16564,-22.3845 -12.05316,-5.1656 z"
         style="fill:#c2b97b;fill-opacity:0.8;fill-rule:evenodd;stroke:none;stroke-width:1px;stroke-linecap:butt;stroke-linejoin:miter;stroke-opacity:1" /><path
         inkscape:connector-curvature="0"
         id="path4158"
         d="m 829.08536,1261.9804 -20.66256,2.5828 -21.5235,20.6626 6.02658,25.8282 6.88752,9.4703 18.07974,0 12.9141,-8.6094 12.91411,-15.4969 1.72188,-14.636 -2.58282,-17.2188 z"
         style="fill:#c2b97b;fill-opacity:0.8;fill-rule:evenodd;stroke:none;stroke-width:1px;stroke-linecap:butt;stroke-linejoin:miter;stroke-opacity:1" /><path
         inkscape:connector-curvature="0"
         id="path4156"
         d="m 754.18357,1313.6368 -11.19222,-0.861 -18.07974,22.3845 -3.44376,18.9407 17.2188,21.5235 21.5235,0.8609 18.07974,-7.7484 6.88753,-15.497 -1.72188,-18.0797 -22.38445,-12.9141 z"
         style="fill:#c2b97b;fill-opacity:0.8;fill-rule:evenodd;stroke:none;stroke-width:1px;stroke-linecap:butt;stroke-linejoin:miter;stroke-opacity:1" /><path
         inkscape:connector-curvature="0"
         id="path4154"
         d="m 593.18776,1246.4835 -28.41102,52.5173 -20.66257,44.7689 20.66257,37.0204 79.20649,-0.8609 18.07974,-2.5828 7.74847,-24.1064 31.85478,-53.3783 27.55009,-38.7423 5.16564,-20.6625 -58.54393,1.7219 -68.87521,6.8875 z"
         style="fill:#87ac81;fill-opacity:0.8;fill-rule:evenodd;stroke:none;stroke-width:1px;stroke-linecap:butt;stroke-linejoin:miter;stroke-opacity:1" /><path
         inkscape:connector-curvature="0"
         id="path4152"
         d="m 424.44349,1250.7882 -16.35786,53.3782 -7.74846,31.8548 -2.58282,17.2188 -3.44376,12.9141 17.2188,-0.8609 6.02658,14.636 63.70957,-3.4438 12.91411,-0.8609 11.19222,-22.3845 17.2188,-37.8813 15.49692,-37.8814 0.86094,-24.9673 -29.27196,3.4438 -47.35171,-3.4438 -23.24538,0 z"
         style="fill:#87ac81;fill-opacity:0.8;fill-rule:evenodd;stroke:none;stroke-width:1px;stroke-linecap:butt;stroke-linejoin:miter;stroke-opacity:1" /><path
         inkscape:connector-curvature="0"
         id="path4150"
         d="m 267.75239,1260.2585 -36.15949,60.2658 -35.29855,46.4908 6.88753,13.775 20.66256,8.6094 4.3047,9.4704 6.02658,1.7218 90.39872,-10.3312 16.35786,-2.5829 9.47034,-33.5766 28.41103,-79.2065 8.6094,-22.3845 -33.57667,-0.8609 -46.49077,7.7485 -21.5235,0 z"
         style="fill:#87ac81;fill-opacity:0.8;fill-rule:evenodd;stroke:none;stroke-width:1px;stroke-linecap:butt;stroke-linejoin:miter;stroke-opacity:1" /><path
         inkscape:connector-curvature="0"
         id="path4146"
         d="m 482.52618,516.08901 0,45.03578 11.25894,46.6442 40.21051,-4.82526 90.07156,-14.47579 22.51789,-8.0421 -3.21685,-20.90947 -9.65052,-45.03578 -6.43368,-14.47578 -4.82526,-6.43368 -38.6021,9.65052 -64.33682,6.43368 -24.12631,3.21684 z"
         style="fill:#616c60;fill-opacity:1;fill-rule:evenodd;stroke:none;stroke-width:1px;stroke-linecap:butt;stroke-linejoin:miter;stroke-opacity:1" /><path
         inkscape:connector-curvature="0"
         id="path4144"
         d="m 141.54101,1227.0109 36.99368,46.6442 62.7284,-16.0842 125.4568,-6.4337 61.11999,1.6084 136.71575,-1.6084 56.29472,-4.8252 234.8294,-12.8674 117.41471,0 46.64424,0 12.8673,54.6863 20.9095,41.8189 -12.8674,32.1684 -35.3852,57.9032 25.7347,-8.0421 78.8126,-27.3432 22.5179,-4.8252 -28.9516,-64.3369 -11.2589,-41.8189 8.0421,-75.5958 -159.23366,8.0421 -189.79363,11.259 -32.16841,-3.2169 -94.89681,6.4337 -286.29887,16.0842 -73.98734,-1.6084 -56.29472,1.6084 -33.77684,-6.4336 z"
         style="fill:#6b6b6b;fill-opacity:1;fill-rule:evenodd;stroke:none;stroke-width:1px;stroke-linecap:butt;stroke-linejoin:miter;stroke-opacity:1" /><path
         inkscape:connector-curvature="0"
         id="path4164"
         d="m 934.12006,469.0545 -9.47034,94.70341 -6.88752,104.17376 0.86094,53.37829 3.44376,18.94068 -19.80162,38.74231 100.73002,6.88752 151.5254,-13.77504 12.9141,-17.2188 -24.1063,-12.05317 -13.775,-8.6094 -5.1657,-24.10632 9.4704,-92.1206 5.1656,-43.047 4.3047,-105.89564 -12.0531,-29.27197 -11.1923,24.96727 -10.3312,22.38444 -3.4438,15.49692 -17.2188,-34.4376 -7.7485,10.33128 -10.3313,26.68914 -5.1656,-0.86094 -8.6094,-23.24538 -6.0266,-13.77504 -6.0266,6.02658 -14.6359,33.57666 -9.4704,-6.88752 -5.1656,-15.49692 -10.3313,-9.47034 -8.60941,2.58282 -6.02658,8.6094 -0.86094,24.96726 -1.72188,3.44377 -4.3047,3.44376 -15.49692,-16.35787 -10.33128,-17.2188 -8.60941,-7.74846 -7.74846,-2.58282 z"
         style="opacity:0.9;fill:#fefefa;fill-opacity:0.8;fill-rule:evenodd;stroke:#000000;stroke-width:1px;stroke-linecap:butt;stroke-linejoin:miter;stroke-opacity:1" /><path
         sodipodi:nodetypes="ccccccccccccccccccccccccccccccccccccccccccccccccccccccccccccccccccccccccccccccccccccccccccccccccccccccccccccccccccccccccccccccccccccccccccccccccccccccccccccccccccccccccccccccccccccccccccccccccccccccccccccccccccccccccccccccccccccccccccccccccccccccccccccccccccccccccccccccccccccccccccccccccccccccccccccccccccccccccccccccccccccccccccccccccccccccccccccccccccccccccccccccccccccccccccccccccccccccccccccccccccccccccccccccccccccccccccccccccccccccccccccccccccccccccccccccccccccccccccccccccccccccccccccccccssscccccccccccccccccccccccccccccccccccccccccccccccccccccccccccccccccccccccccccccccccccccccccccsccccccccccccccccccccccccccccccccccccccccccccccccccccccccccccccccccccccccc"
         style="fill:#1a1a1a;fill-opacity:1;fill-rule:evenodd;stroke:none"
         inkscape:connector-curvature="0"
         id="path8"
         d="m 486,1566 100,0 c 32,-1.3 63.3,-5.4 96,-5 29,-6.9 65.7,2.8 94,-3 30.4,-2.5 61.2,-7.1 89,-10 27.2,-7 62.3,-7.3 85,-16 14.3,-19.2 28.1,-40.8 37,-63 15.9,-17.9 16.6,-52.6 45,-56 24.7,-8 51.6,-14 76,-23 33.1,4.5 37.1,-28 52,-45 17.7,-15.5 28.4,-40.2 43,-57 12.3,-21.2 31.8,-37.1 42,-58 11.6,-22.3 25.2,-44 37,-64 15.5,-17.7 29.3,-39.3 40,-60 10.9,-22.6 28.1,-40.8 37,-63 10.4,-23.4 24.6,-44.6 31,-70 10.5,-20.1 28.5,-43.3 14,-75 -5.4,-27.3 -8.9,-59.1 -20,-80 -6.4,-26.5 -18.3,-50 -23,-78 -8.3,-24 -17.9,-49.8 -30,-71 -15.5,-17.5 -56,4.1 -84,-6 -32.1,-0.5 -66.4,-1.6 -99,-1 -26.4,-0.9 -0.1,-53.2 -6,-76 3.3,-29.8 4.2,-64.2 6,-94 5.7,-27.9 -9.4,-80 -25,-43 -1.2,6.7 -6.9,12.8 -9,17 -5.4,35.5 -10.7,23.1 -19,-3 -18.5,-21.4 -24.6,67.7 -34,17 -15.2,-50.5 -26.7,31.7 -35,18 -8.5,-26.2 -38.7,-44.7 -40,-2 2.3,48.6 -17.4,-19.6 -33,-21 -24.8,-35.1 -30.5,20.3 -32,43 -4.5,31.1 -1.4,61.1 -3,94 4.5,37.8 -7.1,59.2 -50,50 -27.1,5.5 -66.7,1.3 -95,4 -31.9,2 -60.3,9 -91,10 -31.7,1.6 -58.9,9.6 -93,7 -20.5,-25.9 -4.6,-59.2 29,-52 26,-8.1 65.7,-3.8 65,-36 3.3,-29.6 7,-63.8 3,-94 10.1,-40.9 -8.4,-61.8 -46,-51 -32.4,0.7 -51.7,14.3 -86,13 -29.1,4.3 -62.3,6.5 -87,13 -32.5,1.2 -44.2,24.8 -38,62 0.2,33.9 3,66.5 10,90 -1.6,39.4 49.6,13.5 71,20 37,-32.8 29.9,36.3 13,41 -31.8,2.3 -67,2.4 -96,5 -90.54125,1.55785 -54.58962,8.19963 -94,46 -24.3,9.6 -31.5,37.7 -29,71 -13.3,31.4 7.8,59.1 -10,79 -13.3,19.9 -27.8,40.7 -40,60 -13.4,20.1 -24.3,44.5 -35,65 -10.8,23 -25.6,43.6 -37,63 -14.5,19.7 -22.6,46.9 -33,68 -6.8,22 -32.2,45.1 -20,71 13.2,21.1 25.5,41.8 39,60 -10.9,23.2 -25,44.5 -39,62 -11.2,22.3 -20,48.8 -34,67 -11.8,20.8 -32.9,45.9 -6,63 13.7,20.5 22.5,47.1 34,66 4.5,30.1 48,21.9 77,23 29.5,5.3 66.5,3.7 97,3 32.2,-4.1 63.3,0.7 96,-1 31.4,2.5 63.8,3.1 93,6 m 114,-9 -63,0 c -19.1,-1.4 -41,-2.9 -61,-3 -18.6,-1.1 -41.2,-2.1 -60,-3 l -62,0 c -14.9,-1.4 -41.9,0.2 -58,1 l -62,0 c -16,-3.6 -40.9,-2.2 -60,-3 -20,0.5 -39.5,-0.6 -42,-20 -6.8,-12.9 -12.4,-30.8 -21,-42 -6.2,-13.7 -14.2,-29.2 -25,-38 -3.3,-11.7 33,3.5 46,-2 20.4,-0.2 43.6,2.4 60,-1 18.7,-2.9 45.5,0.3 61,-3 21.8,1.2 36.9,-4.3 57,-5 17.8,-2.8 41.9,-2.2 58,-5 18.2,-2.4 41.4,0.2 61,-1 19.9,-0.8 42.4,-1.7 60,-3 l 63,0 c 18.3,-1.3 45.1,-3 60,0 21.5,0.4 38.9,-2.7 60,-2 l 64,0 c 17.1,-3 42,1.3 58,-3 19.8,-1.3 43.2,-1.5 61,-3 20.2,3.1 43.1,-3.4 57,2 7.2,13.9 6.9,37.7 10,52 2.4,19.9 8,37.8 16,48 -10.1,10.7 -36.1,8.2 -51,12 -17.4,3.4 -34.2,7.2 -54,8 -17.3,3.6 -38.9,5.5 -56,8 -17.6,2.2 -38.6,1.8 -60,1 -16.2,-1.8 -40.6,2.6 -60,0 -17.7,3.1 -38.9,2.4 -57,5 m 346,-36 c -5.9,-21.9 -12.6,-56.4 -8,-81 -11,-32.1 13,-46.7 22,-68 8.7,-23.1 24.5,-39.2 32,-64 10.9,-13.5 22.8,-52.5 32,-49 -1,34.1 17.4,47.6 20,76 -4.7,26.3 -19.8,43.2 -30,64 -13.4,19.3 -20.4,44.3 -33,64 -11,19.9 -25,39.3 -35,58 m -389,-9 c 27.2,8.5 50.3,-40.4 17,-45 -36.4,-9.6 -43.5,38.8 -17,45 m -338,-8 c 24.6,-0.9 47.8,-6.1 71,-7 l 77,0 c 25.3,1.3 52.3,2.6 75,3 18.7,-5.2 61.2,4.8 64,-8 -21.2,-4.7 -48.9,1.1 -73,0 -22.7,-1.8 -49.7,-0.6 -74,-3 l -79,0 c -20.3,4.9 -49.8,1.1 -61,15 m 348,-1 c -21.1,4.9 -19.3,-26.1 -4,-25 27.1,-2 12.2,18.3 4,25 m 54,-8 c 16.7,-6.8 39.9,-9 59,-11 22.4,-0.4 44.4,-4 65,-4 20.3,-3.1 48.3,-0.5 68,-2 20.3,-0.8 50.2,2.9 57,-8 -19.4,-2.5 -44.4,3.1 -66,0 -22.2,1.5 -49.8,-0.6 -68,2 -22.2,1 -44.8,3.9 -65,5 -19,3.3 -44.4,0.5 -50,18 m -425,-57 -58,0 c -18.5,3.2 -39.2,-4.5 -51,0 0.7,-1 14.3,-22.2 17,-31 8.7,-10.4 15.2,-25.5 22,-35 6.3,-13 14.7,-26.1 20,-37 8,-11.4 15.7,-25.2 22,-36 9.1,-9.4 14.8,-25.2 32,-25 13.7,-4.6 31.2,-5.6 46,-9 31.6,-9.5 3.1,13.1 0,20 -3.6,14.9 -13.8,26.2 -21,36 -6.7,11.9 -15.3,24.9 -23,34 -11.3,9.6 -15.5,26.3 4,29 12.1,8 19.8,21.8 40,17 16.7,-2.7 36.8,-4 51,-6 18.7,-0.8 44.9,3.9 50,-8 5.4,-12.8 6.7,-30.1 11,-45 5.4,-12.7 10.2,-29.5 15,-41 6.6,-12.6 11.8,-29 15,-42 8.6,-12.1 37.1,-2.2 48,-3 20.5,-0.9 34.8,3.4 54,1 23.4,2.5 45.4,-5.7 27,13 -6.5,12.5 -11.2,29.3 -17,40 -7.2,10 -10.5,33.5 -25,29 -11.7,-0.7 -33.4,5.8 -50,0 -21.6,2.9 -21.9,-17.6 -13,-31 3,-15.1 9.6,-30 12,-44 -12.8,-6.5 -12.1,25.1 -17,34 -7.2,10.9 -3.4,33.1 -22,33 -23.9,13.8 28.1,-0.8 7,24 4,0.6 40.6,-6.2 10,6 -32.8,2.4 3,11.6 8,9 -0.4,26.7 20.5,4.8 36,8 17.3,-1.3 33.8,-6.3 43,-14 17.9,-22.7 4.5,14.9 -6,14 17.9,-0.7 23.7,-16.4 26,-31 6.2,-12.5 14.3,-26 18,-39 7,-11.8 14.5,-25.9 17,-40 0.2,-18.8 26.8,-13.7 40,-17 20.5,1.5 40.8,0.3 56,-1 17.5,-1.3 34.1,-3.3 51,-5 l 57,0 c 20.6,1.7 36.1,-4.2 54,-3 16.9,-2 38.6,-1.8 53,-5 17.9,0.1 35.8,3.6675 52,1.1675 16.7,3.4 39.6,-2.1675 56,-2.1675 17.4,3.6 41,-8.3 49,1 -1.6,17.5 -11.5,29.2 -17,40 -4.1,14.9 -13.2,24.3 -20,36 -7,11.8 -14.2,26.1 -20,37 -5.9,13 -12.1,28.3 -20,37 -6.2,12.8 -15.6,24.9 -33,25 l -55,0 c -15.9,2.8 -39.6,0.6 -54,3 -16.7,2 -36.1,4.2 -54,3 l -57,0 c -15.8,2.9 -35.5,1.7 -54,1 -19.3,3.1 -38.8,-3.6 -54,0 l -57,0 c -20.2,-0.5 -37.3,3.9 -56,2 -15.5,3 -35.2,1.8 -54,2 -19.6,-1.2 -37.2,2.7 -54,3 -18.6,-0.2 -36.9,3.2 -53,4 -15.5,3.1 -36.6,3.5 -52,5 -16.4,2 -35.4,1.5 -52,3 m 822,-29 c 7.1,-15.6 21.3,-33.9 28,-51 15.2,-17.7 13.7,-37.7 0,-56 -7.5,-18.6 -12.1,-43.4 -17,-65 12.2,-25.5 -39.3,-4.3 -56,-9 -27.2,2.8 -53.9,-3.2 -78,0 -27.2,-0.1 -50,3.9 -76,5 -27.4,-0.6 -50.6,5.6 -77,4 -26.7,0.5 -53.4,0.6 -79,2 -21.5,5.4 -54.6,1.7 -77,4 -24.9,2.3 -48.5,5.5 -74,7 -26.5,-0.1 -54.3,-1.7 -79,-3 -24.2,-3.8 -50.2,0.5 -75,1 -25.1,2.6 -55.7,1.4 -78,5 -22.9,0.1 -49.8,8.6 -72,1 -26.8,-12.1 -29.1,34 -43,-6 -28.9,-25.5 -3.1,-9.5 23,-8 22.3,6.1 55.5,2.3 77,5 24.8,-0.7 54.1,-5.3 71,0 23.7,-3.4 53.7,-2.8 76,-6 25,-1.5 49.9,-3.4 75,-5 24.6,-2.6 53.3,-3.2 76,-6 25.3,-1.2 50.9,-2.4 75,-5 29.8,2.6 52.3,-4.3 78,-4 25.7,5.7 48.9,-3.3 75,-2 23.4,8.7 53.1,-0.3 76,0 25.8,-0.6 50.5,-2.6 76,-4 24.9,-2.7 47.3,7.5 74,1 25.7,0.8 49.3,-5.7 72,-4 1.5,21.4 0.8,55.6 -1,77 -3.1,30.2 15.4,38.5 18,61 18.2,25.6 -3.8,39.8 -26,42 -20.7,6.3 -41.8,12 -62,19 m -770,-16 c -42.9,2.2 -13.2,-8.7 11,-8 14.5,-5.3 44.2,-15.1 45,-6 37.7,-8.1 22.1,2.1 -4,6 -1.6,4.5 -38.5,5.2 -52,8 m 583,0 c 22.2,0.4 37.9,-5.5 44,-21 6.2,-20.5 -9.8,-33.2 -24,-37 -23,-7.7 -33.6,7.1 -41,20 -6.4,21.2 6.3,37.1 21,38 m -267,-4 c 20.7,1.4 36.1,-1.7 53,-4 15.2,-2 40.8,3.1 45,-9 10.8,-24.6 24,-47.4 38,-69 8.6,-10.3 15.8,-21.6 22,-34 14.7,-13.7 10.3,-24.6 -3,-8 -28.7,61.8 11.4,-44.1 -17,14 -6.6,12.1 -10.5,26.8 -19,37 -5.3,12.3 -12,26.1 -18,36 8.2,38.8 -82.6,19.1 -19,15 11,-16.6 -42.1,8.8 -62,-6 -9.3,1.3 -16,-1.2 -23,-5 -38.1,-14.9 17.6,-1.1 34,-3 16.8,3.1 36.5,1.9 54,2 14.7,-3.7 18.3,-20.7 22,-33 3.5,-15.9 43.2,-59.2 8,-66 -8.4,7.7 -14.4,39.7 -2,14 13.5,-26.1 5.9,12.1 0,17 -16.5,19.1 -9.5,62.2 -49,58 -18.2,0.7 -32.7,-3.3 -53,-3 -18.5,-4.2 -39,7.9 -23,-12 12.4,-23.8 23.9,-48.2 36,-73 -21.7,15.1 -26.8,46.1 -41,68 -17.9,24.6 11.2,52.8 17,64 m 337,0 c 23.7,1.8 31.6,-11.9 40,-25 8.7,-15.3 9.4,-38.2 -12,-40 -26.2,-1.2 2.3,-28 -8,-45 -6.6,-12.6 -24.9,-19.8 -42,-20 -7.4,13.9 -20.4,22.5 -26,39 -2.1,24.2 7.5,36.3 23,41 20.7,-2.9 38.6,-17.9 16,3 -7.6,13.6 -7.7,45.6 9,47 m -676,-7 c -48.3,-14.4 3.5,-4.3 29,-10 52.6,-7.8 -13.5,10.2 -29,10 m 522,-1 c 24.4,-0.3 37.8,-14.4 44,-31 0.5,-24 -22.2,-25.9 -32,-42 -20.3,-6.2 -30.6,19.3 -40,30 -4.3,22.8 11.3,37.2 28,43 m 106,0 c -21.7,0.3 -49,-21.4 -22,-37 31.6,-10.5 46.6,28.8 22,37 m 273,-2 c 1,-9.2 -4.8,-33.8 -9,-49 -2.4,-17.6 -11.4,-32.1 -14,-49 -5.5,-15.6 -4.4,-39.8 -2,-56 3.1,-18.3 19.5,-25.4 30,-34 9.9,-11.5 19.1,-23.9 28,-37 9.7,-10.9 20,-24 26,-37 10,-10.8 18.3,-26 25,-39 6.5,-13.6 16.7,-26.8 23,-40 7.2,-13.8 16.2,-26.5 23,-41 7.5,-13.7 14.7,-30 21,-42 8.8,-12.7 14,-30.9 21,-43 4.2,-16.5 13.5,-30.7 18,-45 4.2,-16.8 14.3,-30.2 15,-48 8.4,-18.2 -2.6,-35 -6,-51 2.6,-19 -16.3,-32.4 -7,-49 8.2,-5.6 12.5,-51.1 17,-19 6,16.3 10.8,33.2 17,48 3.1,18.4 13.3,31.6 15,48 12.1,14.9 -2.4,36.1 11,46 7,14.9 11.8,33.5 14,50 1.5,17.2 10.1,40.6 0,55 -5,16.3 -13.9,30.9 -20,43 -7.5,14.2 -17.5,27.7 -24,40 -7.7,13.2 -15.2,29.3 -23,41 -8.8,12.1 -17.1,25.4 -26,38 -8.6,12.5 -17.9,26.6 -25,39 -8.7,11.6 -16.4,27.5 -26,37 -6.6,14 -16.3,27.8 -23,40 -9.2,11.6 -17.5,26.9 -25,39 -8.4,11.7 -17.3,26.4 -24,38 -7.9,13.5 -18.2,26.8 -27,37 -7.6,13.2 -14.1,30.1 -23,40 m -211,-1 c -26.1,-2.5 -9.4,-39.8 7,-39 27.8,5.3 7.1,36.5 -7,39 m -576,-6 c -7.8,-5 -31.6,-2.1 -49,-3 13.5,-7.4 31.7,-4.9 41,-5 3.6,-6.9 10.1,-20.9 16,-34 3.9,-13.7 12,-26.2 12,-42 3.8,-14.6 6.7,-30.2 20,-35 3.7,9.6 -5.6,28.2 -11,38 -3.2,15.3 -9.4,27.6 -15,40 -3.4,14.9 -8.5,30.3 -14,41 m 79,0 c -9.1,-22.8 19.3,-23.7 35,-20 15.2,4 40.6,15 39,-11 7.6,-13.1 15.6,-25.7 23,-39 8.1,-11.6 7.8,-34.4 17,-43 11,-5.2 -3.6,28.8 -8,35 -4,16.7 -12.4,28.9 -20,42 -8.6,11.9 -11.5,29.6 -34,28 -14.1,5.4 -45.2,-3.2 -52,8 m 327,0 c -24.9,-5.1 -21.1,-46.4 -2,-53 9.6,-2.5 -23.9,42.2 2,53 m 18,-2 c -28,6.8 -19.8,-48.8 0,-39 31.5,0.7 21.5,39.3 0,39 m -558,-5 c 3.4,-8.4 18.4,-26 24,-38 9.3,-14.3 25.6,-23.5 30,-40 3.5,-19.6 19.8,-28.7 43,-27 18.3,-4.3 47.6,-0.3 62,-7 -11.1,11.8 -14.5,33.9 -23,46 -7.4,16 -13,35.9 -22,48 -16.2,10.9 -41.9,-0.1 -62,1 -17.9,5.2 -39.9,8.7 -52,17 m 46,-18 c 21.9,-12.2 19.5,-48.6 32,-70 -18.2,15.7 -17.3,50.6 -32,70 m 43,-9 c 16.9,-25.1 5.6,-11.9 8,-44 -8.6,-22.4 -5.4,34.9 -8,44 m 323,-11 c 10.7,-9.8 15.6,-37.4 11,-54 -3.4,9.8 -6.3,37.8 -11,54 m -188,-2 c 20.9,9.9 -17,-27.9 4,-51 -2.4,-14.2 -20.6,39.5 -4,51 m 365,-1 c 26.6,3 37.8,-11.2 48,-22 10.9,-9.5 15.7,-40.1 -4,-45 -23.9,-5.4 -40.4,7.1 -50,17 -10.5,12.1 -6.5,45.6 6,50 m 87,-2 c -35.8,-0.3 -11.7,-52.5 9,-48 37.8,1.5 6.2,48.5 -9,48 m -70,-4 c -33.6,-2.4 37.2,-8.6 28,-34 18.3,-16.6 -8.8,37.6 -28,34 m 3,-14 c -36,6.5 -17,-34.6 -1,-36 32.6,-9.5 18.2,34.7 1,36 m -566,-73 c -32.3,-0.5 -62.4,-4.4 -94,-8 -5.5,-1.6 -11.1,-7.8 -16,-10 18.4,13.3 -5,-27.9 19,-34 -11.6,-12.4 11.8,-44.5 22,-62 13.9,-19.1 25.4,-43 37,-63 14,-19.9 22.9,-45 32,-70 11.1,-22.1 21.8,-46.8 35,-65 20.1,-13.9 25.7,-42.3 62,-40 35.6,2.2 63.8,-4.9 97,-3 34.8,0.5 62.5,-5.7 98,-4 34.3,0.7 67.9,-1 97,-4 33,-0.5 66.7,-0.7 97,-4 33.8,0.1 64.2,-4.9 94,-6 36.5,1.9 61.8,-6.8 94,-8 30.7,-3.2 63.7,-5.6 93,-8 31,-3.6 68.4,6.1 93,-4 30.6,-2.9 67.9,-0.9 98,-2 33.2,-0.7 68,-2.5 96,-3 35.1,-23.2 -1.8,36.7 -3,48 -9.7,24 -21.6,46.1 -34,68 -9.9,23.1 -22,46.4 -37,63 -11,22.9 -25.7,42.2 -37,65 -14.4,18.8 -25.8,42.7 -42,58 -14,20.1 -26.7,41.3 -46,56 -31.1,-3.7 -62.9,3.8 -94,3 -28.7,-6.9 -61.4,3.8 -96,0 -32.9,0.4 -65.2,3.5 -91,9 -32.9,1.2 -63.8,4.3 -97,5 -29.3,4.2 -63.6,5.2 -94,6 -30.9,1.6 -65.5,6.4 -96,3 -33.9,-0.3 -65,3.9 -99,2 -30.5,2.5 -66.3,2 -95,4 -28.9,5.4 -64.7,4.9 -93,8 m 137,-48 c 31.6,8.6 23.8,-36.3 44,-29 1.2,4.8 -4.7,-32.9 6,-49 10.9,-35.6 -4.3,-39.2 -34,-39 -21.2,-1.9 -52.3,-1.9 -74,0 -21.1,5.4 -49.8,5 -60,19 -3,18.1 -12.3,47.6 -4,64 12.8,15.1 32.3,23.9 51,28 25.2,2 49.5,3.4 71,6 m 587,-12 c 24.3,0.3 52.3,1.9 69,-3 20.4,-3.7 39.4,-8.4 45,-26 9.8,-9.8 28.8,-35.8 6,-45 -16.6,-6 -28.4,-17.9 -54,-17 -25.6,2.7 -45.2,-4.2 -69,-3 -24.5,1.4 -44,-2.8 -70,-2 -21.8,2.2 -47.5,2.9 -71,2 -23.1,0.1 -46.9,-0.1 -69,1 -24.8,-0.3 -47.2,3.8 -68,5 -22.4,1.3 -41,6.3 -48,23 -7.4,8.6 -21.5,45.2 -5,50 15.6,9.1 34.3,14 59,12 l 73,0 c 21.6,-1.9 43.3,-3.8 66,-5 26.1,-0.9 48.5,3.2 71,2 25.4,-1 44.2,4 65,6 m -590,-2 c -19.3,0.1 -45.3,2.6 -61,-1 -19.6,-0.9 -34.5,-9.5 -45,-19 -11.5,-8.9 -4.3,-40.8 -2,-52 5.6,-15.4 24.5,-17 42,-20 16.3,-2.8 43.4,-4.5 59,-2 13.4,6.9 53.4,-5.9 49,11 -0.1,20.9 -6.7,37.8 -8,56 -6.5,13.5 -12.7,27.8 -34,27 m 74,0 c 12.6,-9.3 10.8,-35.6 14,-52 1.5,-20.4 10.2,-33.3 33,-32 22.7,-0.9 42.1,1.3 60,4 19.3,-0.3 47.8,4.6 29,26 -13.2,6.2 -6.7,57.4 0,24 17,7.1 -4,27.3 -26,17 -15.8,-4.6 -39.5,-6.6 -57,-2 -16.5,-2.5 -59.25705,6.9248 -39.95705,14.9248 18.9,4 51.95705,-7.5248 67.95705,-3.9248 17.7,1.7 45.9,4.5 58,-3 26.1,-7.7 -4,-27.5 5,-42 8,-13.3 12.5,-41.8 -12,-40 -19.5,4.5 -40.7,-3.9 -61,-3 -18.7,-2.2 -41.8,-0.8 -54,4 -5.1,-25 -9.5,22.5 -10,33 -2.1,18.4 -10.6,35.3 -7,55 m 567,-6 c -21.1,0.5 -44.1,1.9 -62,-3 -18.8,-1.6 -38.6,-3.5 -62,-3 -18.5,-1.7 -40.9,-1 -63,-1 -22.7,-1.6 -39.6,3.1 -62,3 -18.1,2.8 -41.6,0.9 -63,1 -19.7,3.9 -39.7,0.6 -56,-6 -12,-11.2 -1.6,-38 5,-48 21.8,-6 18.7,-13.9 42,-17 21,-0.2 39,-3.8 61,-3 19.4,-2.7 43.6,0 64,-1 22.8,1 42.7,-0.7 63,-2 22.5,0.1 43.9,0.3 62,3 18.4,2.4 36.7,10.7 57,5 18.5,-2.8 44.2,-1.6 55,6 11.9,8.9 15.1,35.2 7,49 -8.4,13.8 -31.8,12 -48,17 m -3,-111 88,0 c 22.7,-6.1 30.2,-30 41,-46 13.7,-16 30,-31.2 36,-53 18.2,-33.7 -28.5,-30.9 -50,-26 -26,2.9 -51.3,9 -77,11 -25.5,-7.6 -46.7,9 -61,20 -10.2,19.5 -17.1,43.9 -25,63 -21.8,35.2 30.8,25.4 48,31 m 85,-8 c -28.9,1.1 -55.9,-0.7 -84,-3 -21.8,-1 -46.2,-20.2 -29,-43 7,-21.7 18.7503,-30.73557 37.1503,-40.93557 23.4,-5.1 56.2497,-10.46443 79.8497,-13.06443 17.8,-3.9 59.7,-18.5 60,11 -3.3354,2.86491 -6.3734,6.85213 -9.7117,11.97339 -3.3382,5.12125 -6.9767,11.37654 -11.5132,18.77758 -4.5364,7.40104 -12.9385,28.80823 -19.8685,38.51253 -6.93,9.7042 -12.3877,7.7056 -22.9066,19.7365 m -723,-6 c 30.5,3.3 53.7,-2.9 76,-6 24.5,-3 15.2,-42 18,-60 8.1,-19.8 9.8,-57.5 -18,-54 -23.2,-2.8 -49.4,-3.4 -77,-3 -15,17.3 -54.5,-4.4 -60,15 -12,15.8 -22.5,34.7 -30,53 -14.7,20.1 -5.8,49.2 19,47 18.2,9.8 48.9,5.9 72,8 m 395,0 c 34.2,3.2 58.9,-3 88,-4 34.9,3.9 49.8,-13.6 68,-24 11.6,-14.8 18.6,-51.8 8,-75 -8.6,-20.9 -53.8,-8 -77,-14 -31.6,-0.6 -57.6,4.3 -88,5 -28.6,1.4 -52.6,9.7 -57,34 -15.3,14.2 -21.5,41.9 -22,67 20.7,11.2 59.4,4.8 80,11 m -253,-6 c 20.7,-2.5 48.3,-0.4 68,-2 20.2,-2.4 50.3,2.2 63,-6 9.3,-13.8 15.2,-33.3 17,-52 1,-22.7 -7.9,-39.3 -30,-39 -17.3,-4.8 -38.9,-8.7 -61,-9 -18.7,-1.4 -50.9,-4.6 -55,11 -2.5,20.5 -10.1,38.4 -16,54 -6.5,16.1 -10.8,47.1 14,43 m -123,-3 c -24.2,-0.2 -53.9,2.2 -73,-3 -17.8,-2.8 -46.3,-9.4 -31,-34 7.9,-17.7 18.3,-34.7 27,-49 6,-18.8 41.3,-8.2 57,-17 6.5,0 13.6,-2.7 18,-2 -5.4,4 0.4,12.5 25,6 17.8,-2.5 57.4,-11.4 48,20 -6,19.6 -6.7,46.3 -8,68 -13.3,11.5 -43.3,6.2 -63,11 m 149,-6 c -16.7,1.5 -47.5,4 -33,-19 4.2,-14.6 7.3,-31 12,-46 0.9,-17.2 18.1,-25.2 34,-19 17.7,3.1 32.6,7.8 51,8 15.1,5.3 42.4,-2.4 46,13 1.5,20.5 -4.4,34.1 -9,49 -6,11.7 -29,13.6 -45,11 -18.5,0.7 -40.2,-1.4 -56,3 m 221,0 c -21.5,-4.3 -59.5,7 -62,-19 -1.8,-28.8 18.4,-35.3 25,-55 11.9,-15.3 40.2,-13.8 63,-17 26.3,0.7 57.5,-0.2 78,0 21.5,0.9 61.8,-10.9 60,17 -7.7,18.9 -6,47.4 -22,58 -19.7,7.2 -42.8,10.9 -68,13 -25.5,3.9 -49.2,-1.5 -74,3 M 350,868 c -31.5,5 -27.6,-26.7 -36,-47 -0.7,-22.7 -2.5,-57.6 24,-58 2.9,20.1 30.7,5.8 47,-4 23,-4.7 45.1,-12 65,-17 24.6,-3.5 50.2,-5.6 74,-9 25.7,-2.8 51.7,-4.5 76,-8 26.4,-1.3 51.9,-3.7 79,-5 24.9,-1.6 51.6,-4.3 77,-4 29.3,1.4 52.7,-3 82,-2 24.5,3.9 62.2,-6 72,11 11.8,34.3 -15.8,37.7 -34,46 4.2,24.3 41.4,16.5 62,20 27.6,1.3 57.3,-0.6 82,2 26,-1.7 54.1,-1.3 77,-6 23.5,-4.5 54.8,-1 69,-14 18.1,-26.5 -21.6,-29.3 -31,-42 11.4,-16.8 46.8,-9.2 71,-12 27.6,1.3 59,-2.3 81,3 22,6.3 28.8,27.3 31,52 10.7,22.6 3.6,54 -22,51 -27.5,-1.1 -55,4.2 -79,2 -25.7,1.6 -52.6,2.4 -82,1 -27.6,0 -50.1,5.3 -80,3 -25.9,1.5 -53.1,3.7 -77,5 -25.6,2.2 -50.7,4.9 -76,8 -25.4,1.7 -48.4,6.5 -78,4 -26.9,1.6 -50.5,5.8 -79,5 -25.6,1.6 -51.4,5.2 -76,6 -25.2,2.4 -52,3.4 -80,3 -24.1,3.9 -54.4,1.4 -82,2 -27.6,-0.3 -50.8,4.3 -80,3 -24.3,-1.2 -55.6,-2.8 -77,1 m 673.1181,-88.04295 c -33.39998,0.9 -65.89998,0.5 -92.99998,-6 -37.4333,7.97613 -9.7119,-14.17577 -3.09483,-32.26451 C 932.43722,726.89277 932.02998,716.43996 926,706 c -5.7,-25.7 2.1,-59.9 1,-89 1.8,-30.8 4.3,-62.6 6,-91 2.3,-6.4 1.6,-15.4 3,-22 -4.4,-38 13,-25.9 24,-8 14.2,26.8 34.8,42.3 35,-3 4.1,-39.2 26.5,19.3 34,27 14.3,18.2 10.9,-75.4 28,-33 10.7,47.7 24,15.9 31,-12 2.5,-1.5 27,68.7 24,26 1.5,-21.1 27.2,-71.3 19,-29 0.1,28 9.1,56.1 4,86 -1,31.7 -2.7,62.9 -9,90 -1.6,30.1 -10.9,57.6 -3,85 2.3,6.6 5.3,11.9 9,15 46.4,3.2 -0.097,16.08188 -11.0966,19.88188 -21.4,11 -58.7034,6.01812 -86.9034,8.11812 M 338,753 c -6.3,-5.4 28.2,-22.8 35,-34 13.9,-14.1 42.2,-13.7 66,-17 25.6,-3.2 56.4,-2.8 81,-5 25.2,-2 51.3,-3.8 77,-6 30.8,2.7 51,-7.4 79,-6 27.3,-0.2 48.8,-6.5 74,-9 26.7,-1.6 54.6,-4 81,-4 25.1,-2.6 54.8,-0.7 78,-6 12.4,24.2 1.2,57.6 -33,40 l -83,0 c -24.6,4.2 -58.7,0.5 -82,3 -27.4,0.9 -51.1,5 -79,5 -24.1,3.9 -56,2.4 -78,6 -25.1,3.3 -50.9,5.4 -74,10 -24,4.3 -50.5,8.1 -75,10 -23.6,7.1 -49.2,2.4 -67,13 m 810,-39 c -30.2,8.1 -13.8,-24.7 -14,-38 7.6,-15.5 36,-3.5 52,-7 22.3,0 38.9,3.9 61,2 18.9,2.8 39.8,2.2 57,-2 30.1,-8.7 17,29.5 10,36 -9.7,14 -30.7,3.3 -50,4 -19.4,4.9 -35.6,3 -58,2 -20.3,-0.2 -39.7,1.1 -58,3 M 563,686 c -27.6,6.7 -19,-40 -9,-46 27.4,-14.6 21.8,45.1 9,46 m -91,-44 c -37.5,2.3 -25.2,-47.3 -34,-73 1.2,-29.4 -13,-82.8 23,-80 36.4,0.7 63.9,-9.2 91,-16 32.7,-2 61.2,-8.5 91,-14 47.6,-10.5 31.9,42.5 36,71 -5.3,31 5.2,78.9 -24,84 -23.3,11.5 -64,8.2 -91,15 -32.8,2 -56.1,13.7 -92,13 m 24,-30 c 25.5,0.2 45.8,-6.9 68,-7 23.5,-2.4 48.4,-4.9 65,-11 22.3,-2.5 27.4,-28 22,-51 -5.8,-18.3 -8.4,-40.4 -26,-48 -18.8,-5.9 -47.2,2.8 -65,5 -22.5,2.3 -47.5,4.8 -67,9 -31.6,-2.3 -16.8,29.7 -17,49 6.7,19.6 2.5,48.6 20,54 m 19,-11 c -29.2,8.7 -19,-25.9 -28,-38 1.4,-17.1 -13.1,-44.3 9,-46 18.5,-4 37.6,-6.6 58,-8 16.3,-5.1 37.7,-5.3 55,-9 21.3,1.4 27,20.2 29,37 5,14.5 9.4,48 -12,46 -12.5,8.9 -32.2,10.8 -54,11 -19.5,1.7 -36.9,5.9 -57,7" /></g><path
       d="m 91.722289,1558.5616 c 5.3612,-3.6781 6.3898,-12.4368 9.039301,-18.0786 2.4313,-6.7639 4.8938,-13.3096 8.7276,-18.3904 2.6495,-6.5145 6.3899,-12.5615 7.7926,-19.6371 1.1845,-12.5615 5.5482,-9.1017 8.1042,-0.6234 2.8988,6.6081 7.2938,12.0005 10.5978,16.8319 5.5483,3.8339 6.608,11.751 11.5329,15.5849 2.2131,-6.9508 5.4547,-12.655 8.1042,-19.0137 3.9586,-0.4987 7.1691,-20.5411 7.4808,-8.1042 1.1222,8.1977 5.3301,13.7772 7.4809,19.6372 3.5533,5.9222 4.1455,14.3382 7.1691,19.9488 4.8625,10.8784 8.8523,1.9949 11.5329,-4.0522 3.3664,-5.6417 7.3561,-10.5978 9.6627,-17.1435 4.1767,-5.0807 6.4522,-12.5615 9.6627,-17.7668 -0.3741,-7.3562 8.6341,5.4235 10.5978,7.4807 4.395,5.0495 7.8548,10.5667 11.2212,15.8968 4.5197,10.0055 9.538,3.9586 10.9095,-4.3638 3.7093,-5.2678 6.951,-11.8134 9.6628,-17.7669 3.5222,-5.3614 5.8287,-12.0317 9.6627,-17.1436 1.652,-7.4808 6.3275,-12.5615 10.9095,-16.5201 -0.5299,-8.5717 0.7481,-15.9279 1.5585,-24.3127 0.8727,-7.7924 0.7792,-19.1695 0,-26.4944 -0.5923,-8.1978 -0.062,-17.7047 -0.9351,-26.1829 -0.9351,-7.6679 -1.091,-16.489 -1.5585,-25.2478 -0.031,-8.7276 -0.1559,-17.5487 -1.2468,-25.5594 -0.5611,-8.5406 -1.5586,-17.6734 0,-25.5594 0.5299,-8.79 0.6234,-16.8942 -0.6235,-25.5594 -1.122,-7.4809 -2.6493,-14.9617 -3.7403,-23.0659 -0.5299,-8.2289 -3.0859,-14.6499 -3.4287,-23.6892 0.4052,-9.1017 -0.8728,-17.6111 -0.6234,-26.8062 0.4364,-8.9771 0.2493,-17.7981 -0.3117,-26.4946 -0.53,-8.1666 -0.8417,-16.8318 -1.8703,-24.9361 -1.5585,-7.2625 -2.2441,-15.5849 -3.4286,-23.6891 -2.8366,-5.9535 0.8727,-19.419 -8.1043,-19.0138 -6.6704,2.2754 -13.7771,4.1769 -20.2605,6.5458 -4.3326,4.8936 -11.6264,7.3561 -18.702,8.7275 -7.5432,1.5273 -13.185,4.8626 -20.2605,6.8574 -7.7614,1.2781 -16.1149,2.6806 -24.9361,2.1819 -7.699,1.4962 -15.7408,2.4313 -24.3126,2.8054 -9.1329,0.374 -16.1772,-1.1845 -24.936,-0.9351 -7.9484,-1.4651 -17.486501,1.0909 -25.559501,-0.3117 -8.3224,-0.4365 -16.4577,-2.0885 -25.5594,-1.8703 -8.2289,-0.374 -16.1461,-1.4649 -23.0658,-4.052 -9.351,-5.6107 -14.2759,1.9325 -11.533,12.4679 -1.4026,9.3823 1.4651,16.4578 0.6234,25.5595 2.1196,7.3562 1.5273,17.7046 2.8054,24.6244 -0.1559,9.4756 0.8415,17.4863 0.9351,25.871 -0.2806,9.7251 1.0597,17.393 0.6234,26.4946 v 27.1179 c -0.3741,9.6005 1.0286,17.9851 0.3117,26.8063 1.2467,9.0081 0.8104,15.6473 0.935,24.936 0.8729,8.7899 0.9975,18.4526 0.9351,26.4946 0.7481,9.3821 0.6858,17.0188 0,24.9359 -0.3117,8.8212 0.1247,19.0138 -0.9351,26.4946 0.2182,9.1952 1.4963,19.4501 -3.1169,23.6893 -1.5585,8.5093 0.3739,12.4991 0.3117,21.5073 0.7169,9.7873 -0.5299,17.5175 -0.9351,26.1828 -0.6234,8.416 -0.343,18.4839 -1.5586,25.8712 0.2805,9.164 0.5611,18.4215 -0.9351,25.871 0.2182,5.9535 -0.9038,8.0731 7.1691,1.5586 4.8938,-4.2079 9.5381,-8.5407 13.0915,-14.0265 4.6755,-4.395 7.9795,-10.8784 13.0914,-14.3382 5.2989,-9.881 8.9769,2.213 12.468,5.9222 2.4313,6.7016 5.4547,12.6551 8.1042,18.7021 3.4288,5.8288 7.1067,11.1589 9.6627,17.1435 m 0.9351,-7.4808 c -1.5896,-7.9484 -7.4185,-12.4991 -9.9744,-19.3254 -3.3975,-6.0471 -5.1742,-13.8707 -7.7925,-21.1956 -4.5197,-5.2678 -0.1558,-19.5436 -4.6755,-22.7542 -1.7144,12.7797 -13.1537,1.4962 -10.2861,8.4159 4.1456,8.2289 -5.1119,13.4032 -6.5457,19.6371 -2.4625,7.2627 -8.1043,11.2524 -12.1563,16.8318 -3.8963,1.5585 -10.9095,15.6475 -10.5978,10.5978 3.0546,-6.608 3.0858,-16.2083 5.2988,-23.6891 1.091,-0.8105 1.6833,-4.4574 0.6234,-6.2341 -1.2156,-6.0781 -4.6443,16.489 -3.4286,0.9351 -3.5535,-11.907 10.2549,-11.907 4.3637,-20.5722 -1.3091,-11.2836 4.8314,-15.7408 1.8703,-25.5595 0.7169,-9.2574 0.7169,-18.2656 0,-27.7413 -0.187,-9.8185 0.2182,-18.2968 0,-28.3647 0.2805,-9.4133 0.1558,-19.1695 2.4936,-26.4946 -0.9975,-8.5406 -1.1533,-18.0162 -1.5585,-27.4296 -0.4052,-9.0081 -1.8079,-17.237 -1.8703,-27.118 -0.6857,-8.7587 -0.2182,-19.6058 -0.6234,-28.6764 0.2183,-9.0393 1.8079,-18.515 0.6234,-27.4296 0.5611,-10.1926 -0.5921,-19.4501 -0.6234,-28.9882 -0.2804,-8.9458 -0.8416,-17.9851 -1.2468,-27.4296 -1.0597,-8.4782 0.1871,-20.1046 -1.5585,-27.7413 0.6546,-10.0991 -0.4052,-18.6708 -1.5584,-27.4296 -3.9898,-12.0005 10.7224,-9.0393 17.4552,-7.7925 8.9769,0.8727 17.8292,1.6831 26.4945,2.4936 8.6029,1.3091 19.2319,1.0597 28.364801,0.9351 9.1328,0.6857 18.9825,0.4363 27.4296,1.2467 9.9744,0.6858 18.9202,-1.8701 26.8063,-1.2467 9.7562,3.491 15.4603,-2.6183 24.6242,-2.4936 6.9198,-2.8365 14.6811,-5.4548 22.1308,-7.1691 7.886,-1.7767 15.024,-4.2391 21.1956,-7.7926 5.2366,-4.3015 14.9617,-4.1767 19.3254,-9.6627 2.556,5.7977 2.4313,16.489 4.0522,23.6893 1.8078,8.3847 3.117,17.5175 4.0521,25.5593 0.1559,9.6316 0.9974,18.4216 0.3117,28.3648 0.6545,9.4758 1.5896,18.9514 1.5584,27.7413 0.717,9.3199 1.4027,18.2657 1.5585,27.4297 0.343,9.6939 1.652,18.7955 2.8054,26.4945 1.0598,8.8835 0.3428,19.2632 0.3117,28.3647 0.6234,9.9745 -1.3403,19.1385 1.2468,27.118 1.3714,8.3224 2.743,16.5513 3.117,25.2478 1.4649,8.8522 1.2467,19.4812 0.9351,28.6764 0.5611,9.351 2.6494,16.8941 2.4936,26.1828 1.5273,9.4133 0.4051,20.1359 -0.9352,27.4297 -1.0286,8.6964 -0.062,19.263 -5.6105,23.0658 -4.1457,5.9223 -7.2627,13.185 -10.2861,19.3254 -3.1171,6.5146 -6.5458,12.7485 -9.9744,18.702 -3.3041,3.9587 -5.8601,19.6371 -11.533,9.6627 -3.5222,-5.7976 -7.7613,-11.19 -10.2861,-18.702 -0.5299,-5.3612 -7.2003,-19.6059 -12.468,-9.0393 -4.1144,5.3924 -6.5457,12.5616 -10.5978,18.0786 -2.6183,7.2003 -8.1354,12.094 -11.8447,17.4552 -5.6729,11.0966 -9.3821,2.0885 -10.5978,-6.8574 -2.7429,-6.7015 -5.8911,-13.9641 -8.7276,-20.5722 -2.3377,-7.6055 -2.4936,-15.2733 4.3639,-17.7669 6.047,-12.2498 -8.416,11.19 -9.3511,-0.6234 -6.9198,-13.4342 -2.5248,12.5303 -0.935,8.7276 -1.5274,8.1666 -6.8575,13.2473 -9.6628,19.6371 -2.4313,10.4731 -7.9484,11.0343 -10.2861,0 -3.0235,-6.4521 -5.6106,-14.2759 -8.4159,-21.1956 0.5922,-6.421 -5.9223,-20.1358 -10.9096,-8.1042 -1.4649,0.031 -1.8078,6.1094 -2.4936,2.4936 6.8886,-7.6055 -4.6443,-10.816 -6.2339,-3.7404 -1.7768,7.7301 -4.1457,14.9928 -6.234,22.4424 -1.6209,8.0731 -3.9587,15.3669 -6.857501,22.1308 -1.6831,7.886 -5.9846,13.1849 -7.1691,21.819 m 81.353801,-61.0933 c 5.7977,1.0598 9.8809,-8.8835 12.1563,-1.5585 5.7353,7.0444 1.1221,-11.5017 -3.117,-4.3638 -3.7092,1.7767 -11.1276,8.6652 -5.2988,0.6234 0.7168,-11.4394 -5.1743,3.5846 -3.7405,5.2989 m 23.6893,0 c 7.0132,-0.1559 11.9693,-3.1482 15.8967,-5.9223 8.0107,-3.0547 0.6546,-11.0965 -5.9223,-9.0393 -11.003,3.6469 -8.4783,-2.4313 -0.9351,-3.4287 7.0444,2.0572 12.6238,-1.4962 4.6755,-5.9223 1.1845,-3.1482 5.6729,-17.2682 -0.3117,-10.5978 -2.4313,4.9248 -4.1456,11.1588 -11.2212,10.5978 0.4987,-3.5846 6.795,-15.7097 0,-11.8446 -2.6495,4.2391 -2.2443,11.7199 -7.4808,13.4031 -9.7563,7.1067 -2.0573,-5.8289 -5.2989,-8.7277 -5.4236,-3.7403 -9.6939,4.2704 -13.0915,5.9224 -7.2626,6.234 3.647,9.6003 7.7926,5.2988 4.0209,5.4549 11.5017,0.8728 13.7147,-2.4935 7.0445,4.0521 8.1666,0.8728 1.5586,6.8574 -0.4676,8.7276 11.6887,2.6182 15.8967,4.6754 2.5559,2.0885 -7.0757,6.3587 -10.9095,6.8575 -1.3403,0.3741 -3.7404,0.7169 -4.3638,0.9351 2.9923,2.1507 -0.8728,0.7793 0,3.4287 m 50.4954,-2.4936 c 13.0915,0.374 4.7067,-14.4317 0.9351,-16.5201 -8.8523,-6.2964 -6.6391,16.0213 -0.9351,16.5201 m -19.9488,-2.4936 c 8.8834,0.2806 13.559,-11.4706 4.9872,-15.2734 -3.8339,-2.3376 -12.8732,11.7823 -4.9872,15.2734 m 22.7542,-1.2468 c -4.7691,0.2182 -4.0833,-7.886 -4.6756,-10.2861 3.6781,1.1533 6.4211,6.1405 4.6756,10.2861 m -20.5723,-2.4936 c -4.7067,0 -0.3428,-8.0731 2.1819,-5.9223 6.2964,0.9975 0.093,5.9535 -2.1819,5.9223 m -154.603301,-2.8053 c 16.4265,-2.1819 -3.1483,-0.717 -1.8703,-8.416 -6.1093,-6.8885 -0.2493,-11.1276 7.7925,-11.5329 10.2238,-3.5533 3.9898,12.5928 6.5457,17.4553 1.8391,4.8313 7.325,-6.5458 8.7277,-10.5978 -0.4053,4.052 3.553301,17.237 9.974401,8.7276 5.3923,-2.8053 11.751,-7.0445 13.7147,-8.7276 0.3117,-1.5898 1.0599,-3.8963 0.9351,-5.299 6.8575,-6.1404 -5.2988,-0.9038 -4.052,3.4288 -4.208,8.3847 -10.7225,4.6132 -3.7404,-3.1171 7.4184,-9.1327 -8.1355,-0.5299 -6.234,4.9873 0.062,11.7199 -8.945801,7.4808 -7.792601,-1.8702 -4.0833,-7.2315 -8.3535,13.7148 -9.0393,4.3638 0.2494,-6.4523 0.1559,-16.2396 -2.4936,-21.819 0.4988,6.1405 -4.7378,11.19 -13.7148,9.6627 -7.3561,1.1532 -14.9616,1.8701 -22.7541,2.4935 0.9975,7.6679 16.4577,-1.1221 15.8967,3.4288 1.1222,7.3561 3.5222,13.2784 8.1043,16.8318 m 58.599601,-4.3638 c 6.2028,0.1558 11.8135,-4.6132 12.1563,-6.8574 -3.0547,1.4338 -11.2523,7.6366 -12.468,0 -2.7741,-6.9821 8.5406,-5.1742 7.7925,-10.5978 -7.5743,3.7092 -10.629,0.6857 -2.182,-1.8702 -6.5768,-6.3899 -5.6417,5.5794 -12.4679,4.3637 -6.6393,-0.031 -3.6781,9.6627 -9.6627,10.5978 6.5457,2.9925 3.491,-9.1327 11.2212,-7.169 4.8002,-2.3066 -0.8416,11.8135 5.6106,11.5329 m 12.7797,-0.9351 c 8.6341,2.1195 19.3566,-6.4522 8.1042,-9.351 -13.5901,-4.5508 9.9433,-7.3873 4.6756,-9.6627 -7.7926,-2.9923 -17.1748,6.795 -9.0394,11.2212 16.1461,3.9585 -1.7455,2.5248 -3.7404,7.7925 m 28.3647,-4.3639 c -0.4675,-2.1507 6.3899,-6.2651 9.351,-8.7276 2.4937,3.6781 -4.8001,7.8238 -9.351,8.7276 m 31.1701,-19.9488 c 8.5717,0.5611 13.9642,-2.8988 14.0265,-10.5978 -0.4364,-1.1532 -1.652,-2.9923 -3.117,-3.1169 -10.3173,-1.2157 0,-1.0599 0,-6.2341 0.9351,-6.0158 -10.0679,-6.8574 -16.2084,-4.9872 -11.2836,5.9847 4.8313,2.4313 9.9744,3.4287 9.7873,2.9612 -10.6602,6.0158 -6.2341,8.7277 -5.0806,3.491 15.8968,-2.5249 11.533,5.6105 -1.7455,4.1144 -18.0475,6.4211 -6.234,1.5586 9.0393,-5.0808 -12.2498,1.3091 -3.7404,5.6105 m 12.468,0 c 4.8314,-1.2468 8.26,-4.8313 12.468,-6.2339 4.0833,-1.091 6.2029,-10.7537 0,-10.9096 -4.3949,-4.1456 -12.1252,1.2468 -9.0393,3.7405 2.182,6.1716 -3.6157,10.2237 -3.4287,13.403 m -69.8209,-0.9351 c 4.7379,0.904 9.6627,-9.0704 6.8574,-8.1042 -3.117,4.2391 -8.1665,7.4808 -7.7925,-1.8702 7.2938,-1.9637 6.4833,-4.6443 -1.8702,-4.3637 -1.5274,4.5508 -1.0909,13.2784 2.8053,14.3381 m 12.1563,-0.935 c 6.6704,-0.6234 15.6162,-13.3097 4.3638,-4.3638 -2.1195,2.6182 -3.3664,-0.031 -3.4287,-1.8703 -2.7118,-12.655 -4.4573,4.3639 -0.9351,6.2341 m 25.5595,0 c 4.8001,-0.7793 13.6213,-14.5253 3.7404,-5.6107 -1.0598,0.8104 -1.7456,4.1457 -2.4936,0.3117 -1.4651,-11.7822 -4.6756,1.652 -1.2468,5.299 m 41.7678,-6.2341 c -4.0833,0.6546 -2.8053,-11.8757 1.5585,-7.169 5.9223,0.6545 1.9014,6.6391 -1.5585,7.169 m 10.9095,-1.2468 c 8.3224,0.1871 18.1099,-8.6341 10.2861,-15.8967 -11.1899,-6.5769 -15.398,8.3848 -10.2861,15.8967 m 2.182,-4.052 c -3.8651,-5.2679 -0.093,-13.902 6.2339,-9.6627 6.3276,4.3014 -2.0572,9.8185 -6.2339,9.6627 m -76.6784,-6.2341 c 5.86,-3.4286 -2.7117,-15.8655 4.3639,-16.8318 9.0393,-6.234 -2.2131,-5.5171 -5.299,-0.3117 1.1533,-4.1767 9.3199,-10.1302 11.2212,-1.5585 4.2704,11.19 6.7015,-2.4001 7.1691,-6.8574 3.7404,-12.1252 2.3378,-2.7429 3.4287,4.3638 0.1248,7.5431 11.0343,7.2003 13.4032,1.8702 4.8313,-4.8002 1.2468,-9.6003 -6.8574,-8.4159 5.5482,1.3714 10.3796,7.3249 0.6233,8.4159 -8.4782,0.187 -2.2754,-11.5018 -7.1691,-14.65 -5.0807,0.9664 -6.3898,8.4472 -7.7924,14.3383 -2.4313,-1.4962 -6.2964,-12.4057 -11.533,-5.9223 -3.3663,4.2703 -5.2677,10.629 -12.1563,10.5978 -7.0132,-0.187 -6.2028,-8.7276 -8.7276,-14.3382 -3.304,-6.8263 -2.5871,7.9483 -0.3117,10.9095 1.3092,6.8263 10.0055,7.3249 14.9617,3.4287 4.7378,0.3117 0.8104,12.4057 4.6754,14.9616 m -110.653601,-2.8053 c 8.2601,0.3429 17.4863,0.9974 18.702,-4.9872 3.5223,-8.8211 -6.9509,-8.4471 -13.4031,-9.0393 -11.7199,1.9325 -6.1094,-8.1665 -1.2468,-9.6627 3.6469,-3.2729 18.2656,-0.2494 6.5457,-5.6106 -7.8237,-0.1247 -11.3148,4.8937 -14.9616,8.7276 -4.6443,7.2003 3.9898,11.19 10.5978,9.9744 10.4731,-2.1196 13.4343,6.5769 4.0521,7.1691 -4.2391,-0.093 -21.3203,-0.1247 -10.2861,3.4287 m 20.2605,-1.8701 c 7.4808,-0.4365 4.1768,-12.2811 9.6627,-14.0266 3.3352,2.0572 7.1691,12.3433 10.5979,1.8702 2.3065,-3.9586 6.982101,-15.7097 7.792401,-4.3638 1.9949,4.5197 -0.8416,19.1384 7.1691,13.0914 5.0808,-1.0909 8.5406,-10.5043 9.9744,-10.5978 -0.6545,7.7301 7.5432,12.0005 10.5978,4.6756 0.7482,-5.0184 5.7042,8.5093 8.1043,-4.3639 1.9014,-1.5274 7.699,-17.1747 2.4936,-9.0393 -2.0572,2.2754 -6.3275,18.2656 -6.234,7.7925 1.4027,-10.0368 -6.1405,-13.0914 -3.4287,-0.6234 -0.5299,10.2237 -10.0991,5.9224 -9.6628,-1.2468 0.6858,-6.7328 -8.6341,-10.629 -11.5329,-4.0521 -3.0858,6.1405 -4.2391,15.4915 -5.2988,2.1819 0.062,-9.4445 -9.974401,-5.1119 -10.597801,0.9351 -2.9301,10.2861 -6.5458,-5.9847 -13.4032,0.9351 -4.4885,3.0546 -4.208,11.0653 -6.234,16.8319 m 32.728601,-5.9224 c 1.2156,-3.9586 6.2963,-17.1747 9.0393,-13.4032 4.4261,2.8366 -5.6418,11.0654 -9.0393,13.4032 m 125.927,-4.3638 c 6.0157,1.0286 12.9667,-3.8339 3.1169,-1.8702 -4.6443,-0.8727 -4.1768,-7.1379 -5.2989,-11.8446 -0.3117,-3.0858 -4.5819,-12.8421 -5.2989,-3.4287 0.1247,4.1767 -3.9897,10.7849 -6.8574,7.169 0.3117,-2.9923 -7.886,-10.4418 -4.6756,-2.8052 1.8391,3.4286 2.4313,10.2549 8.1043,8.1042 4.1144,0.4052 3.8962,-11.5329 6.234,-7.1691 1.1221,4.6131 1.6832,10.4731 4.6756,11.8446 m -27.7414,-1.8702 c 15.1175,2.9611 5.1742,-11.0342 5.6106,-17.767 -1.9949,-15.0862 -9.4446,-0.748 -11.5329,2.4937 6.4833,-6.9198 8.1042,-8.977 9.6627,4.3638 10.0991,10.2861 -15.2421,-1.3403 -3.7404,10.9095 m 45.5083,0 c 8.6341,1.8079 6.7015,-6.8262 4.3638,-10.9095 0.3428,-6.0782 7.2938,-6.1405 8.4159,-10.5978 1.839,-8.1978 -3.6157,4.4573 -6.8575,3.1169 -6.4522,7.3874 -1.7455,-2.6806 0,-5.2988 8.6654,-4.4261 0.4676,-2.3378 -3.7403,0 -0.4676,5.9535 -2.8988,10.5667 -8.4159,10.5978 -9.164,4.3015 1.1221,3.7092 5.2988,2.1819 3.5534,1.278 6.9821,11.2212 0.9352,10.9095 m -14.3383,-1.8702 c 6.4523,-1.1844 14.8369,-5.2054 12.1563,-6.2341 -4.4261,4.2393 -17.1123,4.6445 -11.5329,-5.2988 7.6367,-3.8651 13.4966,-2.8677 0.3117,-5.2989 -4.956,0.7169 -6.234,16.2084 -0.9351,16.8318 m -108.16,-19.6371 c 2.4624,0.1558 4.6755,0.1246 5.6106,-0.9351 7.8861,-8.3224 -1.652,1.9013 -5.2989,-3.4288 -0.8416,-16.52 -8.2912,1.4651 -0.3117,4.3639 m 14.9616,-2.1819 c 5.0184,0.2493 20.1981,-15.1487 8.7276,-6.5457 -2.026,0.6545 -3.9586,2.4624 -5.2989,2.8052 -1.2468,2.8054 -3.304,-0.062 -2.4936,-1.8701 -1.7767,-10.3173 -5.2989,4.8002 -0.9351,5.6106 m 13.4031,-0.3117 c 6.047,0.1869 6.795,-5.7664 10.5978,-7.1691 6.2964,-4.8938 2.4937,-5.3613 -1.5585,-0.9351 -2.7429,0.7169 -8.4471,10.4107 -6.5456,1.2468 -0.9975,-8.2913 -5.5795,4.8625 -2.4937,6.8574 m 30.235,-2.4937 c 6.9509,0.904 9.4444,-9.9744 12.1563,-8.1041 -0.9351,10.7225 16.2396,0.561 8.7276,1.5585 -9.2263,5.7664 -5.2054,-15.8344 -7.7925,-8.7276 1.4027,6.3587 -10.4732,0.2181 -15.8968,0.9351 0.031,-5.2055 13.2162,-5.3613 14.3383,-3.7405 -0.187,-6.5456 -12.7485,-6.9197 -14.9617,-2.1819 -6.0781,7.699 2.2443,11.8446 10.2861,10.2861 4.8003,0.7793 -7.8859,6.8263 -6.8573,9.9744 m -15.2734,-1.2468 c 8.073,-0.2493 4.8003,-11.0965 2.4936,-3.4286 2.0572,-12.468 -6.1716,-0.8105 -2.4936,3.4286 m 44.2615,-4.9871 c 8.6653,1.2779 10.6914,-16.863 0.3117,-15.2734 -11.6888,-1.1532 -5.7353,14.8058 -0.3117,15.2734 m 13.4031,-0.3117 c 9.5069,2.3065 14.1201,-12.3746 5.9224,-15.5851 -10.5043,-3.8651 -12.0941,11.5329 -5.9224,15.5851 m -11.5329,-4.0522 c -5.2366,1.995 -4.7067,-8.2911 -0.9351,-7.1691 4.395,0.7169 4.8314,6.7639 0.9351,7.1691 m 15.8968,0 c -7.2003,2.4625 -4.4262,-10.2549 -0.6234,-8.7276 5.9846,0.9351 4.6131,7.9796 0.6234,8.7276 m -131.8494,-1.8702 c 8.8835,0.4364 6.5146,-11.0965 6.8574,-18.702 2.2132,-8.8523 0.4988,-15.3356 -8.7276,-14.9616 -3.958501,6.7016 -11.158801,6.2029 -14.026401,-0.9351 0.093,-1.9949 -1.8703,-2.3066 -2.8054,-3.7404 -10.6601,-0.8416 1.2468,2.3378 0.9351,6.234 5.5171,3.1482 8.8211,8.977 10.5979,14.9616 8.260001,4.3015 14.120001,-9.6938 10.909501,3.7405 4.6131,12.2186 -10.223901,12.312 -6.234101,2.8052 -2.3689,-5.0807 -5.8911,11.9381 2.493601,10.5978 m -47.690101,-1.8701 c 1.9949,-7.5433 6.8263,-12.811 14.9616,-13.4032 8.3847,6.0158 -11.5953,16.2396 -3.4288,5.2989 -3.1481,2.2132 -1.7455,-1.9325 -0.3117,-1.8701 1.1222,-2.6807 -9.8496,4.4261 -4.3637,9.0393 8.5406,2.6806 12.4368,-5.1743 13.4031,-12.4681 -0.4053,-1.6208 -1.6832,-3.7404 -3.7404,-3.4287 -7.0756,1.9637 5.9846,-6.1405 -0.6234,-11.2212 -1.4027,-7.886 -17.1124,-3.0235 -16.8318,-3.1171 13.8706,-5.6416 -10.9095,-4.956 -1.8702,6.2341 1.1532,8.3535 -0.3429,19.1384 2.8053,24.9361 m 70.756001,-3.7405 c 6.9509,-3.4911 -0.4987,-10.8471 -0.9351,-14.9616 0.5923,5.9223 12.8732,5.4859 14.3382,1.2468 3.678,-11.0965 3.2728,10.2861 7.7925,2.4936 0.4363,-4.395 -0.1247,-18.2344 4.3638,-9.6627 1.465,6.047 5.3924,10.0679 12.468,9.351 6.0782,0.8416 11.0966,6.1094 16.5202,1.2468 3.9898,-2.026 6.421,-10.4732 12.468,-7.169 7.1691,2.3689 6.8263,-13.3721 9.0393,-2.4937 3.9586,4.8313 11.3771,-0.2493 16.2084,1.5585 5.5794,-3.1793 9.1329,-9.5068 0.6234,-3.7404 -7.4497,4.7067 -4.4885,-11.2523 -3.4287,-13.7148 3.117,-4.3638 13.1538,-3.2417 0.9351,-5.6106 -4.7379,2.2754 -5.143,9.8497 -5.6106,15.8967 -1.7455,9.5068 -8.603,1.652 -8.1042,-4.0521 -1.5897,-13.3096 -4.2703,2.3689 -4.9872,5.2989 -4.582,9.6316 -8.8835,-4.7067 -2.8054,-6.5457 -3.3975,-3.5222 -6.795,6.4833 -7.169,10.5978 1.4337,-2.4625 -4.9561,-6.8886 -5.9223,-12.1563 -0.8729,-5.8911 -0.1871,-14.4941 -1.8702,-19.6371 -4.7691,1.0286 -0.5611,13.1226 -1.5585,17.1435 5.7664,7.886 -9.4134,13.6213 -2.182,6.8574 2.4002,-7.0444 -5.0807,5.5482 -6.2339,6.8574 -1.1534,5.7353 -9.7563,10.8472 -4.0522,2.1819 2.743,-3.678 2.1508,-16.4889 -4.3637,-9.9744 -2.4937,3.4287 1.2779,19.2007 -5.6107,9.9744 -0.062,-4.769 -7.3873,-11.9381 -10.5978,-5.2989 0.3117,13.2784 -1.3092,5.5172 -4.3639,0 -0.2181,-5.2677 -11.4082,-5.0184 -14.9615,-2.1819 -2.9612,3.0235 -0.062,17.6735 -2.4936,14.3382 -1.8703,-4.8625 -2.6806,-12.0005 -7.4808,-14.0265 -5.2677,-0.5299 4.8625,7.325 3.4286,11.5329 2.3378,4.956 3.6158,10.7225 6.5458,14.6499 m -43.638101,-4.3638 c 5.486,-3.8338 0.5299,-16.1149 -0.9351,-21.1956 -3.5846,1.9949 0.9662,15.024 0.9351,21.1956 m -23.0658,-5.9223 c -6.234,-3.6469 -2.8676,-21.1021 6.234,-14.3382 9.1328,4.8002 0.5611,15.3357 -6.234,14.3382 m 118.134401,-1.8702 c -9.8809,1.6209 -5.2988,-9.5692 -0.3117,-9.9744 8.3848,-0.093 6.9821,9.7562 0.3117,9.9744 m -75.4315,-1.8702 c -9.039301,1.5896 -4.737801,-8.6652 -0.9351,-9.351 7.7302,-2.743 6.3276,10.4108 0.9351,9.351 m 32.7286,0 c -8.1666,2.5248 -6.3898,-10.5666 -1.5585,-9.6627 7.5743,-0.031 6.7638,8.8523 1.5585,9.6627 m 100.3676,-11.5329 c 5.6105,-1.0286 2.7117,-10.3484 6.5456,-13.0914 1.6832,-1.2157 8.1355,-10.9407 4.0522,-8.1043 -2.8677,1.2469 -6.2964,9.9744 -8.1043,7.1692 0,-6.234 4.8003,-8.4471 6.2341,-12.468 -2.182,2.4312 -8.6965,3.5222 -8.1042,9.9744 1.6207,8.1354 -6.6704,6.234 -10.5978,8.7276 -10.9719,1.9013 0.935,3.9898 5.2988,1.5585 7.2627,-4.8002 7.8861,1.7767 4.6756,6.234 m -116.8877,-34.287 c 9.7251,-0.2806 19.2007,-0.7481 28.053,-1.8702 4.7067,2.3689 27.6167,2.213 14.9617,-2.8054 -7.4186,-2.3689 -19.045,-1.3403 -27.4297,-0.6234 -3.6469,2.1196 -26.401,2.3066 -15.585,5.299 m -28.676501,-16.8319 c 4.6443,-0.748 5.6107,-16.1149 8.7276,-10.9095 1.0287,5.86 4.737901,13.9018 12.468001,8.4159 4.8938,-2.4313 10.9719,-8.2912 16.2085,-4.0521 10.9095,-7.5431 -5.7976,2.3378 -1.8702,-9.6627 0.3117,-2.026 -0.4987,-4.3014 -1.8702,-4.3638 -11.6265,-0.093 4.4262,-2.2754 -6.234,-2.4936 -6.3276,1.6208 -3.8652,13.3096 -5.299,16.8319 -7.7301,7.0132 -10.2861,-4.0833 -12.156301,-8.7276 -6.3587,-5.9224 -6.8574,16.6759 -8.7276,4.052 0.8416,-6.5769 0.3117,-16.5824 -1.8702,-21.819 -11.6264,-7.4497 2.93,3.6157 -6.234,5.2989 -6.2963,1.839 -11.1277,5.8599 -18.0786,6.234 -10.6914,2.8365 -5.673,7.8548 2.8053,3.117 8.5094,-6.7639 11.2524,1.2468 9.9744,9.351 6.9198,10.5978 2.7118,-2.2754 2.4936,-9.0393 -3.0547,-5.0184 12.8421,-13.2784 8.1042,-3.7404 1.3092,7.4809 -1.0286,15.398 1.5585,21.5073 m 98.497401,-1.2468 c 6.2652,-1.1221 3.1481,-8.9458 4.9872,-14.0264 1.4649,-4.9249 3.2104,-9.5693 4.3638,-14.9617 -1.4651,-5.1431 12.7486,-6.7328 2.8053,-6.8574 -6.4211,0.1559 -5.5171,7.4808 -7.1691,12.1562 -0.9975,8.4784 -9.0394,2.4313 -10.2861,-0.935 -0.8105,-4.769 -9.507,-8.3224 -4.3638,-0.6234 3.2416,3.6781 5.2677,8.0731 10.2861,9.351 2.7118,3.6469 -1.3403,10.0368 -0.6234,15.8967 m -44.2615,-1.5585 c 4.5508,0.8105 5.3301,-13.8395 2.4936,-5.9223 -1.6209,9.2887 -1.5585,-3.7404 -2.8053,-6.5456 0.3429,-6.5146 -5.0184,-9.1641 -6.8574,-3.4288 -1.465,9.538 -3.7092,-0.062 -0.9351,-3.7404 4.5819,-4.4261 -5.8911,2.3066 -3.7405,6.234 -0.8103,4.9561 2.0261,14.494 3.7405,5.6106 1.2779,-1.9013 4.6443,-13.6836 4.6754,-6.234 1.7144,4.5509 0.6234,11.4082 3.4288,14.0265 m 28.3648,-2.8052 c 8.5094,-2.9612 -12.0317,-8.0731 -12.4681,-9.6627 2.0884,-0.6235 4.3327,-2.0573 5.2989,-2.8054 6.6393,-8.6029 -10.0368,-0.561 -8.7276,2.1819 0.5299,-1.9014 1.3092,-5.7041 0,-7.1691 -3.9898,-10.4108 -0.9351,11.6264 -3.7404,13.0914 -0.1559,4.2704 3.5846,1.5274 3.4287,0 5.2366,-4.4885 11.0965,4.2704 16.2085,4.3639 m 32.4167,-3.4288 c 7.4186,0.7169 8.9458,-4.4884 11.8447,-8.1042 2.4936,-5.1118 1.8391,-12.2187 -2.8053,-14.6499 -6.1405,-0.9975 -9.725,3.3352 -11.5329,7.7925 -1.6832,4.5197 -2.556,13.8395 2.4935,14.9616 m -87.276,-0.6234 c -4.395,-0.9351 -1.3092,-10.9719 1.5585,-9.6627 4.582,0.6234 2.2442,10.255 -1.5585,9.6627 m 90.0814,-2.8053 c -6.7016,-2.3066 -2.5559,-16.4577 3.7404,-15.2733 7.5431,3.4599 0.9039,14.1823 -3.7404,15.2733 m 16.8318,-3.4287 c 5.9534,0.2805 7.0756,-4.3949 8.1042,-9.0394 2.0261,-7.1378 2.1196,6.6393 4.3638,7.1692 5.5172,-0.374 -0.6233,-7.1068 0,-11.5329 -0.6233,-2.7118 0,-15.0863 -3.4287,-9.9744 -0.7481,4.8313 -0.8104,10.5043 -3.4287,13.7148 -1.3092,3.7716 -4.8625,10.6601 -5.6106,2.1819 0.3429,-2.743 -3.5534,-14.6811 -4.3638,-5.2989 1.2468,4.7378 1.4338,10.3173 4.3638,12.7797 m -114.0824,-17.7669 c 6.5458,0.6546 10.8473,-1.7455 15.8968,-1.8703 5.2366,-1.1532 10.4419,-0.7169 15.8967,-0.6233 5.2054,-1.465 11.3459,0.1246 15.8967,-0.9351 3.6469,0.062 11.8758,-5.6106 2.4937,-5.2989 -5.0184,1.0286 -12.1876,0.5922 -16.8319,0.9351 -5.2678,-0.9975 -10.2861,0.9974 -15.585,1.2468 -4.6755,0.9351 -11.2212,1.1221 -15.8968,1.8702 -5.0183,1.9637 -3.1793,1.4649 -1.8702,4.6755 m -50.495401,-21.5074 c 3.304,-4.4572 0.5922,-15.8032 1.5585,-23.0657 -0.062,-8.1667 -1.4962,-15.0552 -1.5585,-23.6893 -0.9039,-8.7276 2.5247,-15.1799 11.2212,-13.0914 5.0495,2.5871 11.1589,7.5431 8.1042,14.9616 -1.0598,11.2213 -6.9509,5.7976 -13.0914,5.2989 1.6832,7.0756 7.7613,9.351 11.2212,14.0265 3.7716,4.7691 7.4185,9.4445 11.5329,13.4032 5.1431,3.4286 8.2913,8.634 14.338201,10.5977 10.0368,0.4364 -4.114401,-6.234 -6.233901,-8.7276 -5.0184,-2.9299 -8.4472,-7.8548 -13.0915,-11.8446 -1.5274,-4.5196 -11.9381,-8.8522 -5.2989,-14.9616 3.5222,-3.5846 6.8574,-13.2473 1.8702,-18.3903 -2.8676,-4.3638 -8.1666,-8.977 -15.585,-8.1042 -6.2028,2.2442 -8.1043,8.6964 -8.416,16.8318 0.9975,7.7614 0.717,16.3642 0.6234,24.6243 0.53,7.9796 0.3741,16.4578 2.8054,22.1307 m 140.576901,-5.2988 c 3.1481,-7.512 -2.2131,-15.3358 -2.8053,-23.0659 -0.2805,-7.8237 -4.4262,-17.3617 -1.5586,-24.6243 6.4211,-7.6678 10.068,6.5145 10.5979,12.468 -0.6235,1.7144 -0.093,5.6418 -1.5586,5.9224 -10.0679,-0.6858 -8.6652,7.9171 0.9351,4.052 5.5172,-3.6781 3.0859,-18.5462 0,-23.0659 -1.7142,-9.6626 -12.9667,-5.4235 -15.8966,0.6235 0.1246,9.9121 3.1481,16.5201 3.4287,25.5594 2.4,7.512 2.6183,16.8942 6.8574,22.1308 m -88.2113,-6.8574 c 5.5483,1.4338 13.4967,-3.647 9.6627,-5.299 -3.7092,2.4313 -11.0965,1.7455 -15.2732,0 -5.1431,-0.7169 -10.816101,-6.6704 -1.8702,-3.4287 5.7664,-0.1246 8.6964,-3.304 9.6627,-8.4159 0.3428,-6.5145 -4.1144,-9.0704 -8.4159,-10.5978 -5.891201,-0.031 -8.758901,3.1794 -9.974401,8.1042 -1.4651,6.1717 1.5272,11.4083 3.4286,14.3382 2.649501,3.6781 7.792601,4.6444 12.779701,5.299 m 27.4297,-1.8702 c 8.8211,0.1246 8.2288,-7.4809 -0.3117,-3.7405 -5.0807,-1.3091 -9.8185,-3.8963 -12.1563,-7.7925 -2.4313,-5.2677 0.8415,-12.0628 3.4286,-14.3382 2.8677,-3.6469 9.1017,-5.5794 14.0266,-4.0522 1.7767,-3.6157 -8.4783,-6.6391 -11.2212,-2.8052 -3.8651,2.5559 -7.4185,6.3275 -8.7276,10.9095 -2.743,4.7378 -0.8104,13.372 2.1819,14.9616 3.117,3.6781 8.3535,5.7665 12.7797,6.8575 m 22.1308,-2.4937 c 6.7639,-0.6234 11.3458,-3.4287 13.0913,-9.0393 2.4313,-9.7561 -4.4572,3.7093 -7.1691,4.3638 -6.047,3.1794 -13.1849,-1.1221 -13.4031,-5.9223 5.6106,-1.5585 9.6316,-4.9249 10.9095,-10.9095 0.062,-5.3612 -7.7613,-10.6602 -11.8446,-5.2989 -2.8053,1.6832 -3.8027,16.4578 -5.9223,10.5978 0.4676,-9.3822 -5.5794,7.9484 2.4936,6.234 2.7741,4.7691 5.6417,9.2887 11.8447,9.9744 m 73.5613,-0.9351 c 3.9585,-3.491 -2.556,-13.4966 -3.1171,-19.3254 -6.047,-9.1329 14.5876,-5.2677 9.0393,-11.8446 -10.8784,5.0807 -13.8707,-1.3715 -13.4031,-11.2212 -4.1144,-6.9821 6.1093,-19.5436 -2.4935,-18.702 -1.3404,7.2314 -1.0599,19.3565 0,25.5594 6.2028,11.72 -8.9771,7.7613 -14.3383,10.5978 0.1246,7.0757 18.1721,-3.8651 17.7669,4.6755 2.5247,6.8263 2.9923,15.3356 6.5458,20.2605 m -50.4956,-2.8053 c 5.8289,-3.0858 -0.4987,-11.1276 -0.3117,-15.585 -1.9637,-4.4573 -2.3689,-11.6887 -4.9871,-15.585 -3.9275,1.7143 1.2779,11.2524 1.2468,14.6499 1.7455,5.3612 3.0234,11.7199 4.052,16.5201 m -80.7304,-3.7403 c -9.444401,0.4052 -4.020901,-11.907 1.5586,-10.5978 8.7276,-0.6235 5.6418,12.8732 -1.5586,10.5978 m 50.4955,-6.5458 c -3.7092,-1.091 -0.2494,-12.4057 5.2989,-10.5978 6.1094,4.0209 -1.9949,9.7874 -5.2989,10.5978 m 18.702,-25.8711 c 9.6004,4.0833 9.4757,-11.0653 1.5585,-6.234 9.6316,-0.3741 -5.9223,3.5845 -1.5585,6.234 z"
       id="path8-8"
       inkscape:connector-curvature="0"
       style="fill:#000000;fill-opacity:1;fill-rule:evenodd;stroke:none;stroke-width:0.3117"
       sodipodi:nodetypes="cccccccccccccccccccccccccccccccccccccccccccccccccccccccccccccccccccccccccccccccccccccccccccccccccccccccccccccccccccccccccccccccccccccccccccccccccccccccccccccccccccccccccccccccccccccccccccccccccccccccccccccccccccccccccccccccccccccccccccccccccccccccccccccccccccccccccccccccccccccccccccccccccccccccccccccccccccccccccccccccccccccccccccccccccccccccccccccccccccccccccccccccccccccccccccccccccccccccccccccccccccccccccccccccccccccccccccccccccccccccccccccccccccccccccccccccccccccccccccccccccccccccccccccccccccccccccccccccccccccccccccccccccccccccccccccccccccccccccccccccccccccccccccccccccccccccc" /><g
       id="g10374"
       inkscape:export-ydpi="22.906492"
       inkscape:export-xdpi="22.906492"
       inkscape:export-filename="/home/gaetano/Scrivania/salva progetto.png"
       transform="matrix(-9.4118126,0,0,-9.4118126,1602.2164,2010.637)"><rect
         id="rect10376"
         style="fill:#000000"
         height="31.429001"
         width="29.643"
         y="62.719002"
         x="19.285999" /><rect
         id="rect10378"
         style="fill:#e6e6e6"
         height="11.239"
         width="16.070999"
         y="64.694"
         x="25.714001" /><rect
         id="rect10380"
         style="fill:#ffffff"
         height="12.21"
         width="24.285999"
         y="78.723"
         x="21.785999" /><rect
         id="rect10382"
         style="fill:#000000"
         height="8.9286003"
         width="3.9286001"
         y="65.933998"
         x="35.214001" /><g
         id="g10384"
         transform="matrix(1.4667,0,0,1,41,-2)"><rect
           id="rect10386"
           style="fill:#000000"
           height="0.71429002"
           width="10.714"
           y="84.504997"
           x="-10.714" /><rect
           id="rect10388"
           style="fill:#000000"
           height="0.71429002"
           width="10.714"
           y="86.504997"
           x="-10.714" /></g></g></g></svg>
