<?xml version="1.0" encoding="UTF-8" standalone="no"?>
<!-- Created with Inkscape (http://www.inkscape.org/) -->
<svg xmlns:inkscape="http://www.inkscape.org/namespaces/inkscape" xmlns:rdf="http://www.w3.org/1999/02/22-rdf-syntax-ns#" xmlns="http://www.w3.org/2000/svg" xmlns:sodipodi="http://sodipodi.sourceforge.net/DTD/sodipodi-0.dtd" xmlns:cc="http://creativecommons.org/ns#" xmlns:xlink="http://www.w3.org/1999/xlink" xmlns:dc="http://purl.org/dc/elements/1.1/" xmlns:svg="http://www.w3.org/2000/svg" xmlns:ns1="http://sozi.baierouge.fr" id="svg3269" sodipodi:docname="hawk88_personal_information_2.svg" viewBox="0 0 894.76 851.9" sodipodi:version="0.32" version="1.0" inkscape:output_extension="org.inkscape.output.svg.inkscape" inkscape:version="0.46dev+devel" sodipodi:docbase="/home/mart/Documents/artwork">
  <defs id="defs3271">
    <filter id="filter3387" inkscape:collect="always">
      <feGaussianBlur id="feGaussianBlur3389" stdDeviation="1.877244" inkscape:collect="always"/>
    </filter>
    <linearGradient id="linearGradient3513" y2="41.516" gradientUnits="userSpaceOnUse" x2="179.85" gradientTransform="matrix(1.8883 0 0 13.236 -87.928 -454.35)" y1="101.63" x1="179.85" inkscape:collect="always">
      <stop id="stop5107" style="stop-color:#cbcbcb" offset="0"/>
      <stop id="stop5113" style="stop-color:#dddddd" offset=".81"/>
      <stop id="stop5109" style="stop-color:#c5c5c5" offset="1"/>
    </linearGradient>
  </defs>
  <sodipodi:namedview id="base" bordercolor="#666666" inkscape:pageshadow="2" guidetolerance="10" pagecolor="#ffffff" gridtolerance="10000" inkscape:window-height="778" inkscape:zoom="0.40204442" objecttolerance="10" showgrid="false" borderopacity="1.0" inkscape:current-layer="layer1" inkscape:cx="385.61703" inkscape:cy="411.27649" inkscape:window-y="0" inkscape:window-x="0" inkscape:window-width="1280" inkscape:pageopacity="0.0" inkscape:document-units="px"/>
  <g id="layer1" inkscape:label="Layer 1" inkscape:groupmode="layer" transform="translate(51.14 -25.505)">
    <rect id="rect7461" style="fill:#ffffff" inkscape:export-ydpi="650" inkscape:export-filename="/home/mart/Desktop/lockcal.png" ry="0" height="851.9" width="894.76" inkscape:export-xdpi="650" y="25.505" x="-51.14"/>
    <rect id="rect7463" style="filter:url(#filter3387);fill:#666666" inkscape:export-ydpi="90" inkscape:export-filename="/var/www/callorganizer/templates/BellenTell/img/tableheader2.png" transform="matrix(11.055 0 0 11.055 -3445.9 -2245.4)" height="63.118" width="73.545" inkscape:export-xdpi="90" y="214.26" x="311.23"/>
    <rect id="rect7465" style="fill:url(#linearGradient3513)" inkscape:export-ydpi="90" inkscape:export-filename="/var/www/callorganizer/templates/BellenTell/img/tableheader2.png" height="751.35" width="813.04" inkscape:export-xdpi="90" y="69.641" x="-5.2252"/>
    <rect id="rect7467" style="fill:#e6e6e6" rx="8.2154" ry="8.2154" height="627.51" width="731.73" y="132.54" x="35.427"/>
    <rect id="rect7491" style="opacity:.47253;fill:#cccccc" height="52.718" width="484.66" y="200.79" x="225.59"/>
    <rect id="rect7530" style="opacity:.47253;fill:#b3b3b3" height="52.718" width="484.66" y="200.79" x="226.9"/>
    <rect id="rect7534" style="opacity:.47253;fill:#b3b3b3" height="52.718" width="310.34" y="276.66" x="401.21"/>
    <rect id="rect7536" style="opacity:.47253;fill:#b3b3b3" height="52.718" width="456.2" y="364.6" x="255.36"/>
    <rect id="rect7538" style="opacity:.47253;fill:#b3b3b3" height="52.718" width="446.45" y="452.53" x="265.11"/>
    <rect id="rect7540" style="opacity:.47253;fill:#b3b3b3" height="52.718" width="550.26" y="540.47" x="161.3"/>
    <path id="text7542" style="fill:#000000" d="m68.299 208.54h5.873l14.294 26.97v-26.97h4.232v32.24h-5.873l-14.294-26.97v26.97h-4.232v-32.24zm43.901 20.08c-3.21 0-5.44 0.37-6.68 1.1-1.23 0.74-1.85 1.99-1.85 3.76 0 1.41 0.46 2.53 1.39 3.36 0.93 0.82 2.19 1.24 3.79 1.24 2.2 0 3.97-0.78 5.3-2.35 1.33-1.56 2-3.63 2-6.22v-0.89h-3.95zm7.92-1.64v13.8h-3.97v-3.67c-0.91 1.46-2.04 2.55-3.39 3.25-1.36 0.69-3.01 1.04-4.97 1.04-2.48 0-4.44-0.69-5.9-2.08-1.47-1.39-2.196-3.25-2.196-5.58 0-2.72 0.906-4.77 2.726-6.16 1.83-1.38 4.54-2.07 8.16-2.07h5.57v-0.39c0-1.83-0.6-3.24-1.81-4.24-1.2-1-2.89-1.5-5.06-1.5-1.38 0-2.73 0.16-4.04 0.5-1.31 0.33-2.57 0.82-3.78 1.49v-3.68c1.46-0.56 2.87-0.98 4.24-1.26 1.36-0.28 2.7-0.42 3.99-0.42 3.5 0 6.11 0.91 7.84 2.72s2.59 4.56 2.59 8.25zm27.03-5.74c1-1.79 2.18-3.11 3.56-3.96 1.39-0.84 3.01-1.27 4.88-1.27 2.52 0 4.47 0.88 5.83 2.65 1.37 1.76 2.06 4.27 2.06 7.52v14.6h-4v-14.47c0-2.32-0.41-4.04-1.23-5.16s-2.07-1.68-3.76-1.68c-2.06 0-3.68 0.68-4.88 2.05-1.19 1.36-1.79 3.23-1.79 5.59v13.67h-3.99v-14.47c0-2.33-0.41-4.06-1.23-5.17-0.82-1.12-2.09-1.67-3.8-1.67-2.03 0-3.65 0.68-4.84 2.06-1.2 1.37-1.79 3.23-1.79 5.58v13.67h-4v-24.19h4v3.76c0.9-1.48 1.99-2.58 3.26-3.28 1.26-0.71 2.77-1.06 4.51-1.06 1.76 0 3.25 0.45 4.48 1.34s2.14 2.19 2.73 3.89zm44.96 6.45v1.94h-18.27c0.17 2.74 1 4.82 2.47 6.26 1.48 1.43 3.53 2.14 6.17 2.14 1.52 0 3-0.18 4.43-0.56 1.44-0.37 2.86-0.93 4.27-1.68v3.76c-1.43 0.6-2.89 1.06-4.39 1.38-1.49 0.31-3.01 0.47-4.55 0.47-3.86 0-6.91-1.12-9.17-3.37-2.25-2.24-3.38-5.28-3.38-9.11 0-3.96 1.07-7.1 3.21-9.42 2.14-2.33 5.02-3.49 8.65-3.49 3.25 0 5.82 1.05 7.72 3.14 1.89 2.1 2.84 4.94 2.84 8.54zm-3.98-1.16c-0.03-2.18-0.63-3.91-1.82-5.21-1.19-1.29-2.76-1.94-4.72-1.94-2.22 0-3.99 0.62-5.32 1.88-1.33 1.25-2.1 3.01-2.3 5.29l14.16-0.02z"/>
    <path id="text7546" style="fill:#000000" d="m89.049 288.85v4.26c-1.655-0.79-3.217-1.38-4.685-1.77-1.469-0.39-2.887-0.58-4.254-0.59-2.375 0.01-4.207 0.47-5.495 1.39s-1.933 2.23-1.933 3.93c0 1.42 0.429 2.5 1.285 3.22 0.857 0.73 2.48 1.32 4.869 1.76l2.634 0.54c3.253 0.62 5.654 1.71 7.201 3.28 1.547 1.56 2.321 3.65 2.321 6.27 0 3.12-1.047 5.49-3.141 7.1-2.095 1.61-5.164 2.42-9.209 2.42-1.526 0-3.149-0.17-4.869-0.52-1.72-0.34-3.502-0.86-5.344-1.53v-4.49c1.77 0.99 3.505 1.74 5.203 2.24 1.699 0.51 3.369 0.76 5.01 0.76 2.49 0 4.412-0.49 5.765-1.47s2.029-2.37 2.029-4.19c0-1.58-0.486-2.82-1.457-3.71-0.972-0.89-2.566-1.56-4.783-2.01l-2.655-0.52c-3.254-0.65-5.607-1.66-7.061-3.04s-2.181-3.31-2.181-5.77c0-2.85 1.004-5.09 3.012-6.73 2.008-1.65 4.776-2.47 8.302-2.47 1.512 0 3.052 0.14 4.621 0.41 1.569 0.28 3.174 0.69 4.815 1.23zm29.261 18.1v1.94h-18.27c0.17 2.74 1 4.82 2.47 6.25 1.48 1.44 3.53 2.15 6.17 2.15 1.52 0 3-0.19 4.43-0.56 1.44-0.37 2.86-0.94 4.27-1.68v3.75c-1.43 0.61-2.89 1.07-4.39 1.38-1.49 0.32-3.01 0.48-4.55 0.48-3.86 0-6.91-1.12-9.167-3.37-2.253-2.24-3.38-5.28-3.38-9.11 0-3.96 1.069-7.1 3.207-9.43 2.14-2.32 5.02-3.48 8.65-3.48 3.25 0 5.82 1.04 7.72 3.14 1.89 2.09 2.84 4.94 2.84 8.54zm-3.98-1.17c-0.03-2.17-0.63-3.91-1.82-5.2-1.19-1.3-2.76-1.94-4.72-1.94-2.22 0-3.99 0.62-5.32 1.87-1.33 1.26-2.1 3.02-2.3 5.29l14.16-0.02zm27.9-9v3.71c-1.12-0.62-2.25-1.08-3.38-1.39s-2.27-0.46-3.42-0.46c-2.58 0-4.58 0.81-6 2.45-1.43 1.63-2.14 3.92-2.14 6.87s0.71 5.25 2.14 6.88c1.42 1.63 3.42 2.45 6 2.45 1.15 0 2.29-0.15 3.42-0.46s2.26-0.78 3.38-1.4v3.67c-1.11 0.52-2.26 0.91-3.44 1.17-1.19 0.26-2.46 0.39-3.79 0.39-3.65 0-6.54-1.14-8.68-3.43-2.15-2.29-3.22-5.38-3.22-9.27 0-3.94 1.08-7.04 3.25-9.3 2.16-2.26 5.13-3.39 8.91-3.39 1.22 0 2.41 0.12 3.58 0.38 1.17 0.25 2.3 0.63 3.39 1.13zm16.32 1.86c-2.13 0-3.81 0.83-5.05 2.49s-1.86 3.94-1.86 6.83c0 2.9 0.62 5.17 1.85 6.84 1.23 1.66 2.92 2.49 5.06 2.49 2.12 0 3.8-0.83 5.03-2.5 1.24-1.67 1.86-3.95 1.86-6.83 0-2.86-0.62-5.13-1.86-6.81-1.23-1.68-2.91-2.51-5.03-2.51zm0-3.37c3.46 0 6.17 1.12 8.14 3.37 1.97 2.24 2.96 5.35 2.96 9.32 0 3.96-0.99 7.07-2.96 9.32s-4.68 3.38-8.14 3.38c-3.47 0-6.18-1.13-8.15-3.38-1.96-2.25-2.95-5.36-2.95-9.32 0-3.97 0.99-7.08 2.95-9.32 1.97-2.25 4.68-3.37 8.15-3.37zm37.77 10.17v14.59h-3.98v-14.46c0-2.29-0.44-4-1.34-5.14-0.89-1.14-2.23-1.71-4.01-1.71-2.15 0-3.84 0.69-5.08 2.05-1.23 1.37-1.85 3.24-1.85 5.6v13.66h-4v-24.18h4v3.76c0.95-1.46 2.07-2.54 3.36-3.26 1.28-0.72 2.77-1.08 4.45-1.08 2.78 0 4.88 0.86 6.31 2.58 1.42 1.72 2.14 4.25 2.14 7.59zm23.88-5.92v-13.08h3.97v33.59h-3.97v-3.62c-0.84 1.44-1.89 2.5-3.17 3.2-1.27 0.7-2.8 1.05-4.58 1.05-2.93 0-5.31-1.17-7.14-3.5-1.84-2.33-2.75-5.4-2.75-9.2s0.91-6.86 2.75-9.19c1.83-2.34 4.21-3.5 7.14-3.5 1.78 0 3.31 0.35 4.58 1.04 1.28 0.7 2.33 1.77 3.17 3.21zm-13.54 8.44c0 2.93 0.6 5.22 1.8 6.88s2.86 2.49 4.96 2.49 3.75-0.83 4.96-2.49 1.82-3.95 1.82-6.88c0-2.92-0.61-5.21-1.82-6.87-1.21-1.67-2.86-2.5-4.96-2.5s-3.76 0.83-4.96 2.5c-1.2 1.66-1.8 3.95-1.8 6.87zm59.87-2.52v14.59h-3.97v-14.46c0-2.29-0.45-4-1.34-5.14s-2.23-1.71-4.01-1.71c-2.15 0-3.84 0.69-5.08 2.05-1.24 1.37-1.86 3.24-1.86 5.6v13.66h-3.99v-24.18h3.99v3.76c0.95-1.46 2.07-2.54 3.36-3.26s2.78-1.08 4.46-1.08c2.78 0 4.88 0.86 6.31 2.58 1.42 1.72 2.13 4.25 2.13 7.59zm18.96 2.44c-3.21 0-5.43 0.36-6.67 1.1-1.24 0.73-1.86 1.98-1.86 3.76 0 1.41 0.47 2.53 1.39 3.35 0.93 0.83 2.2 1.24 3.79 1.24 2.21 0 3.97-0.78 5.3-2.34 1.34-1.56 2-3.64 2-6.23v-0.88h-3.95zm7.92-1.64v13.79h-3.97v-3.67c-0.91 1.47-2.04 2.55-3.39 3.25s-3.01 1.05-4.96 1.05c-2.48 0-4.45-0.7-5.91-2.08-1.46-1.39-2.19-3.25-2.19-5.59 0-2.72 0.91-4.77 2.73-6.15s4.54-2.07 8.15-2.07h5.57v-0.39c0-1.83-0.6-3.24-1.8-4.24s-2.89-1.5-5.06-1.5c-1.39 0-2.73 0.16-4.04 0.49s-2.57 0.83-3.78 1.49v-3.67c1.45-0.56 2.86-0.98 4.23-1.26s2.7-0.42 4-0.42c3.49 0 6.11 0.9 7.83 2.72 1.73 1.81 2.59 4.56 2.59 8.25zm27.04-5.75c0.99-1.78 2.18-3.1 3.56-3.95s3.01-1.27 4.88-1.27c2.52 0 4.46 0.88 5.83 2.64 1.37 1.77 2.05 4.27 2.05 7.53v14.59h-3.99v-14.46c0-2.32-0.41-4.04-1.23-5.16-0.83-1.13-2.08-1.69-3.76-1.69-2.06 0-3.69 0.69-4.88 2.05-1.2 1.37-1.79 3.24-1.79 5.6v13.66h-4v-14.46c0-2.33-0.41-4.06-1.23-5.17-0.82-1.12-2.09-1.68-3.8-1.68-2.03 0-3.64 0.69-4.84 2.06-1.19 1.38-1.79 3.24-1.79 5.59v13.66h-3.99v-24.18h3.99v3.76c0.91-1.49 2-2.58 3.26-3.28 1.27-0.71 2.77-1.06 4.52-1.06s3.25 0.44 4.48 1.34c1.23 0.89 2.14 2.18 2.73 3.88zm44.95 6.46v1.94h-18.27c0.18 2.74 1 4.82 2.48 6.25 1.47 1.44 3.53 2.15 6.16 2.15 1.53 0 3.01-0.19 4.44-0.56s2.85-0.94 4.26-1.68v3.75c-1.42 0.61-2.88 1.07-4.38 1.38-1.5 0.32-3.02 0.48-4.56 0.48-3.85 0-6.91-1.12-9.16-3.37-2.25-2.24-3.38-5.28-3.38-9.11 0-3.96 1.07-7.1 3.21-9.43 2.13-2.32 5.02-3.48 8.64-3.48 3.26 0 5.83 1.04 7.72 3.14 1.89 2.09 2.84 4.94 2.84 8.54zm-3.97-1.17c-0.03-2.17-0.64-3.91-1.83-5.2-1.18-1.3-2.76-1.94-4.71-1.94-2.22 0-3.99 0.62-5.33 1.87-1.33 1.26-2.09 3.02-2.3 5.29l14.17-0.02z"/>
    <path id="text7554" style="fill:#000000" d="m68.299 374.13h4.362v32.24h-4.362v-32.24zm32.971 17.64v14.6h-3.973v-14.47c0-2.29-0.446-4-1.339-5.14-0.892-1.14-2.231-1.7-4.016-1.7-2.145 0-3.836 0.68-5.074 2.05-1.238 1.36-1.857 3.23-1.857 5.59v13.67h-3.994v-24.19h3.994v3.76c0.95-1.45 2.069-2.54 3.358-3.26 1.288-0.72 2.774-1.08 4.458-1.08 2.779 0 4.88 0.86 6.305 2.58 1.428 1.72 2.138 4.25 2.138 7.59zm7.97-9.59h3.97v24.19h-3.97v-24.19zm0-9.41h3.97v5.03h-3.97v-5.03zm16.19 2.55v6.86h8.18v3.09h-8.18v13.13c0 1.97 0.27 3.24 0.81 3.8s1.64 0.84 3.29 0.84h4.08v3.33h-4.08c-3.06 0-5.18-0.58-6.34-1.72-1.17-1.14-1.75-3.23-1.75-6.25v-13.13h-2.92v-3.09h2.92v-6.86h3.99zm13.43 6.86h3.97v24.19h-3.97v-24.19zm0-9.41h3.97v5.03h-3.97v-5.03zm23.26 21.44c-3.21 0-5.44 0.37-6.68 1.1-1.23 0.74-1.85 1.99-1.85 3.76 0 1.41 0.46 2.53 1.39 3.36 0.93 0.82 2.19 1.24 3.79 1.24 2.2 0 3.97-0.78 5.3-2.34 1.33-1.57 2-3.64 2-6.23v-0.89h-3.95zm7.92-1.64v13.8h-3.97v-3.67c-0.91 1.46-2.04 2.55-3.39 3.25-1.36 0.69-3.01 1.04-4.97 1.04-2.48 0-4.44-0.69-5.9-2.08-1.47-1.39-2.2-3.25-2.2-5.58 0-2.72 0.91-4.77 2.73-6.16 1.83-1.38 4.54-2.07 8.16-2.07h5.57v-0.39c0-1.83-0.6-3.24-1.81-4.24-1.2-1-2.89-1.5-5.06-1.5-1.38 0-2.73 0.17-4.04 0.5s-2.57 0.82-3.78 1.49v-3.67c1.46-0.57 2.87-0.99 4.24-1.27 1.36-0.28 2.7-0.42 3.99-0.42 3.5 0 6.11 0.91 7.84 2.72 1.73 1.82 2.59 4.56 2.59 8.25zm8.2-19.8h3.98v33.6h-3.98v-33.6zm27.68 10.13v3.75c-1.12-0.57-2.28-1-3.49-1.29s-2.46-0.43-3.76-0.43c-1.97 0-3.45 0.3-4.44 0.9-0.98 0.61-1.48 1.51-1.48 2.72 0 0.93 0.36 1.65 1.06 2.17 0.71 0.53 2.13 1.03 4.26 1.5l1.36 0.31c2.82 0.6 4.82 1.45 6.01 2.56 1.19 1.1 1.78 2.63 1.78 4.61 0 2.24-0.89 4.02-2.67 5.33-1.77 1.31-4.22 1.96-7.33 1.96-1.29 0-2.64-0.12-4.05-0.37-1.4-0.26-2.88-0.63-4.43-1.14v-4.1c1.47 0.76 2.91 1.33 4.34 1.72 1.42 0.38 2.83 0.57 4.23 0.57 1.87 0 3.31-0.32 4.32-0.96s1.51-1.55 1.51-2.71c0-1.08-0.36-1.91-1.09-2.49-0.73-0.57-2.32-1.13-4.78-1.66l-1.39-0.32c-2.46-0.52-4.23-1.32-5.33-2.39-1.09-1.07-1.64-2.54-1.64-4.41 0-2.28 0.81-4.03 2.42-5.27s3.9-1.86 6.86-1.86c1.47 0 2.86 0.11 4.15 0.33 1.3 0.21 2.49 0.54 3.58 0.97z"/>
    <path id="text7558" style="fill:#000000" d="m83.068 466.73l-5.916 16.04h11.854l-5.938-16.04zm-2.461-4.3h4.944l12.286 32.24h-4.535l-2.936-8.27h-14.531l-2.937 8.27h-4.599l12.308-32.24zm37.653 11.73v-13.09h3.98v33.6h-3.98v-3.63c-0.83 1.44-1.89 2.51-3.16 3.21s-2.8 1.05-4.59 1.05c-2.92 0-5.3-1.17-7.13-3.5-1.84-2.33-2.76-5.4-2.76-9.2s0.92-6.87 2.76-9.2c1.83-2.33 4.21-3.5 7.13-3.5 1.79 0 3.32 0.35 4.59 1.05s2.33 1.77 3.16 3.21zm-13.54 8.44c0 2.92 0.61 5.21 1.81 6.88 1.2 1.66 2.85 2.49 4.95 2.49s3.76-0.83 4.97-2.49c1.21-1.67 1.81-3.96 1.81-6.88s-0.6-5.21-1.81-6.88c-1.21-1.66-2.87-2.49-4.97-2.49s-3.75 0.83-4.95 2.49c-1.2 1.67-1.81 3.96-1.81 6.88zm41.61-8.44v-13.09h3.97v33.6h-3.97v-3.63c-0.83 1.44-1.89 2.51-3.16 3.21-1.28 0.7-2.8 1.05-4.59 1.05-2.92 0-5.3-1.17-7.14-3.5-1.83-2.33-2.75-5.4-2.75-9.2s0.92-6.87 2.75-9.2c1.84-2.33 4.22-3.5 7.14-3.5 1.79 0 3.31 0.35 4.59 1.05 1.27 0.7 2.33 1.77 3.16 3.21zm-13.54 8.44c0 2.92 0.6 5.21 1.81 6.88 1.2 1.66 2.85 2.49 4.95 2.49s3.76-0.83 4.97-2.49c1.21-1.67 1.81-3.96 1.81-6.88s-0.6-5.21-1.81-6.88c-1.21-1.66-2.87-2.49-4.97-2.49s-3.75 0.83-4.95 2.49c-1.21 1.67-1.81 3.96-1.81 6.88zm39.71-8.4c-0.45-0.26-0.93-0.45-1.46-0.57-0.52-0.12-1.1-0.18-1.73-0.18-2.25 0-3.97 0.73-5.18 2.19-1.2 1.46-1.8 3.56-1.8 6.29v12.74h-3.99v-24.18h3.99v3.75c0.84-1.46 1.92-2.55 3.26-3.27 1.34-0.71 2.97-1.07 4.88-1.07 0.27 0 0.58 0.02 0.91 0.06 0.33 0.03 0.7 0.09 1.1 0.16l0.02 4.08zm24.9 7.39v1.94h-18.27c0.17 2.73 1 4.82 2.47 6.25 1.48 1.43 3.53 2.15 6.17 2.15 1.52 0 3-0.19 4.43-0.56 1.44-0.38 2.86-0.94 4.27-1.69v3.76c-1.43 0.6-2.89 1.06-4.39 1.38-1.49 0.32-3.01 0.48-4.55 0.48-3.86 0-6.91-1.13-9.17-3.37-2.25-2.25-3.38-5.28-3.38-9.11 0-3.96 1.07-7.1 3.21-9.43 2.14-2.32 5.02-3.49 8.65-3.49 3.25 0 5.82 1.05 7.72 3.15 1.89 2.09 2.84 4.94 2.84 8.54zm-3.98-1.17c-0.03-2.17-0.63-3.91-1.82-5.2-1.19-1.3-2.76-1.95-4.72-1.95-2.22 0-3.99 0.63-5.32 1.88s-2.1 3.02-2.3 5.29l14.16-0.02zm25.91-9.22v3.76c-1.12-0.58-2.29-1.01-3.49-1.3-1.21-0.29-2.47-0.43-3.76-0.43-1.97 0-3.45 0.3-4.44 0.91-0.98 0.6-1.48 1.51-1.48 2.72 0 0.92 0.35 1.64 1.06 2.17 0.71 0.52 2.12 1.02 4.25 1.5l1.36 0.3c2.83 0.6 4.83 1.46 6.02 2.56 1.18 1.1 1.78 2.64 1.78 4.61 0 2.24-0.89 4.02-2.67 5.33s-4.22 1.97-7.33 1.97c-1.29 0-2.64-0.13-4.05-0.38-1.4-0.25-2.88-0.63-4.43-1.13v-4.11c1.46 0.77 2.91 1.34 4.34 1.72 1.42 0.38 2.83 0.57 4.23 0.57 1.87 0 3.31-0.32 4.32-0.96 1-0.64 1.51-1.54 1.51-2.71 0-1.08-0.37-1.91-1.09-2.48-0.73-0.58-2.32-1.13-4.79-1.66l-1.38-0.33c-2.46-0.52-4.24-1.31-5.33-2.38-1.09-1.08-1.64-2.55-1.64-4.42 0-2.27 0.81-4.03 2.42-5.27s3.9-1.86 6.86-1.86c1.47 0 2.85 0.11 4.15 0.33 1.29 0.21 2.49 0.54 3.58 0.97zm23.06 0v3.76c-1.12-0.58-2.29-1.01-3.49-1.3-1.21-0.29-2.47-0.43-3.76-0.43-1.97 0-3.45 0.3-4.44 0.91-0.98 0.6-1.48 1.51-1.48 2.72 0 0.92 0.35 1.64 1.06 2.17 0.71 0.52 2.12 1.02 4.25 1.5l1.36 0.3c2.83 0.6 4.83 1.46 6.02 2.56 1.18 1.1 1.78 2.64 1.78 4.61 0 2.24-0.89 4.02-2.67 5.33s-4.22 1.97-7.33 1.97c-1.29 0-2.64-0.13-4.05-0.38-1.4-0.25-2.88-0.63-4.43-1.13v-4.11c1.46 0.77 2.91 1.34 4.34 1.72 1.42 0.38 2.83 0.57 4.23 0.57 1.87 0 3.31-0.32 4.32-0.96 1-0.64 1.51-1.54 1.51-2.71 0-1.08-0.37-1.91-1.09-2.48-0.73-0.58-2.32-1.13-4.79-1.66l-1.38-0.33c-2.46-0.52-4.24-1.31-5.33-2.38-1.09-1.08-1.64-2.55-1.64-4.42 0-2.27 0.81-4.03 2.42-5.27s3.9-1.86 6.86-1.86c1.47 0 2.85 0.11 4.15 0.33 1.29 0.21 2.49 0.54 3.58 0.97z"/>
    <path id="text7562" style="fill:#000000" d="m68.299 550.74h27.271v3.67h-11.444v28.56h-4.383v-28.56h-11.444v-3.67zm52.011 19.15v1.94h-18.26c0.17 2.74 0.99 4.82 2.47 6.25 1.47 1.44 3.53 2.15 6.16 2.15 1.53 0 3.01-0.19 4.44-0.56s2.85-0.94 4.27-1.68v3.75c-1.43 0.61-2.89 1.07-4.39 1.39-1.49 0.31-3.01 0.47-4.55 0.47-3.86 0-6.92-1.12-9.17-3.37-2.252-2.24-3.378-5.28-3.378-9.11 0-3.96 1.068-7.1 3.208-9.42 2.14-2.33 5.02-3.49 8.65-3.49 3.25 0 5.82 1.05 7.71 3.14 1.9 2.09 2.84 4.94 2.84 8.54zm-3.97-1.17c-0.03-2.17-0.64-3.9-1.82-5.2-1.19-1.3-2.76-1.94-4.72-1.94-2.22 0-3.99 0.62-5.32 1.88-1.34 1.25-2.1 3.01-2.3 5.29l14.16-0.03zm10.49-19.34h3.98v33.59h-3.98v-33.59z"/>
    <rect id="rect4302" style="opacity:.47253;fill:#b3b3b3" height="52.718" width="456.2" y="639.83" x="255.36"/>
    <path id="text4304" style="fill:#000000" d="m68.299 649.37h20.383v3.67h-16.021v9.54h15.352v3.67h-15.352v11.68h16.41v3.67h-20.772v-32.23zm46.641 12.69c0.99-1.78 2.18-3.1 3.56-3.95s3.01-1.27 4.88-1.27c2.52 0 4.46 0.88 5.83 2.64 1.37 1.77 2.05 4.27 2.05 7.53v14.59h-3.99v-14.46c0-2.32-0.41-4.04-1.23-5.16-0.83-1.13-2.08-1.69-3.76-1.69-2.06 0-3.69 0.69-4.88 2.05-1.2 1.37-1.79 3.24-1.79 5.6v13.66h-4v-14.46c0-2.33-0.41-4.06-1.23-5.17-0.82-1.12-2.09-1.68-3.8-1.68-2.03 0-3.64 0.69-4.84 2.06-1.19 1.38-1.787 3.24-1.787 5.59v13.66h-3.995v-24.18h3.995v3.76c0.907-1.48 1.997-2.58 3.257-3.28 1.27-0.71 2.77-1.06 4.52-1.06s3.25 0.44 4.48 1.34c1.23 0.89 2.14 2.18 2.73 3.88zm35.26 7.39c-3.21 0-5.44 0.36-6.68 1.1-1.23 0.73-1.85 1.99-1.85 3.76 0 1.41 0.46 2.53 1.39 3.35 0.93 0.83 2.19 1.24 3.79 1.24 2.2 0 3.97-0.78 5.3-2.34s2-3.64 2-6.23v-0.88h-3.95zm7.92-1.64v13.79h-3.97v-3.67c-0.91 1.47-2.04 2.55-3.39 3.25-1.36 0.7-3.01 1.05-4.97 1.05-2.47 0-4.44-0.69-5.9-2.08s-2.19-3.25-2.19-5.59c0-2.72 0.91-4.77 2.73-6.15s4.53-2.07 8.15-2.07h5.57v-0.39c0-1.83-0.6-3.24-1.81-4.24-1.2-1-2.88-1.5-5.06-1.5-1.38 0-2.73 0.16-4.04 0.49s-2.57 0.83-3.77 1.49v-3.67c1.45-0.56 2.86-0.98 4.23-1.26 1.36-0.28 2.7-0.42 3.99-0.42 3.5 0 6.11 0.91 7.84 2.72s2.59 4.56 2.59 8.25zm8.21-10.39h3.97v24.18h-3.97v-24.18zm0-9.41h3.97v5.03h-3.97v-5.03zm12.26 0h3.97v33.59h-3.97v-33.59z"/>
  </g>
  <metadata>
    <rdf:RDF>
      <cc:Work>
        <dc:format>image/svg+xml</dc:format>
        <dc:type rdf:resource="http://purl.org/dc/dcmitype/StillImage"/>
        <cc:license rdf:resource="http://creativecommons.org/licenses/publicdomain/"/>
        <dc:publisher>
          <cc:Agent rdf:about="http://openclipart.org/">
            <dc:title>Openclipart</dc:title>
          </cc:Agent>
        </dc:publisher>
        <dc:title>personal information</dc:title>
        <dc:date>2007-11-19T11:56:27</dc:date>
        <dc:description/>
        <dc:source>https://openclipart.org/detail/10762/personal-information-by-hawk88</dc:source>
        <dc:creator>
          <cc:Agent>
            <dc:title>hawk88</dc:title>
          </cc:Agent>
        </dc:creator>
        <dc:subject>
          <rdf:Bag>
            <rdf:li>form</rdf:li>
            <rdf:li>personal information</rdf:li>
            <rdf:li>settings</rdf:li>
          </rdf:Bag>
        </dc:subject>
      </cc:Work>
      <cc:License rdf:about="http://creativecommons.org/licenses/publicdomain/">
        <cc:permits rdf:resource="http://creativecommons.org/ns#Reproduction"/>
        <cc:permits rdf:resource="http://creativecommons.org/ns#Distribution"/>
        <cc:permits rdf:resource="http://creativecommons.org/ns#DerivativeWorks"/>
      </cc:License>
    </rdf:RDF>
  </metadata>
</svg>