<?xml version="1.0" encoding="UTF-8" standalone="no"?>
<!-- Created with Inkscape (http://www.inkscape.org/) -->

<svg
   width="512"
   height="512"
   viewBox="0 0 512 512"
   version="1.1"
   id="svg1"
   xml:space="preserve"
   sodipodi:docname="LabelTranslationsEditor.svg"
   inkscape:version="1.3.2 (091e20e, 2023-11-25, custom)"
   xmlns:inkscape="http://www.inkscape.org/namespaces/inkscape"
   xmlns:sodipodi="http://sodipodi.sourceforge.net/DTD/sodipodi-0.dtd"
   xmlns="http://www.w3.org/2000/svg"
   xmlns:svg="http://www.w3.org/2000/svg"><sodipodi:namedview
     id="namedview1"
     pagecolor="#ffffff"
     bordercolor="#000000"
     borderopacity="0.25"
     inkscape:showpageshadow="2"
     inkscape:pageopacity="0.0"
     inkscape:pagecheckerboard="0"
     inkscape:deskcolor="#d1d1d1"
     inkscape:document-units="px"
     inkscape:zoom="1.9794753"
     inkscape:cx="239.45739"
     inkscape:cy="252.84478"
     inkscape:window-width="2560"
     inkscape:window-height="1346"
     inkscape:window-x="-11"
     inkscape:window-y="-11"
     inkscape:window-maximized="1"
     inkscape:current-layer="layer1" /><defs
     id="defs1"><filter
       id="Adobe_OpacityMaskFilter"
       height="473"
       width="473"
       y="29.773"
       x="22.249"
       filterUnits="userSpaceOnUse">
				<feColorMatrix
   values="1 0 0 0 0  0 1 0 0 0  0 0 1 0 0  0 0 0 1 0"
   type="matrix"
   id="feColorMatrix1" />
			</filter><filter
       id="Adobe_OpacityMaskFilter_1_"
       height="232.02"
       width="232.02"
       y="20.701"
       x="498.22"
       filterUnits="userSpaceOnUse">
					<feColorMatrix
   values="1 0 0 0 0  0 1 0 0 0  0 0 1 0 0  0 0 0 1 0"
   type="matrix"
   id="feColorMatrix18" />
				</filter><filter
       id="Adobe_OpacityMaskFilter_2_"
       height="232.02"
       width="232.02"
       y="272.22"
       x="498.22"
       filterUnits="userSpaceOnUse">
					<feColorMatrix
   values="1 0 0 0 0  0 1 0 0 0  0 0 1 0 0  0 0 0 1 0"
   type="matrix"
   id="feColorMatrix36" />
				</filter><filter
       id="Adobe_OpacityMaskFilter_3_"
       height="232.02"
       width="232.02"
       y="20.701"
       x="746.82"
       filterUnits="userSpaceOnUse">
					<feColorMatrix
   values="1 0 0 0 0  0 1 0 0 0  0 0 1 0 0  0 0 0 1 0"
   type="matrix"
   id="feColorMatrix54" />
				</filter><filter
       id="Adobe_OpacityMaskFilter_4_"
       height="232.02"
       width="232.02"
       y="272.22"
       x="746.82"
       filterUnits="userSpaceOnUse">
					<feColorMatrix
   values="1 0 0 0 0  0 1 0 0 0  0 0 1 0 0  0 0 0 1 0"
   type="matrix"
   id="feColorMatrix72" />
				</filter></defs><g
     inkscape:label="Layer 1"
     inkscape:groupmode="layer"
     id="layer1"><g
       id="g2"
       transform="matrix(-0.50648161,0,0,0.50648161,505.89649,246.05233)"
       style="opacity:1"><circle
         mask="url(#SVGID_1_)"
         cy="266.26999"
         cx="258.75"
         r="236.5"
         id="circle3-5" /><circle
         cy="252.42"
         cx="258.75"
         r="238.64999"
         fill="#ffffff"
         id="circle4-1" /><circle
         cy="252.42"
         cx="258.75"
         r="236.78"
         fill="url(#SVGID_3_)"
         id="circle8-8" /><path
         d="m 258.75,36.909 c -119.02,0 -215.51,96.485 -215.51,215.51 0,119.025 96.485,215.51 215.51,215.51 119.02,0 215.51,-96.485 215.51,-215.51 0,-119.025 -96.49,-215.51 -215.51,-215.51 z m 0,413.07 c -109.11,0 -197.57,-88.454 -197.57,-197.57 0,-109.116 88.46,-197.56 197.57,-197.56 109.11,0 197.57,88.454 197.57,197.57 0,109.116 -88.46,197.56 -197.57,197.56 z"
         fill="#b00000"
         id="path8-3" /><path
         d="m 258.75,37.909 c 28.959,0 57.05,5.671 83.495,16.857 25.543,10.804 48.483,26.271 68.184,45.971 19.7,19.7 35.167,42.64 45.971,68.184 11.185,26.445 16.857,54.537 16.857,83.495 0,28.958 -5.671,57.05 -16.857,83.495 -10.804,25.543 -26.271,48.483 -45.971,68.184 -19.7,19.7 -42.64,35.167 -68.184,45.971 -26.445,11.185 -54.537,16.857 -83.495,16.857 -28.958,0 -57.05,-5.671 -83.495,-16.857 -25.543,-10.804 -48.483,-26.271 -68.183,-45.971 -19.7,-19.7 -35.167,-42.64 -45.971,-68.184 -11.185,-26.445 -16.857,-54.537 -16.857,-83.495 0,-28.958 5.671,-57.05 16.857,-83.495 10.804,-25.543 26.271,-48.483 45.971,-68.184 19.7,-19.7 42.64,-35.167 68.183,-45.971 26.46,-11.189 54.55,-16.86 83.51,-16.86 z m 0,413.07 c 109.49,0 198.57,-89.077 198.57,-198.57 0,-109.493 -89.08,-198.56 -198.57,-198.56 -109.49,0 -198.57,89.07 -198.57,198.57 0,109.5 89.08,198.56 198.57,198.56 z m 0,-414.07 c -119.02,0 -215.51,96.485 -215.51,215.51 0,119.025 96.485,215.51 215.51,215.51 119.025,0 215.51,-96.485 215.51,-215.51 0,-119.025 -96.49,-215.51 -215.51,-215.51 v -10e-4 z m 0,413.07 c -109.11,0 -197.57,-88.454 -197.57,-197.57 0,-109.116 88.46,-197.56 197.57,-197.56 109.11,0 197.57,88.454 197.57,197.57 0,109.116 -88.46,197.56 -197.57,197.56 z"
         fill="url(#SVGID_4_)"
         id="path13-5" /><circle
         cy="249.33"
         cx="258.75"
         r="191.64999"
         fill="#ffffff"
         id="circle13-6" /><circle
         cy="252.38"
         cx="258.75"
         r="191.64999"
         fill="url(#SVGID_5_)"
         id="circle18-9" /><circle
         mask="url(#SVGID_6_)"
         cy="136.71001"
         cx="614.22998"
         r="116.01"
         id="circle21-7" /><circle
         cy="129.92"
         cx="614.22998"
         r="117.06"
         fill="#ffffff"
         id="circle22-9" /><circle
         cy="129.92"
         cx="614.22998"
         r="116.15"
         fill="url(#SVGID_8_)"
         id="circle26-8" /><path
         d="m 614.23,24.202 c -58.384,0 -105.71,47.329 -105.71,105.71 0,58.381 47.329,105.71 105.71,105.71 58.381,0 105.71,-47.329 105.71,-105.71 0,-58.381 -47.32,-105.71 -105.71,-105.71 z m 0,202.63 c -53.524,0 -96.914,-43.39 -96.914,-96.914 0,-53.524 43.39,-96.914 96.914,-96.914 53.524,0 96.914,43.39 96.914,96.914 0,53.524 -43.38,96.91 -96.91,96.91 z"
         fill="#0075ce"
         id="path26-9" /><path
         d="m 614.23,25.202 c 57.739,0 104.71,46.974 104.71,104.71 0,57.736 -46.974,104.71 -104.71,104.71 -57.736,0 -104.71,-46.97 -104.71,-104.7 0,-57.73 46.97,-104.72 104.71,-104.72 v 0.002 z m 0,202.63 c 53.99,0 97.914,-43.924 97.914,-97.914 0,-53.99 -43.924,-97.914 -97.914,-97.914 -53.99,0 -97.914,43.924 -97.914,97.914 0,53.99 43.92,97.91 97.91,97.91 z m 0,-203.63 c -58.384,0 -105.71,47.329 -105.71,105.71 0,58.381 47.329,105.71 105.71,105.71 58.381,0 105.71,-47.329 105.71,-105.71 0,-58.381 -47.32,-105.71 -105.71,-105.71 v 0.002 z m 0,202.63 c -53.524,0 -96.914,-43.39 -96.914,-96.914 0,-53.524 43.39,-96.914 96.914,-96.914 53.524,0 96.914,43.39 96.914,96.914 0,53.524 -43.38,96.91 -96.91,96.91 z"
         fill="url(#SVGID_9_)"
         id="path31-1" /><circle
         cy="128.39999"
         cx="614.22998"
         r="94.012001"
         fill="#ffffff"
         id="circle31-6" /><circle
         cy="129.89999"
         cx="614.22998"
         r="94.012001"
         fill="url(#SVGID_10_)"
         id="circle36-1" /><circle
         mask="url(#SVGID_11_)"
         cy="388.23001"
         cx="614.22998"
         r="116.01"
         id="circle39-1" /><circle
         cy="381.42999"
         cx="614.22998"
         r="117.06"
         fill="#ffffff"
         id="circle40-0" /><circle
         cy="381.42999"
         cx="614.22998"
         r="116.15"
         fill="url(#SVGID_13_)"
         id="circle44-6" /><path
         d="m 614.23,275.72 c -58.384,0 -105.71,47.329 -105.71,105.71 0,58.381 47.329,105.71 105.71,105.71 58.381,0 105.71,-47.329 105.71,-105.71 0,-58.381 -47.32,-105.71 -105.71,-105.71 z m 0,202.62 c -53.524,0 -96.914,-43.39 -96.914,-96.914 0,-53.524 43.39,-96.914 96.914,-96.914 53.524,0 96.914,43.39 96.914,96.914 0,53.524 -43.38,96.91 -96.91,96.91 z"
         fill="#e2a600"
         id="path44-7" /><path
         d="m 614.23,276.72 c 57.739,0 104.71,46.974 104.71,104.71 0,57.736 -46.974,104.71 -104.71,104.71 -57.736,0 -104.71,-46.97 -104.71,-104.71 0,-57.74 46.97,-104.71 104.71,-104.71 z m 0,202.62 c 53.99,0 97.914,-43.924 97.914,-97.914 0,-53.99 -43.924,-97.914 -97.914,-97.914 -53.99,0 -97.914,43.924 -97.914,97.914 0,53.99 43.92,97.91 97.91,97.91 z m 0,-203.62 c -58.384,0 -105.71,47.329 -105.71,105.71 0,58.381 47.329,105.71 105.71,105.71 58.381,0 105.71,-47.329 105.71,-105.71 0,-58.381 -47.32,-105.71 -105.71,-105.71 z m 0,202.62 c -53.524,0 -96.914,-43.39 -96.914,-96.914 0,-53.524 43.39,-96.914 96.914,-96.914 53.524,0 96.914,43.39 96.914,96.914 0,53.524 -43.38,96.91 -96.91,96.91 z"
         fill="url(#SVGID_14_)"
         id="path49-5" /><circle
         cy="379.92001"
         cx="614.22998"
         r="94.012001"
         fill="#ffffff"
         id="circle49-3" /><circle
         cy="381.41"
         cx="614.22998"
         r="94.012001"
         fill="url(#SVGID_15_)"
         id="circle54-4" /><circle
         mask="url(#SVGID_16_)"
         cy="136.71001"
         cx="862.83002"
         r="116.01"
         id="circle57-1" /><circle
         cy="129.92"
         cx="862.83002"
         r="117.06"
         fill="#ffffff"
         id="circle58-0" /><circle
         cy="129.92"
         cx="862.83002"
         r="116.15"
         fill="url(#SVGID_18_)"
         id="circle62-0" /><path
         d="m 862.83,24.202 c -58.384,0 -105.71,47.329 -105.71,105.71 0,58.381 47.329,105.71 105.71,105.71 58.384,0 105.71,-47.329 105.71,-105.71 0,-58.381 -47.32,-105.71 -105.71,-105.71 z m 0,202.63 c -53.524,0 -96.914,-43.39 -96.914,-96.914 0,-53.524 43.39,-96.914 96.914,-96.914 53.524,0 96.914,43.39 96.914,96.914 0,53.524 -43.38,96.91 -96.91,96.91 z"
         fill="#5bb000"
         id="path62-1" /><path
         d="m 862.83,25.202 c 57.739,0 104.71,46.974 104.71,104.71 0,57.736 -46.974,104.71 -104.71,104.71 -57.736,0 -104.71,-46.974 -104.71,-104.71 0,-57.736 46.98,-104.71 104.71,-104.71 v 0.002 z m 0,202.63 c 53.99,0 97.914,-43.924 97.914,-97.914 0,-53.99 -43.924,-97.914 -97.914,-97.914 -53.99,0 -97.914,43.924 -97.914,97.914 0,53.99 43.92,97.91 97.91,97.91 z m 0,-203.63 c -58.384,0 -105.71,47.329 -105.71,105.71 0,58.381 47.329,105.71 105.71,105.71 58.384,0 105.71,-47.329 105.71,-105.71 0,-58.381 -47.32,-105.71 -105.71,-105.71 v 0.002 z m 0,202.63 c -53.524,0 -96.914,-43.39 -96.914,-96.914 0,-53.524 43.39,-96.914 96.914,-96.914 53.524,0 96.914,43.39 96.914,96.914 0,53.524 -43.38,96.91 -96.91,96.91 z"
         fill="url(#SVGID_19_)"
         id="path67-0" /><circle
         cy="128.39999"
         cx="862.83002"
         r="94.012001"
         fill="#ffffff"
         id="circle67-1" /><circle
         cy="129.89999"
         cx="862.83002"
         r="94.012001"
         fill="url(#SVGID_20_)"
         id="circle72-0" /><circle
         mask="url(#SVGID_21_)"
         cy="388.23001"
         cx="862.83002"
         r="116.01"
         id="circle75-5" /><circle
         cy="381.42999"
         cx="862.83002"
         r="117.06"
         fill="#ffffff"
         id="circle76-3" /><circle
         cy="381.42999"
         cx="862.83002"
         r="116.15"
         fill="url(#SVGID_23_)"
         id="circle80-9" /><path
         d="m 862.83,275.72 c -58.384,0 -105.71,47.329 -105.71,105.71 0,58.381 47.329,105.71 105.71,105.71 58.384,0 105.71,-47.329 105.71,-105.71 0,-58.381 -47.32,-105.71 -105.71,-105.71 z m 0,202.62 c -53.524,0 -96.914,-43.39 -96.914,-96.914 0,-53.524 43.39,-96.914 96.914,-96.914 53.524,0 96.914,43.39 96.914,96.914 0,53.524 -43.38,96.91 -96.91,96.91 z"
         fill="#c4c4c4"
         id="path80-9" /><path
         d="m 862.83,276.72 c 57.739,0 104.71,46.974 104.71,104.71 0,57.736 -46.974,104.71 -104.71,104.71 -57.736,0 -104.71,-46.974 -104.71,-104.71 0,-57.736 46.98,-104.71 104.71,-104.71 z m 0,202.62 c 53.99,0 97.914,-43.924 97.914,-97.914 0,-53.99 -43.924,-97.914 -97.914,-97.914 -53.99,0 -97.914,43.924 -97.914,97.914 0,53.99 43.92,97.91 97.91,97.91 z m 0,-203.62 c -58.384,0 -105.71,47.329 -105.71,105.71 0,58.381 47.329,105.71 105.71,105.71 58.384,0 105.71,-47.329 105.71,-105.71 0,-58.381 -47.32,-105.71 -105.71,-105.71 z m 0,202.62 c -53.524,0 -96.914,-43.39 -96.914,-96.914 0,-53.524 43.39,-96.914 96.914,-96.914 53.524,0 96.914,43.39 96.914,96.914 0,53.524 -43.38,96.91 -96.91,96.91 z"
         fill="url(#SVGID_24_)"
         id="path85-9" /><circle
         cy="379.92001"
         cx="862.83002"
         r="94.012001"
         fill="#ffffff"
         id="circle85-8" /><circle
         cy="381.41"
         cx="862.83002"
         r="94.012001"
         fill="url(#SVGID_25_)"
         id="circle90-4" /></g><g
       transform="matrix(0.45262933,0,0,0.45262933,391.39061,307.8763)"
       id="layer1-6"
       style="opacity:0.789916"><g
         id="text4491"
         style="font-style:normal;font-variant:normal;font-weight:normal;font-stretch:normal;font-size:35.3172px;line-height:1.25;font-family:'OCR A Extended';-inkscape-font-specification:'OCR A Extended';letter-spacing:0px;word-spacing:0px;fill:#ffffff;fill-opacity:1;stroke:none;stroke-width:0.882929"
         transform="scale(1.1091509,0.90159054)"
         aria-label="文" /><g
         id="g4198"><rect
           style="opacity:1;fill:#44aa00;fill-opacity:1;stroke:#363639;stroke-width:9;stroke-linecap:round;stroke-linejoin:bevel;stroke-miterlimit:4;stroke-dasharray:none;stroke-dashoffset:1.21209;stroke-opacity:1"
           id="rect4507"
           width="296.33334"
           height="257.0238"
           x="-186.26665"
           y="17.826782"
           ry="43.089287" /><g
           aria-label="A"
           transform="matrix(1.0940439,0,0,1.1027958,5.8452604,-9.2258875)"
           style="font-style:normal;font-variant:normal;font-weight:normal;font-stretch:normal;font-size:77.6748px;line-height:1.25;font-family:'OCR A Extended';-inkscape-font-specification:'OCR A Extended';letter-spacing:0px;word-spacing:0px;fill:#ffffff;fill-opacity:1;stroke:none;stroke-width:1.94187"
           id="text4487"><path
             d="m -77.291825,131.4084 -2.237701,9.86105 h -17.636118 l 14.070968,-57.876804 h 24.842274 l 13.350351,57.876804 h -17.446482 l -2.275628,-9.86105 z m 3.110026,-13.57791 h 6.447613 l -3.18588,-14.14683 z"
             style="font-style:normal;font-variant:normal;font-weight:normal;font-stretch:normal;font-family:'Gill Sans Ultra Bold Condensed';-inkscape-font-specification:'Gill Sans Ultra Bold Condensed, ';fill:#ffffff;stroke-width:1.94187"
             id="path4512" /></g><g
           id="text4189"
           style="font-style:normal;font-variant:normal;font-weight:normal;font-stretch:normal;font-size:15.3368px;line-height:125%;font-family:sans-serif;-inkscape-font-specification:'OCR A Extended';letter-spacing:0px;word-spacing:0px;fill:#ffffff;fill-opacity:1;stroke:none;stroke-width:1px;stroke-linecap:butt;stroke-linejoin:miter;stroke-opacity:1"
           transform="scale(1.0012357,0.99876577)"><path
             id="path4194"
             style="font-style:normal;font-variant:normal;font-weight:800;font-stretch:normal;font-size:69.0154px;font-family:'Hiragino Kaku Gothic Std';-inkscape-font-specification:'Hiragino Kaku Gothic Std Ultra-Bold';fill:#ffffff;fill-opacity:1"
             d="m 27.998154,196.55614 c -0.138031,1.38031 -0.345077,2.34652 -0.8972,3.93388 -1.380308,-0.13803 -1.932431,-0.13803 -3.243724,-0.13803 -2.346523,0 -3.588801,0.13803 -6.694493,0.62113 0.06902,-1.44932 0.06902,-1.65637 0.06902,-2.07046 0.06902,-1.17326 0.06902,-1.17326 0.138031,-1.86341 6.901539,-0.27607 17.39188,-1.10425 24.017358,-2.07047 1.587354,-0.20704 1.863415,-0.20704 2.967662,-0.27606 L 43.8717,183.51223 c -5.590247,1.58735 -14.700279,2.82963 -25.880774,3.45077 0.414093,-4.07191 0.552124,-5.17616 1.104247,-7.24662 L 7.2245196,179.23327 c 0.1380308,0.96622 0.1380308,1.51834 0.1380308,2.89865 0,0.75917 0,1.51834 -0.069015,2.20849 -0.1380308,2.07046 -0.1380308,2.07046 -0.2070462,2.96767 l -0.9662156,0.069 H 5.7061813 c -5.31418555,0 -8.8339707,-0.27606 -12.8368637,-1.03523 l 0.1380308,10.90443 c 0.9662155,-0.069 1.2422771,-0.069 2.2084926,-0.069 1.2422772,0 2.3465235,0 3.3817545,0.069 5.1071393,0.069 5.1071393,0.069 8.0748013,0.13803 -0.069015,2.96767 -0.069015,3.65782 -0.069015,6.00434 -4.2789546,1.7944 -6.83252421,3.51979 -9.5931401,6.2804 -4.4860007,4.486 -6.9015396,10.14527 -6.9015396,16.01158 0,8.62692 5.1761547,14.07914 13.3199715,14.07914 5.2451701,0 11.2495094,-2.6916 16.0115724,-7.17761 1.587354,2.62259 2.760616,5.38321 3.864862,9.11004 6.418432,-0.62114 10.214278,-1.51834 13.94111,-3.17471 8.350863,-3.72683 12.974894,-10.42133 12.974894,-18.77219 0,-5.24517 -1.863415,-9.59314 -5.659262,-12.97489 -2.070462,-1.86342 -4.002893,-2.89865 -6.970555,-3.86487 0.483108,-1.31129 0.966215,-2.48455 1.449323,-3.45077 l -11.042463,-2.89864 z m -6.00434,33.74853 c 5.10714,-5.03813 8.902986,-10.62837 12.077695,-18.01302 3.105692,1.58735 4.416985,3.51978 4.416985,6.62548 0,3.79584 -2.55357,7.38464 -6.556463,9.24806 -2.622585,1.24228 -5.383201,1.7944 -9.938217,2.13948 z M 6.7414118,214.91423 c 0.069015,4.9001 0.4140924,8.97201 1.0352309,12.49179 -1.3112925,0.8972 -2.4845542,1.31129 -3.7958467,1.31129 -1.9324311,0 -2.9676621,-1.44932 -2.9676621,-4.00289 0,-3.79585 2.0014465,-7.1776 5.7282779,-9.80019 z m 10.3523092,-4.76206 c 1.863416,-0.55212 3.45077,-0.75917 5.452217,-0.75917 0.621138,0 0.828184,0 1.449323,0.069 -1.311293,3.24372 -3.864862,7.45366 -6.487447,10.62837 -0.345077,-3.45077 -0.414093,-5.45222 -0.414093,-9.93822 z" /></g><g
           id="g4499"
           transform="rotate(-14.6,-97.83872,129.2038)"
           style="fill:none;stroke:#ffffff;stroke-opacity:1"><path
             id="path4493"
             d="M -89.958332,229.72024 C -145.64682,213.84524 -153.71031,185.875 -141.36309,132.20238"
             style="fill:none;stroke:#ffffff;stroke-width:9;stroke-linecap:round;stroke-linejoin:bevel;stroke-miterlimit:4;stroke-dasharray:none;stroke-opacity:1" /><path
             id="path4495"
             d="m -89.958332,188.14285 2e-6,41.57739 -46.1131,12.85119"
             style="fill:none;stroke:#ffffff;stroke-width:9;stroke-linecap:round;stroke-linejoin:bevel;stroke-miterlimit:4;stroke-dasharray:none;stroke-opacity:1" /></g><g
           transform="rotate(162,-43.962102,152.48414)"
           id="g4505"
           style="fill:none;stroke:#ffffff;stroke-opacity:1"><path
             style="fill:none;stroke:#ffffff;stroke-width:9;stroke-linecap:round;stroke-linejoin:bevel;stroke-miterlimit:4;stroke-dasharray:none;stroke-opacity:1"
             d="M -89.958332,229.72024 C -145.64682,213.84524 -153.71031,185.875 -141.36309,132.20238"
             id="path4501" /><path
             style="fill:none;stroke:#ffffff;stroke-width:9;stroke-linecap:round;stroke-linejoin:bevel;stroke-miterlimit:4;stroke-dasharray:none;stroke-opacity:1"
             d="m -89.958332,188.14285 2e-6,41.57739 -46.1131,12.85119"
             id="path4503" /></g></g></g><g
       id="g1"
       transform="matrix(0.50648161,0,0,0.50648161,1.9328155,-4.6630213)"><circle
         mask="url(#SVGID_1_)"
         cy="266.26999"
         cx="258.75"
         r="236.5"
         id="circle3" /><circle
         cy="252.42"
         cx="258.75"
         r="238.64999"
         fill="#ffffff"
         id="circle4" /><circle
         cy="252.42"
         cx="258.75"
         r="236.78"
         fill="url(#SVGID_3_)"
         id="circle8" /><path
         d="m 258.75,36.909 c -119.02,0 -215.51,96.485 -215.51,215.51 0,119.025 96.485,215.51 215.51,215.51 119.02,0 215.51,-96.485 215.51,-215.51 0,-119.025 -96.49,-215.51 -215.51,-215.51 z m 0,413.07 c -109.11,0 -197.57,-88.454 -197.57,-197.57 0,-109.116 88.46,-197.56 197.57,-197.56 109.11,0 197.57,88.454 197.57,197.57 0,109.116 -88.46,197.56 -197.57,197.56 z"
         fill="#b00000"
         id="path8" /><path
         d="m 258.75,37.909 c 28.959,0 57.05,5.671 83.495,16.857 25.543,10.804 48.483,26.271 68.184,45.971 19.7,19.7 35.167,42.64 45.971,68.184 11.185,26.445 16.857,54.537 16.857,83.495 0,28.958 -5.671,57.05 -16.857,83.495 -10.804,25.543 -26.271,48.483 -45.971,68.184 -19.7,19.7 -42.64,35.167 -68.184,45.971 -26.445,11.185 -54.537,16.857 -83.495,16.857 -28.958,0 -57.05,-5.671 -83.495,-16.857 -25.543,-10.804 -48.483,-26.271 -68.183,-45.971 -19.7,-19.7 -35.167,-42.64 -45.971,-68.184 -11.185,-26.445 -16.857,-54.537 -16.857,-83.495 0,-28.958 5.671,-57.05 16.857,-83.495 10.804,-25.543 26.271,-48.483 45.971,-68.184 19.7,-19.7 42.64,-35.167 68.183,-45.971 26.46,-11.189 54.55,-16.86 83.51,-16.86 z m 0,413.07 c 109.49,0 198.57,-89.077 198.57,-198.57 0,-109.493 -89.08,-198.56 -198.57,-198.56 -109.49,0 -198.57,89.07 -198.57,198.57 0,109.5 89.08,198.56 198.57,198.56 z m 0,-414.07 c -119.02,0 -215.51,96.485 -215.51,215.51 0,119.025 96.485,215.51 215.51,215.51 119.025,0 215.51,-96.485 215.51,-215.51 0,-119.025 -96.49,-215.51 -215.51,-215.51 v -10e-4 z m 0,413.07 c -109.11,0 -197.57,-88.454 -197.57,-197.57 0,-109.116 88.46,-197.56 197.57,-197.56 109.11,0 197.57,88.454 197.57,197.57 0,109.116 -88.46,197.56 -197.57,197.56 z"
         fill="url(#SVGID_4_)"
         id="path13" /><circle
         cy="249.33"
         cx="258.75"
         r="191.64999"
         fill="#ffffff"
         id="circle13" /><circle
         cy="252.38"
         cx="258.75"
         r="191.64999"
         fill="url(#SVGID_5_)"
         id="circle18" /><circle
         mask="url(#SVGID_6_)"
         cy="136.71001"
         cx="614.22998"
         r="116.01"
         id="circle21" /><circle
         cy="129.92"
         cx="614.22998"
         r="117.06"
         fill="#ffffff"
         id="circle22" /><circle
         cy="129.92"
         cx="614.22998"
         r="116.15"
         fill="url(#SVGID_8_)"
         id="circle26" /><path
         d="m 614.23,24.202 c -58.384,0 -105.71,47.329 -105.71,105.71 0,58.381 47.329,105.71 105.71,105.71 58.381,0 105.71,-47.329 105.71,-105.71 0,-58.381 -47.32,-105.71 -105.71,-105.71 z m 0,202.63 c -53.524,0 -96.914,-43.39 -96.914,-96.914 0,-53.524 43.39,-96.914 96.914,-96.914 53.524,0 96.914,43.39 96.914,96.914 0,53.524 -43.38,96.91 -96.91,96.91 z"
         fill="#0075ce"
         id="path26" /><path
         d="m 614.23,25.202 c 57.739,0 104.71,46.974 104.71,104.71 0,57.736 -46.974,104.71 -104.71,104.71 -57.736,0 -104.71,-46.97 -104.71,-104.7 0,-57.73 46.97,-104.72 104.71,-104.72 v 0.002 z m 0,202.63 c 53.99,0 97.914,-43.924 97.914,-97.914 0,-53.99 -43.924,-97.914 -97.914,-97.914 -53.99,0 -97.914,43.924 -97.914,97.914 0,53.99 43.92,97.91 97.91,97.91 z m 0,-203.63 c -58.384,0 -105.71,47.329 -105.71,105.71 0,58.381 47.329,105.71 105.71,105.71 58.381,0 105.71,-47.329 105.71,-105.71 0,-58.381 -47.32,-105.71 -105.71,-105.71 v 0.002 z m 0,202.63 c -53.524,0 -96.914,-43.39 -96.914,-96.914 0,-53.524 43.39,-96.914 96.914,-96.914 53.524,0 96.914,43.39 96.914,96.914 0,53.524 -43.38,96.91 -96.91,96.91 z"
         fill="url(#SVGID_9_)"
         id="path31" /><circle
         cy="128.39999"
         cx="614.22998"
         r="94.012001"
         fill="#ffffff"
         id="circle31" /><circle
         cy="129.89999"
         cx="614.22998"
         r="94.012001"
         fill="url(#SVGID_10_)"
         id="circle36" /><circle
         mask="url(#SVGID_11_)"
         cy="388.23001"
         cx="614.22998"
         r="116.01"
         id="circle39" /><circle
         cy="381.42999"
         cx="614.22998"
         r="117.06"
         fill="#ffffff"
         id="circle40" /><circle
         cy="381.42999"
         cx="614.22998"
         r="116.15"
         fill="url(#SVGID_13_)"
         id="circle44" /><path
         d="m 614.23,275.72 c -58.384,0 -105.71,47.329 -105.71,105.71 0,58.381 47.329,105.71 105.71,105.71 58.381,0 105.71,-47.329 105.71,-105.71 0,-58.381 -47.32,-105.71 -105.71,-105.71 z m 0,202.62 c -53.524,0 -96.914,-43.39 -96.914,-96.914 0,-53.524 43.39,-96.914 96.914,-96.914 53.524,0 96.914,43.39 96.914,96.914 0,53.524 -43.38,96.91 -96.91,96.91 z"
         fill="#e2a600"
         id="path44" /><path
         d="m 614.23,276.72 c 57.739,0 104.71,46.974 104.71,104.71 0,57.736 -46.974,104.71 -104.71,104.71 -57.736,0 -104.71,-46.97 -104.71,-104.71 0,-57.74 46.97,-104.71 104.71,-104.71 z m 0,202.62 c 53.99,0 97.914,-43.924 97.914,-97.914 0,-53.99 -43.924,-97.914 -97.914,-97.914 -53.99,0 -97.914,43.924 -97.914,97.914 0,53.99 43.92,97.91 97.91,97.91 z m 0,-203.62 c -58.384,0 -105.71,47.329 -105.71,105.71 0,58.381 47.329,105.71 105.71,105.71 58.381,0 105.71,-47.329 105.71,-105.71 0,-58.381 -47.32,-105.71 -105.71,-105.71 z m 0,202.62 c -53.524,0 -96.914,-43.39 -96.914,-96.914 0,-53.524 43.39,-96.914 96.914,-96.914 53.524,0 96.914,43.39 96.914,96.914 0,53.524 -43.38,96.91 -96.91,96.91 z"
         fill="url(#SVGID_14_)"
         id="path49" /><circle
         cy="379.92001"
         cx="614.22998"
         r="94.012001"
         fill="#ffffff"
         id="circle49" /><circle
         cy="381.41"
         cx="614.22998"
         r="94.012001"
         fill="url(#SVGID_15_)"
         id="circle54" /><circle
         mask="url(#SVGID_16_)"
         cy="136.71001"
         cx="862.83002"
         r="116.01"
         id="circle57" /><circle
         cy="129.92"
         cx="862.83002"
         r="117.06"
         fill="#ffffff"
         id="circle58" /><circle
         cy="129.92"
         cx="862.83002"
         r="116.15"
         fill="url(#SVGID_18_)"
         id="circle62" /><path
         d="m 862.83,24.202 c -58.384,0 -105.71,47.329 -105.71,105.71 0,58.381 47.329,105.71 105.71,105.71 58.384,0 105.71,-47.329 105.71,-105.71 0,-58.381 -47.32,-105.71 -105.71,-105.71 z m 0,202.63 c -53.524,0 -96.914,-43.39 -96.914,-96.914 0,-53.524 43.39,-96.914 96.914,-96.914 53.524,0 96.914,43.39 96.914,96.914 0,53.524 -43.38,96.91 -96.91,96.91 z"
         fill="#5bb000"
         id="path62" /><path
         d="m 862.83,25.202 c 57.739,0 104.71,46.974 104.71,104.71 0,57.736 -46.974,104.71 -104.71,104.71 -57.736,0 -104.71,-46.974 -104.71,-104.71 0,-57.736 46.98,-104.71 104.71,-104.71 v 0.002 z m 0,202.63 c 53.99,0 97.914,-43.924 97.914,-97.914 0,-53.99 -43.924,-97.914 -97.914,-97.914 -53.99,0 -97.914,43.924 -97.914,97.914 0,53.99 43.92,97.91 97.91,97.91 z m 0,-203.63 c -58.384,0 -105.71,47.329 -105.71,105.71 0,58.381 47.329,105.71 105.71,105.71 58.384,0 105.71,-47.329 105.71,-105.71 0,-58.381 -47.32,-105.71 -105.71,-105.71 v 0.002 z m 0,202.63 c -53.524,0 -96.914,-43.39 -96.914,-96.914 0,-53.524 43.39,-96.914 96.914,-96.914 53.524,0 96.914,43.39 96.914,96.914 0,53.524 -43.38,96.91 -96.91,96.91 z"
         fill="url(#SVGID_19_)"
         id="path67" /><circle
         cy="128.39999"
         cx="862.83002"
         r="94.012001"
         fill="#ffffff"
         id="circle67" /><circle
         cy="129.89999"
         cx="862.83002"
         r="94.012001"
         fill="url(#SVGID_20_)"
         id="circle72" /><circle
         mask="url(#SVGID_21_)"
         cy="388.23001"
         cx="862.83002"
         r="116.01"
         id="circle75" /><circle
         cy="381.42999"
         cx="862.83002"
         r="117.06"
         fill="#ffffff"
         id="circle76" /><circle
         cy="381.42999"
         cx="862.83002"
         r="116.15"
         fill="url(#SVGID_23_)"
         id="circle80" /><path
         d="m 862.83,275.72 c -58.384,0 -105.71,47.329 -105.71,105.71 0,58.381 47.329,105.71 105.71,105.71 58.384,0 105.71,-47.329 105.71,-105.71 0,-58.381 -47.32,-105.71 -105.71,-105.71 z m 0,202.62 c -53.524,0 -96.914,-43.39 -96.914,-96.914 0,-53.524 43.39,-96.914 96.914,-96.914 53.524,0 96.914,43.39 96.914,96.914 0,53.524 -43.38,96.91 -96.91,96.91 z"
         fill="#c4c4c4"
         id="path80" /><path
         d="m 862.83,276.72 c 57.739,0 104.71,46.974 104.71,104.71 0,57.736 -46.974,104.71 -104.71,104.71 -57.736,0 -104.71,-46.974 -104.71,-104.71 0,-57.736 46.98,-104.71 104.71,-104.71 z m 0,202.62 c 53.99,0 97.914,-43.924 97.914,-97.914 0,-53.99 -43.924,-97.914 -97.914,-97.914 -53.99,0 -97.914,43.924 -97.914,97.914 0,53.99 43.92,97.91 97.91,97.91 z m 0,-203.62 c -58.384,0 -105.71,47.329 -105.71,105.71 0,58.381 47.329,105.71 105.71,105.71 58.384,0 105.71,-47.329 105.71,-105.71 0,-58.381 -47.32,-105.71 -105.71,-105.71 z m 0,202.62 c -53.524,0 -96.914,-43.39 -96.914,-96.914 0,-53.524 43.39,-96.914 96.914,-96.914 53.524,0 96.914,43.39 96.914,96.914 0,53.524 -43.38,96.91 -96.91,96.91 z"
         fill="url(#SVGID_24_)"
         id="path85" /><circle
         cy="379.92001"
         cx="862.83002"
         r="94.012001"
         fill="#ffffff"
         id="circle85" /><circle
         cy="381.41"
         cx="862.83002"
         r="94.012001"
         fill="url(#SVGID_25_)"
         id="circle90" /></g></g></svg>
