<?xml version="1.0" encoding="UTF-8" standalone="no"?>
<!-- Generator: Adobe Illustrator 16.0.0, SVG Export Plug-In . SVG Version: 6.00 Build 0)  -->

<svg
   version="1.1"
   id="Capa_1"
   x="0px"
   y="0px"
   width="392.697px"
   height="392.697px"
   viewBox="0 0 392.697 392.697"
   style="enable-background:new 0 0 392.697 392.697;"
   xml:space="preserve"
   sodipodi:docname="cardboard12_withcd.svg"
   inkscape:export-filename="cardboard12_withcd.png"
   inkscape:export-xdpi="62.582443"
   inkscape:export-ydpi="62.582443"
   inkscape:version="1.3.2 (091e20e, 2023-11-25, custom)"
   xmlns:inkscape="http://www.inkscape.org/namespaces/inkscape"
   xmlns:sodipodi="http://sodipodi.sourceforge.net/DTD/sodipodi-0.dtd"
   xmlns="http://www.w3.org/2000/svg"
   xmlns:svg="http://www.w3.org/2000/svg"><defs
   id="defs20"><clipPath
     id="clipPath3570"
     clipPathUnits="userSpaceOnUse"><path
       id="path3572"
       sodipodi:rx="225.71428"
       sodipodi:ry="225.71428"
       style="fill-rule:evenodd;fill:#f57900"
       sodipodi:type="arc"
       d="m-85.714 180.93a225.71 225.71 0 1 1 -451.43 0 225.71 225.71 0 1 1 451.43 0z"
       transform="translate(-683.57 355.3)"
       sodipodi:cy="180.93361"
       sodipodi:cx="-311.42856" /></clipPath><filter
     id="filter4538"
     height="1.3810231"
     width="1.3753021"
     color-interpolation-filters="sRGB"
     y="-0.1903111"
     x="-0.1876542"
     inkscape:collect="always"><feGaussianBlur
       id="feGaussianBlur4540"
       stdDeviation="48.833377"
       inkscape:collect="always" /></filter><filter
     style="color-interpolation-filters:sRGB;"
     inkscape:label="Greyscale"
     id="filter20"
     x="0.13887958"
     y="0.16999427"
     width="0.71318657"
     height="0.72417434"><feColorMatrix
       values="0.914826 0.851735 -1.04101 -0.157729 0 0.914826 0.851735 -1.04101 -0.157729 0 0.914826 0.851735 -1.04101 -0.157729 0 0 0 0 1 0 "
       id="feColorMatrix20" /></filter></defs><sodipodi:namedview
   id="namedview20"
   pagecolor="#ffffff"
   bordercolor="#000000"
   borderopacity="0.25"
   inkscape:showpageshadow="2"
   inkscape:pageopacity="0.0"
   inkscape:pagecheckerboard="0"
   inkscape:deskcolor="#d1d1d1"
   inkscape:zoom="1.0020449"
   inkscape:cx="269.94799"
   inkscape:cy="339.80515"
   inkscape:window-width="1920"
   inkscape:window-height="1001"
   inkscape:window-x="-9"
   inkscape:window-y="-9"
   inkscape:window-maximized="1"
   inkscape:current-layer="layer1" />
<g
   id="g5">
	<g
   id="g4">
		<path
   d="M21.837,83.419l36.496,16.678L227.72,19.886c1.229-0.592,2.002-1.846,1.98-3.209c-0.021-1.365-0.834-2.592-2.082-3.145    L197.766,0.3c-0.903-0.4-1.933-0.4-2.837,0L21.873,77.036c-1.259,0.559-2.073,1.803-2.081,3.18    C19.784,81.593,20.584,82.847,21.837,83.419z"
   id="path1" />
		<path
   d="M185.689,177.261l-64.988-30.01v91.617c0,0.856-0.44,1.655-1.167,2.114c-0.406,0.257-0.869,0.386-1.333,0.386    c-0.368,0-0.736-0.082-1.079-0.244l-68.874-32.625c-0.869-0.416-1.421-1.293-1.421-2.256v-92.229L6.804,95.5    c-1.083-0.496-2.344-0.406-3.347,0.238c-1.002,0.645-1.608,1.754-1.608,2.944v208.744c0,1.371,0.799,2.615,2.045,3.185    l178.886,81.768c0.464,0.211,0.96,0.315,1.455,0.315c0.661,0,1.318-0.188,1.892-0.555c1.002-0.645,1.608-1.754,1.608-2.945    V180.445C187.735,179.076,186.936,177.831,185.689,177.261z"
   id="path2" />
		<path
   d="M389.24,95.74c-1.002-0.644-2.264-0.732-3.347-0.238l-178.876,81.76c-1.246,0.57-2.045,1.814-2.045,3.185v208.751    c0,1.191,0.606,2.302,1.608,2.945c0.572,0.367,1.23,0.555,1.892,0.555c0.495,0,0.991-0.104,1.455-0.315l178.876-81.768    c1.246-0.568,2.045-1.813,2.045-3.185V98.685C390.849,97.494,390.242,96.384,389.24,95.74z"
   id="path3" />
		<path
   d="M372.915,80.216c-0.009-1.377-0.823-2.621-2.082-3.18l-60.182-26.681c-0.938-0.418-2.013-0.399-2.938,0.045    l-173.755,82.992l60.933,29.117c0.462,0.211,0.958,0.316,1.455,0.316s0.993-0.105,1.455-0.316l173.066-79.092    C372.122,82.847,372.923,81.593,372.915,80.216z"
   id="path4" />
	</g>
</g>
<g
   id="g6">
</g>
<g
   id="g7">
</g>
<g
   id="g8">
</g>
<g
   id="g9">
</g>
<g
   id="g10">
</g>
<g
   id="g11">
</g>
<g
   id="g12">
</g>
<g
   id="g13">
</g>
<g
   id="g14">
</g>
<g
   id="g15">
</g>
<g
   id="g16">
</g>
<g
   id="g17">
</g>
<g
   id="g18">
</g>
<g
   id="g19">
</g>
<g
   id="g20">
</g>
<g
   id="layer1"
   inkscape:label="Calque 1"
   transform="translate(241.70312,-483.80028)"><ellipse
     id="path4466"
     style="fill:#fffffb;fill-rule:evenodd"
     transform="matrix(0.21739,0,0,0.21739,-528.32,365.7)"
     cx="-205.71428"
     cy="306.64789"
     rx="268.57144"
     ry="262.85715" /><g
     id="g4615"
     transform="matrix(0.32995468,-0.22755387,0.05653945,0.24596236,10.976212,609.3388)"
     style="opacity:1;filter:url(#filter20)"><g
       id="g4562"
       transform="translate(634.29,111.43)"
       style="opacity:1"><g
         id="g3558"
         style="opacity:0.843602;stroke:#ffffff;stroke-width:2;filter:url(#filter4538)"
         transform="translate(420.71,-103.87)"
         clip-path="url(#clipPath3570)"
         inkscape:export-filename="cd_sat_2560.png"
         inkscape:export-xdpi="544.40509"
         inkscape:export-ydpi="544.40509"><path
           id="path3536"
           style="fill:#8ae234;stroke:#ffffff;stroke-width:2"
           d="m -1102.1,827.92 h 219.83 l -109.92,-301.99 -109.92,301.99 z"
           inkscape:transform-center-y="150.99634"
           inkscape:connector-curvature="0"
           inkscape:label="Triangle" /><path
           id="path3538"
           style="fill:#8ae234;stroke:#ffffff;stroke-width:2"
           d="m -1102.1,827.92 h 219.83 l -109.92,-301.99 -109.92,301.99 z"
           inkscape:transform-center-y="150.99634"
           inkscape:connector-curvature="0"
           inkscape:label="Triangle" /><path
           id="path3540"
           style="fill:#3465a4;stroke:#ffffff;stroke-width:2"
           d="m -1270.5,686.61 168.4,141.31 109.92,-301.99 -278.32,160.69 z"
           inkscape:transform-center-x="139.15896"
           inkscape:transform-center-y="150.99633"
           inkscape:connector-curvature="0"
           inkscape:label="Triangle" /><path
           id="path3542"
           style="fill:#ef2929;stroke:#ffffff;stroke-width:2"
           d="m -1308.6,470.12 38.174,216.49 278.32,-160.69 -316.49,-55.806 z"
           inkscape:transform-center-x="158.24575"
           inkscape:transform-center-y="52.440505"
           inkscape:connector-curvature="0"
           inkscape:label="Triangle" /><path
           id="path3544"
           style="fill:#75507b;stroke:#ffffff;stroke-width:2"
           d="m -1198.7,279.74 -109.92,190.38 316.49,55.806 -206.58,-246.19 z"
           inkscape:transform-center-x="158.24575"
           inkscape:transform-center-y="-123.09333"
           inkscape:connector-curvature="0"
           inkscape:label="Triangle" /><path
           id="path3546"
           style="fill:#ce5c00;stroke:#ffffff;stroke-width:2"
           d="m -992.14,204.55 -206.58,75.187 206.58,246.19 -8e-5,-321.37 z"
           inkscape:transform-center-x="103.2876"
           inkscape:transform-center-y="-160.68695"
           inkscape:connector-curvature="0"
           inkscape:label="Triangle" /><path
           id="path3548"
           style="fill:#c4a000;stroke:#ffffff;stroke-width:2"
           d="M -675.65,470.12 -785.57,279.74 -992.14,525.93 Z"
           inkscape:transform-center-x="-158.24575"
           inkscape:transform-center-y="-123.09336"
           inkscape:connector-curvature="0"
           inkscape:label="Triangle" /><path
           id="path3550"
           style="fill:#4e9a06;stroke:#ffffff;stroke-width:2"
           d="m -785.57,279.74 -206.58,-75.187 7e-5,321.37 206.58,-246.19 z"
           inkscape:transform-center-x="-103.28753"
           inkscape:transform-center-y="-160.68695"
           inkscape:connector-curvature="0"
           inkscape:label="Triangle" /><path
           id="path3552"
           style="fill:#729fcf;stroke:#ffffff;stroke-width:2"
           d="m -713.82,686.61 38.174,-216.49 -316.49,55.806 278.32,160.69 z"
           inkscape:transform-center-x="-158.24575"
           inkscape:transform-center-y="52.44042"
           inkscape:connector-curvature="0"
           inkscape:label="Triangle" /><path
           id="path3554"
           style="fill:#f57900;stroke:#ffffff;stroke-width:2"
           d="M -882.23,827.92 -713.82,686.61 -992.14,525.93 Z"
           inkscape:transform-center-x="-139.159"
           inkscape:transform-center-y="150.99634"
           inkscape:connector-curvature="0"
           inkscape:label="Triangle" /></g></g><g
       id="g4558"
       transform="translate(704.57,488.29)"
       style="opacity:1"><ellipse
         id="path4400"
         style="fill:#2e3436;fill-opacity:0.71765;fill-rule:evenodd;stroke:#dfd3e8;stroke-width:57.311;stroke-opacity:0.94118"
         transform="matrix(0.33152,0,0,0.33152,-577.05,-42.155)"
         cx="-205.71428"
         cy="306.64789"
         rx="268.57144"
         ry="262.85715" /><ellipse
         id="path4556"
         style="fill:#ffffff;fill-rule:evenodd;stroke:#dfd3e8;stroke-width:57.311;stroke-opacity:0.94118"
         transform="matrix(0.16131,0,0,0.16131,-612.06,11.924)"
         cx="-205.71428"
         cy="306.64789"
         rx="268.57144"
         ry="262.85715" /></g></g></g></svg>
