<?xml version="1.0" encoding="UTF-8" standalone="no"?>
<!--part of the matt icon theme by sixsixfive released under CC0 (https://creativecommons.org/publicdomain/zero/1.0/) on openclipart-->

<svg
   viewBox="0 0 128 128"
   version="1.1"
   id="svg1"
   sodipodi:docname="cd_file.svg"
   xml:space="preserve"
   inkscape:version="1.3.2 (091e20e, 2023-11-25, custom)"
   xmlns:inkscape="http://www.inkscape.org/namespaces/inkscape"
   xmlns:sodipodi="http://sodipodi.sourceforge.net/DTD/sodipodi-0.dtd"
   xmlns:xlink="http://www.w3.org/1999/xlink"
   xmlns="http://www.w3.org/2000/svg"
   xmlns:svg="http://www.w3.org/2000/svg"><sodipodi:namedview
     id="namedview1"
     pagecolor="#ffffff"
     bordercolor="#000000"
     borderopacity="0.25"
     inkscape:showpageshadow="2"
     inkscape:pageopacity="0.0"
     inkscape:pagecheckerboard="0"
     inkscape:deskcolor="#d1d1d1"
     inkscape:zoom="0.76855469"
     inkscape:cx="-86.526048"
     inkscape:cy="-48.792884"
     inkscape:window-width="1920"
     inkscape:window-height="1001"
     inkscape:window-x="-9"
     inkscape:window-y="-9"
     inkscape:window-maximized="1"
     inkscape:current-layer="layer2" /><defs
     id="0"><linearGradient
       id="2"><stop
         id="F"
         stop-color="#eee" /><stop
         offset="1"
         id="G"
         stop-color="#d2d2d2" /></linearGradient><linearGradient
       id="3"><stop
         id="H" /><stop
         offset="1"
         id="I"
         stop-opacity="0.536" /></linearGradient><linearGradient
       id="4"><stop
         id="J" /><stop
         offset="1"
         id="K"
         stop-color="#ddd"
         stop-opacity="0" /></linearGradient><filter
       id="5"
       x="-0.14513263"
       width="1.2902653"
       y="-0.17041424"
       height="1.3408285"><feGaussianBlur
         stdDeviation="1.81881"
         id="L" /></filter><filter
       id="6"
       x="-0.069831288"
       y="-0.052595388"
       width="1.1396626"
       height="1.1051908"><feGaussianBlur
         stdDeviation="2.58594"
         id="M" /></filter><radialGradient
       xlink:href="#2"
       r="44.42"
       cy="100.32"
       cx="81.79"
       gradientTransform="matrix(2.0026052,-1.5970314,1.7773333,2.2286954,-279.23554,23.703826)"
       gradientUnits="userSpaceOnUse"
       id="7" /><radialGradient
       xlink:href="#3"
       r="18.279"
       cy="22.254"
       cx="89.51"
       gradientTransform="matrix(1,0,0,0.97467889,0,0.43910718)"
       gradientUnits="userSpaceOnUse"
       id="8" /><linearGradient
       xlink:href="#4"
       y2="25.1"
       x2="86.82"
       y1="14.793"
       x1="98.33"
       gradientTransform="matrix(0.96714879,0,0,0.96714879,0.45622123,-0.08680339)"
       gradientUnits="userSpaceOnUse"
       id="9" /><clipPath
       id="clipPath3570"
       clipPathUnits="userSpaceOnUse"><path
         id="path3572"
         sodipodi:rx="225.71428"
         sodipodi:ry="225.71428"
         style="fill-rule:evenodd;fill:#f57900"
         sodipodi:type="arc"
         d="m-85.714 180.93a225.71 225.71 0 1 1 -451.43 0 225.71 225.71 0 1 1 451.43 0z"
         transform="translate(-683.57 355.3)"
         sodipodi:cy="180.93361"
         sodipodi:cx="-311.42856" /></clipPath><filter
       id="filter4538"
       height="1.3810231"
       width="1.3753021"
       color-interpolation-filters="sRGB"
       y="-0.1903111"
       x="-0.1876542"
       inkscape:collect="always"><feGaussianBlur
         id="feGaussianBlur4540"
         stdDeviation="48.833377"
         inkscape:collect="always" /></filter><linearGradient
       id="linearGradient3271"><stop
         id="stop3273"
         style="stop-color:rgb(0, 0, 0)"
         offset="0" /><stop
         id="stop3279"
         style="stop-color:rgb(0, 0, 0);stop-opacity:.49804"
         offset=".86" /><stop
         id="stop3275"
         style="stop-color:rgb(0, 0, 0);stop-opacity:0"
         offset="1" /></linearGradient><radialGradient
       id="radialGradient2085"
       xlink:href="#linearGradient3271"
       gradientUnits="userSpaceOnUse"
       cy="355.35"
       cx="416.92"
       r="51.221"
       inkscape:collect="always" /><radialGradient
       id="radialGradient2087"
       xlink:href="#linearGradient3271"
       gradientUnits="userSpaceOnUse"
       cy="355.35"
       cx="416.92"
       r="50.971"
       inkscape:collect="always" /><radialGradient
       id="radialGradient2093"
       gradientUnits="userSpaceOnUse"
       cy="321.17"
       cx="218.8"
       gradientTransform="matrix(1.2471,-7.8267e-6,8.1335e-6,1.296,-222.87,-366.23)"
       r="49.922"
       inkscape:collect="always"><stop
         id="stop1370"
         style="stop-color:black"
         offset="0" /><stop
         id="stop1372"
         style="stop-color:white"
         offset=".7" /><stop
         id="stop1374"
         style="stop-color:black"
         offset="1" /></radialGradient><linearGradient
       id="linearGradient2644"
       y2="58.065"
       gradientUnits="userSpaceOnUse"
       x2="-65.777"
       y1="57.046"
       x1="-66.487"
       inkscape:collect="always"><stop
         id="stop7199"
         style="stop-color:rgb(204, 0, 0)"
         offset="0" /><stop
         id="stop7201"
         style="stop-color:rgb(204, 0, 0);stop-opacity:0"
         offset="1" /></linearGradient><linearGradient
       id="linearGradient2649"
       y2="57.819"
       gradientUnits="userSpaceOnUse"
       x2="-65.842"
       gradientTransform="matrix(1.318,2.9207,-2.9207,1.318,409.08,270.65)"
       y1="58.346"
       x1="-65.233"
       inkscape:collect="always"><stop
         id="stop7217"
         style="stop-color:rgb(255, 255, 255)"
         offset="0" /><stop
         id="stop7219"
         style="stop-color:rgb(204, 0, 0);stop-opacity:0"
         offset="1" /></linearGradient><linearGradient
       id="linearGradient2681"
       y2="57.841"
       gradientUnits="userSpaceOnUse"
       x2="-65.895"
       y1="59.091"
       x1="-65.303"
       inkscape:collect="always"><stop
         id="stop2659"
         style="stop-color:#ffffff"
         offset="0" /><stop
         id="stop2661"
         style="stop-color:#ffffff;stop-opacity:0"
         offset="1" /></linearGradient></defs><g
     id="1"
     transform="translate(1.1324584,3.3099998)"><path
       transform="matrix(0.96714879,0,0,0.97126149,0.45622123,-0.61456831)"
       id="A"
       d="m 20.09375,4.1185004 0,117.9999996 88.84375,0 0,-86.15625 -0.59375,-0.625 c 0.21045,0.144391 0.41688,0.302162 0.625,0.4375 L 78.09375,4.1497504 c 0.05654,0.079597 0.09993,0.1703021 0.15625,0.25 l -0.25,-0.28125 -57.90625,0 z"
       opacity="0.809"
       filter="url(#6)" /><path
       id="B"
       d="m 19.889867,2.5426324 0,114.1235576 85.925123,0 0,-83.325913 -29.921163,-30.7976446 -56.00396,0 z"
       fill="url(#7)" /><path
       transform="matrix(1.016085,0,0,1.112241,-4.9246966,-0.34524137)"
       d="m 81.698039,28.309502 0.135161,-8.351 C 81.901124,13.359407 80.956142,8.4107397 77.785779,3.9471419 L 80.362343,3.9159389 107.86271,29.53084 c -4.06802,-2.645393 -9.621189,-0.791242 -16.861906,-1.025606 l -9.302765,-0.195732 z"
       id="C"
       opacity="0.505"
       fill="url(#8)"
       filter="url(#5)" /><path
       id="D"
       d="m 81.615861,25.811681 0.130721,-8.07666 C 81.812274,11.352715 79.055005,6.8989516 75.988792,2.5819884 L 105.85553,33.170155 c -3.93438,-2.558489 -8.239658,-6.942507 -15.242511,-7.169171 l -8.997158,-0.189303 z"
       fill="#eee" /><path
       d="m 81.615861,25.811681 0.130721,-8.07666 C 81.812274,11.352715 79.055005,6.8989516 75.988792,2.5819884 L 105.85553,33.170155 c -3.93438,-2.558489 -8.239658,-6.942507 -15.242511,-7.169171 l -8.997158,-0.189303 z"
       id="E"
       fill="url(#9)" /></g><g
     inkscape:groupmode="layer"
     id="layer1"
     inkscape:label="CD"><g
       id="layer1-2"
       inkscape:label="Calque 1"
       transform="translate(109.35463,-616.14878)"><ellipse
         id="path4466"
         style="fill:#fffffb;fill-rule:evenodd"
         transform="matrix(0.21739,0,0,0.21739,-528.32,365.7)"
         cx="-205.71428"
         cy="306.64789"
         rx="268.57144"
         ry="262.85715" /><g
         id="g4615"
         transform="matrix(0.15549191,0,0,0.15549191,-54.094501,606.49807)"><g
           id="g4562"
           transform="translate(634.29,111.43)"
           style="opacity:1"><g
             id="g3558"
             style="opacity:0.843602;stroke:#ffffff;stroke-width:2;filter:url(#filter4538)"
             transform="translate(420.71,-103.87)"
             clip-path="url(#clipPath3570)"
             inkscape:export-filename="cd_sat.png"
             inkscape:export-xdpi="544.40509"
             inkscape:export-ydpi="544.40509"><path
               id="path3536"
               style="fill:#8ae234;stroke:#ffffff;stroke-width:2"
               d="m -1102.1,827.92 h 219.83 l -109.92,-301.99 -109.92,301.99 z"
               inkscape:transform-center-y="150.99634"
               inkscape:connector-curvature="0"
               inkscape:label="Triangle" /><path
               id="path3538"
               style="fill:#8ae234;stroke:#ffffff;stroke-width:2"
               d="m -1102.1,827.92 h 219.83 l -109.92,-301.99 -109.92,301.99 z"
               inkscape:transform-center-y="150.99634"
               inkscape:connector-curvature="0"
               inkscape:label="Triangle" /><path
               id="path3540"
               style="fill:#3465a4;stroke:#ffffff;stroke-width:2"
               d="m -1270.5,686.61 168.4,141.31 109.92,-301.99 -278.32,160.69 z"
               inkscape:transform-center-x="139.15896"
               inkscape:transform-center-y="150.99633"
               inkscape:connector-curvature="0"
               inkscape:label="Triangle" /><path
               id="path3542"
               style="fill:#ef2929;stroke:#ffffff;stroke-width:2"
               d="m -1308.6,470.12 38.174,216.49 278.32,-160.69 -316.49,-55.806 z"
               inkscape:transform-center-x="158.24575"
               inkscape:transform-center-y="52.440505"
               inkscape:connector-curvature="0"
               inkscape:label="Triangle" /><path
               id="path3544"
               style="fill:#75507b;stroke:#ffffff;stroke-width:2"
               d="m -1198.7,279.74 -109.92,190.38 316.49,55.806 -206.58,-246.19 z"
               inkscape:transform-center-x="158.24575"
               inkscape:transform-center-y="-123.09333"
               inkscape:connector-curvature="0"
               inkscape:label="Triangle" /><path
               id="path3546"
               style="fill:#ce5c00;stroke:#ffffff;stroke-width:2"
               d="m -992.14,204.55 -206.58,75.187 206.58,246.19 -8e-5,-321.37 z"
               inkscape:transform-center-x="103.2876"
               inkscape:transform-center-y="-160.68695"
               inkscape:connector-curvature="0"
               inkscape:label="Triangle" /><path
               id="path3548"
               style="fill:#c4a000;stroke:#ffffff;stroke-width:2"
               d="M -675.65,470.12 -785.57,279.74 -992.14,525.93 Z"
               inkscape:transform-center-x="-158.24575"
               inkscape:transform-center-y="-123.09336"
               inkscape:connector-curvature="0"
               inkscape:label="Triangle" /><path
               id="path3550"
               style="fill:#4e9a06;stroke:#ffffff;stroke-width:2"
               d="m -785.57,279.74 -206.58,-75.187 7e-5,321.37 206.58,-246.19 z"
               inkscape:transform-center-x="-103.28753"
               inkscape:transform-center-y="-160.68695"
               inkscape:connector-curvature="0"
               inkscape:label="Triangle" /><path
               id="path3552"
               style="fill:#729fcf;stroke:#ffffff;stroke-width:2"
               d="m -713.82,686.61 38.174,-216.49 -316.49,55.806 278.32,160.69 z"
               inkscape:transform-center-x="-158.24575"
               inkscape:transform-center-y="52.44042"
               inkscape:connector-curvature="0"
               inkscape:label="Triangle" /><path
               id="path3554"
               style="fill:#f57900;stroke:#ffffff;stroke-width:2"
               d="M -882.23,827.92 -713.82,686.61 -992.14,525.93 Z"
               inkscape:transform-center-x="-139.159"
               inkscape:transform-center-y="150.99634"
               inkscape:connector-curvature="0"
               inkscape:label="Triangle" /></g></g><g
           id="g4558"
           transform="translate(704.57,488.29)"
           style="opacity:1"><ellipse
             id="path4400"
             style="fill:#2e3436;fill-opacity:0.71765;fill-rule:evenodd;stroke:#dfd3e8;stroke-width:57.311;stroke-opacity:0.94118"
             transform="matrix(0.33152,0,0,0.33152,-577.05,-42.155)"
             cx="-205.71428"
             cy="306.64789"
             rx="268.57144"
             ry="262.85715" /><ellipse
             id="path4556"
             style="fill:#ffffff;fill-rule:evenodd;stroke:#dfd3e8;stroke-width:57.311;stroke-opacity:0.94118"
             transform="matrix(0.16131,0,0,0.16131,-612.06,11.924)"
             cx="-205.71428"
             cy="306.64789"
             rx="268.57144"
             ry="262.85715" /></g></g></g></g><g
     inkscape:groupmode="layer"
     id="layer2"
     inkscape:label="Clock"><g
       id="layer1-6"
       inkscape:label="Ebene 1"
       transform="matrix(0.23231188,0,0,0.23231188,60.640036,65.843567)"><circle
         id="path2396"
         style="opacity:0.75;fill:url(#radialGradient2085);fill-rule:evenodd;stroke:url(#radialGradient2087);stroke-width:0.5;stroke-linecap:round;stroke-linejoin:round;stroke-miterlimit:0.1"
         inkscape:export-ydpi="391.56"
         inkscape:export-filename="/home/fzap/klocki.png"
         transform="matrix(1.9523,0,0,1.9523,-657.72,-537.51)"
         inkscape:export-xdpi="391.56"
         cx="416.92087"
         cy="355.34964"
         r="50.970741" /><circle
         id="path2330"
         style="fill:#ffffff;fill-rule:evenodd"
         inkscape:export-ydpi="391.56"
         inkscape:export-filename="/home/fzap/klocki.png"
         inkscape:export-xdpi="391.56"
         transform="matrix(1.9336,0,0,1.9336,-652.75,-533.01)"
         cx="416.7225"
         cy="355.24188"
         r="47.70153" /><g
         id="g1451"
         style="display:none;fill:#000000;fill-opacity:0.12292"
         inkscape:export-ydpi="391.56"
         inkscape:export-filename="/home/fzap/klocki.png"
         transform="matrix(1.4633,-1.264,4.9887,5.7752,158.35,148.71)"
         inkscape:export-xdpi="391.56"
         inkscape:label="Ebene 1"><path
           id="path1453"
           sodipodi:nodetypes="cc"
           style="fill-opacity:0.12292;fill-rule:evenodd;stroke:#282d30;stroke-linecap:square;stroke-opacity:0.11373"
           d="m -9.5402,0 40.969,1.6899" /></g><path
         id="path2328"
         sodipodi:nodetypes="cc"
         style="display:none;fill:none;stroke:#000000;stroke-width:3.8673;stroke-linecap:square;stroke-miterlimit:0;stroke-opacity:0.10588"
         d="m 126.43,134.67 35.03,26.51" /><path
         id="path2683"
         sodipodi:nodetypes="ccscccsccccccccccc"
         style="display:none;fill:#000000;fill-opacity:0.10631;fill-rule:evenodd"
         d="m 150.32,146.84 2.13,4.94 c 1.24,-0.31 2.56,0.31 3.11,1.51 0.57,1.25 0.11,2.71 -1.02,3.42 l 29.2,65.7 -29.95,-65.32 c -1.42,0.22 -2.7,-0.21 -3.27,-1.47 -0.55,-1.22 -0.12,-2.64 0.96,-3.37 l -2.31,-4.89 -0.2,0.09 c -0.32,0.15 -0.7,0.01 -0.84,-0.32 l -6.47,-13.09 c -0.2,-0.44 -0.01,-0.94 0.42,-1.14 l 2.02,-0.91 c 0.43,-0.2 0.94,-0.01 1.13,0.43 l 5.58,13.49 c 0.15,0.33 0.01,0.71 -0.31,0.85 -0.06,0.03 -0.12,0.05 -0.18,0.08" /><g
         id="g2429"
         transform="matrix(1.9231,0.20212,-0.20212,1.9231,67.801,47.695)"><rect
           id="rect2431"
           style="fill:#000000;fill-rule:evenodd"
           width="1.4852"
           inkscape:tile-w="1.4852411"
           height="3.4307001"
           y="9.9398003"
           inkscape:tile-h="3.4307041"
           x="49.262001"
           inkscape:tile-cx="41.367621"
           inkscape:tile-cy="17.722816" /><rect
           id="rect2433"
           style="fill:#000000;fill-rule:evenodd"
           inkscape:tile-w="1.4852411"
           height="3.4307001"
           width="1.4852"
           inkscape:tile-h="3.4307041"
           inkscape:tile-cy="17.722816"
           y="86.528999"
           x="49.255001"
           inkscape:tile-cx="41.367621" /></g><g
         id="g2435"
         transform="matrix(1.8914,0.40203,-0.40203,1.8914,79.37,39.281)"><rect
           id="rect2437"
           style="fill:#000000;fill-rule:evenodd"
           inkscape:tile-w="1.4852411"
           height="3.4307001"
           width="1.4852"
           inkscape:tile-h="3.4307041"
           inkscape:tile-cy="17.722816"
           y="9.9398003"
           x="49.262001"
           inkscape:tile-cx="41.367621" /><rect
           id="rect2439"
           style="fill:#000000;fill-rule:evenodd"
           width="1.4852"
           inkscape:tile-w="1.4852411"
           height="3.4307001"
           y="86.528999"
           inkscape:tile-h="3.4307041"
           x="49.255001"
           inkscape:tile-cx="41.367621"
           inkscape:tile-cy="17.722816" /></g><g
         id="g2441"
         transform="matrix(1.839,0.59753,-0.59753,1.839,91.754,32.122)"><rect
           id="rect2443"
           style="fill:#000000;fill-rule:evenodd"
           width="1.4852"
           inkscape:tile-w="1.4852411"
           height="3.4307001"
           y="9.9398003"
           inkscape:tile-h="3.4307041"
           x="49.262001"
           inkscape:tile-cx="41.367621"
           inkscape:tile-cy="17.722816" /><rect
           id="rect2445"
           style="fill:#000000;fill-rule:evenodd"
           inkscape:tile-w="1.4852411"
           height="3.4307001"
           width="1.4852"
           inkscape:tile-h="3.4307041"
           inkscape:tile-cy="17.722816"
           y="86.528999"
           x="49.255001"
           inkscape:tile-cx="41.367621" /></g><g
         id="g2447"
         transform="matrix(1.7665,0.78648,-0.78648,1.7665,104.82,26.297)"><rect
           id="rect2449"
           style="fill:#000000;fill-rule:evenodd"
           inkscape:tile-w="1.4852411"
           height="3.4307001"
           width="1.4852"
           inkscape:tile-h="3.4307041"
           inkscape:tile-cy="17.722816"
           y="9.9398003"
           x="49.262001"
           inkscape:tile-cx="41.367621" /><rect
           id="rect2451"
           style="fill:#000000;fill-rule:evenodd"
           width="1.4852"
           inkscape:tile-w="1.4852411"
           height="3.4307001"
           y="86.528999"
           inkscape:tile-h="3.4307041"
           x="49.255001"
           inkscape:tile-cx="41.367621"
           inkscape:tile-cy="17.722816" /></g><g
         id="g2459"
         transform="matrix(1.5644,1.1366,-1.1366,1.5644,132.41,18.889)"><rect
           id="rect2461"
           style="fill:#000000;fill-rule:evenodd"
           inkscape:tile-w="1.4852411"
           height="3.4307001"
           width="1.4852"
           inkscape:tile-h="3.4307041"
           inkscape:tile-cy="17.722816"
           y="9.9398003"
           x="49.262001"
           inkscape:tile-cx="41.367621" /><rect
           id="rect2463"
           style="fill:#000000;fill-rule:evenodd"
           width="1.4852"
           inkscape:tile-w="1.4852411"
           height="3.4307001"
           y="86.528999"
           inkscape:tile-h="3.4307041"
           x="49.255001"
           inkscape:tile-cx="41.367621"
           inkscape:tile-cy="17.722816" /></g><g
         id="g2465"
         transform="matrix(1.437,1.2939,-1.2939,1.437,146.64,17.386)"><rect
           id="rect2467"
           style="fill:#000000;fill-rule:evenodd"
           width="1.4852"
           inkscape:tile-w="1.4852411"
           height="3.4307001"
           y="9.9398003"
           inkscape:tile-h="3.4307041"
           x="49.262001"
           inkscape:tile-cx="41.367621"
           inkscape:tile-cy="17.722816" /><rect
           id="rect2469"
           style="fill:#000000;fill-rule:evenodd"
           inkscape:tile-w="1.4852411"
           height="3.4307001"
           width="1.4852"
           inkscape:tile-h="3.4307041"
           inkscape:tile-cy="17.722816"
           y="86.528999"
           x="49.255001"
           inkscape:tile-cx="41.367621" /></g><g
         id="g2471"
         transform="matrix(1.2939,1.437,-1.437,1.2939,160.94,17.379)"><rect
           id="rect2473"
           style="fill:#000000;fill-rule:evenodd"
           inkscape:tile-w="1.4852411"
           height="3.4307001"
           width="1.4852"
           inkscape:tile-h="3.4307041"
           inkscape:tile-cy="17.722816"
           y="9.9398003"
           x="49.262001"
           inkscape:tile-cx="41.367621" /><rect
           id="rect2475"
           style="fill:#000000;fill-rule:evenodd"
           width="1.4852"
           inkscape:tile-w="1.4852411"
           height="3.4307001"
           y="86.528999"
           inkscape:tile-h="3.4307041"
           x="49.255001"
           inkscape:tile-cx="41.367621"
           inkscape:tile-cy="17.722816" /></g><g
         id="g2477"
         transform="matrix(1.1366,1.5644,-1.5644,1.1366,175.17,18.867)"><rect
           id="rect2479"
           style="fill:#000000;fill-rule:evenodd"
           width="1.4852"
           inkscape:tile-w="1.4852411"
           height="3.4307001"
           y="9.9398003"
           inkscape:tile-h="3.4307041"
           x="49.262001"
           inkscape:tile-cx="41.367621"
           inkscape:tile-cy="17.722816" /><rect
           id="rect2481"
           style="fill:#000000;fill-rule:evenodd"
           inkscape:tile-w="1.4852411"
           height="3.4307001"
           width="1.4852"
           inkscape:tile-h="3.4307041"
           inkscape:tile-cy="17.722816"
           y="86.528999"
           x="49.255001"
           inkscape:tile-cx="41.367621" /></g><g
         id="g2489"
         transform="matrix(0.78649,1.7665,-1.7665,0.78649,202.77,26.247)"><rect
           id="rect2491"
           style="fill:#000000;fill-rule:evenodd"
           width="1.4852"
           inkscape:tile-w="1.4852411"
           height="3.4307001"
           y="9.9398003"
           inkscape:tile-h="3.4307041"
           x="49.262001"
           inkscape:tile-cx="41.367621"
           inkscape:tile-cy="17.722816" /><rect
           id="rect2493"
           style="fill:#000000;fill-rule:evenodd"
           inkscape:tile-w="1.4852411"
           height="3.4307001"
           width="1.4852"
           inkscape:tile-h="3.4307041"
           inkscape:tile-cy="17.722816"
           y="86.528999"
           x="49.255001"
           inkscape:tile-cx="41.367621" /></g><g
         id="g2495"
         transform="matrix(0.59754,1.839,-1.839,0.59754,215.84,32.059)"><rect
           id="rect2497"
           style="fill:#000000;fill-rule:evenodd"
           inkscape:tile-w="1.4852411"
           height="3.4307001"
           width="1.4852"
           inkscape:tile-h="3.4307041"
           inkscape:tile-cy="17.722816"
           y="9.9398003"
           x="49.262001"
           inkscape:tile-cx="41.367621" /><rect
           id="rect2499"
           style="fill:#000000;fill-rule:evenodd"
           width="1.4852"
           inkscape:tile-w="1.4852411"
           height="3.4307001"
           y="86.528999"
           inkscape:tile-h="3.4307041"
           x="49.255001"
           inkscape:tile-cx="41.367621"
           inkscape:tile-cy="17.722816" /></g><g
         id="g2501"
         transform="matrix(0.40203,1.8914,-1.8914,0.40203,228.23,39.205)"><rect
           id="rect2503"
           style="fill:#000000;fill-rule:evenodd"
           width="1.4852"
           inkscape:tile-w="1.4852411"
           height="3.4307001"
           y="9.9398003"
           inkscape:tile-h="3.4307041"
           x="49.262001"
           inkscape:tile-cx="41.367621"
           inkscape:tile-cy="17.722816" /><rect
           id="rect2505"
           style="fill:#000000;fill-rule:evenodd"
           inkscape:tile-w="1.4852411"
           height="3.4307001"
           width="1.4852"
           inkscape:tile-h="3.4307041"
           inkscape:tile-cy="17.722816"
           y="86.528999"
           x="49.255001"
           inkscape:tile-cx="41.367621" /></g><g
         id="g2507"
         transform="matrix(0.20213,1.9231,-1.9231,0.20213,239.81,47.607)"><rect
           id="rect2509"
           style="fill:#000000;fill-rule:evenodd"
           inkscape:tile-w="1.4852411"
           height="3.4307001"
           width="1.4852"
           inkscape:tile-h="3.4307041"
           inkscape:tile-cy="17.722816"
           y="9.9398003"
           x="49.262001"
           inkscape:tile-cx="41.367621" /><rect
           id="rect2511"
           style="fill:#000000;fill-rule:evenodd"
           width="1.4852"
           inkscape:tile-w="1.4852411"
           height="3.4307001"
           y="86.528999"
           inkscape:tile-h="3.4307041"
           x="49.255001"
           inkscape:tile-cx="41.367621"
           inkscape:tile-cy="17.722816" /></g><g
         id="g2519"
         transform="matrix(-0.20212,1.9231,-1.9231,-0.20212,260.02,67.798)"><rect
           id="rect2521"
           style="fill:#000000;fill-rule:evenodd"
           inkscape:tile-w="1.4852411"
           height="3.4307001"
           width="1.4852"
           inkscape:tile-h="3.4307041"
           inkscape:tile-cy="17.722816"
           y="9.9398003"
           x="49.262001"
           inkscape:tile-cx="41.367621" /><rect
           id="rect2523"
           style="fill:#000000;fill-rule:evenodd"
           width="1.4852"
           inkscape:tile-w="1.4852411"
           height="3.4307001"
           y="86.528999"
           inkscape:tile-h="3.4307041"
           x="49.255001"
           inkscape:tile-cx="41.367621"
           inkscape:tile-cy="17.722816" /></g><g
         id="g2525"
         transform="matrix(-0.40202,1.8914,-1.8914,-0.40202,268.44,79.367)"><rect
           id="rect2527"
           style="fill:#000000;fill-rule:evenodd"
           width="1.4852"
           inkscape:tile-w="1.4852411"
           height="3.4307001"
           y="9.9398003"
           inkscape:tile-h="3.4307041"
           x="49.262001"
           inkscape:tile-cx="41.367621"
           inkscape:tile-cy="17.722816" /><rect
           id="rect2529"
           style="fill:#000000;fill-rule:evenodd"
           inkscape:tile-w="1.4852411"
           height="3.4307001"
           width="1.4852"
           inkscape:tile-h="3.4307041"
           inkscape:tile-cy="17.722816"
           y="86.528999"
           x="49.255001"
           inkscape:tile-cx="41.367621" /></g><g
         id="g2531"
         transform="matrix(-0.59752,1.839,-1.839,-0.59752,275.6,91.751)"><rect
           id="rect2533"
           style="fill:#000000;fill-rule:evenodd"
           inkscape:tile-w="1.4852411"
           height="3.4307001"
           width="1.4852"
           inkscape:tile-h="3.4307041"
           inkscape:tile-cy="17.722816"
           y="9.9398003"
           x="49.262001"
           inkscape:tile-cx="41.367621" /><rect
           id="rect2535"
           style="fill:#000000;fill-rule:evenodd"
           width="1.4852"
           inkscape:tile-w="1.4852411"
           height="3.4307001"
           y="86.528999"
           inkscape:tile-h="3.4307041"
           x="49.255001"
           inkscape:tile-cx="41.367621"
           inkscape:tile-cy="17.722816" /></g><g
         id="g2537"
         transform="matrix(-0.78648,1.7665,-1.7665,-0.78648,281.42,104.82)"><rect
           id="rect2539"
           style="fill:#000000;fill-rule:evenodd"
           width="1.4852"
           inkscape:tile-w="1.4852411"
           height="3.4307001"
           y="9.9398003"
           inkscape:tile-h="3.4307041"
           x="49.262001"
           inkscape:tile-cx="41.367621"
           inkscape:tile-cy="17.722816" /><rect
           id="rect2541"
           style="fill:#000000;fill-rule:evenodd"
           inkscape:tile-w="1.4852411"
           height="3.4307001"
           width="1.4852"
           inkscape:tile-h="3.4307041"
           inkscape:tile-cy="17.722816"
           y="86.528999"
           x="49.255001"
           inkscape:tile-cx="41.367621" /></g><g
         id="g2549"
         transform="matrix(-1.1366,1.5644,-1.5644,-1.1366,288.83,132.41)"><rect
           id="rect2551"
           style="fill:#000000;fill-rule:evenodd"
           width="1.4852"
           inkscape:tile-w="1.4852411"
           height="3.4307001"
           y="9.9398003"
           inkscape:tile-h="3.4307041"
           x="49.262001"
           inkscape:tile-cx="41.367621"
           inkscape:tile-cy="17.722816" /><rect
           id="rect2553"
           style="fill:#000000;fill-rule:evenodd"
           inkscape:tile-w="1.4852411"
           height="3.4307001"
           width="1.4852"
           inkscape:tile-h="3.4307041"
           inkscape:tile-cy="17.722816"
           y="86.528999"
           x="49.255001"
           inkscape:tile-cx="41.367621" /></g><g
         id="g2555"
         transform="matrix(-1.2939,1.437,-1.437,-1.2939,290.33,146.63)"><rect
           id="rect2557"
           style="fill:#000000;fill-rule:evenodd"
           inkscape:tile-w="1.4852411"
           height="3.4307001"
           width="1.4852"
           inkscape:tile-h="3.4307041"
           inkscape:tile-cy="17.722816"
           y="9.9398003"
           x="49.262001"
           inkscape:tile-cx="41.367621" /><rect
           id="rect2559"
           style="fill:#000000;fill-rule:evenodd"
           width="1.4852"
           inkscape:tile-w="1.4852411"
           height="3.4307001"
           y="86.528999"
           inkscape:tile-h="3.4307041"
           x="49.255001"
           inkscape:tile-cx="41.367621"
           inkscape:tile-cy="17.722816" /></g><g
         id="g2561"
         transform="matrix(-1.437,1.2939,-1.2939,-1.437,290.34,160.94)"><rect
           id="rect2563"
           style="fill:#000000;fill-rule:evenodd"
           width="1.4852"
           inkscape:tile-w="1.4852411"
           height="3.4307001"
           y="9.9398003"
           inkscape:tile-h="3.4307041"
           x="49.262001"
           inkscape:tile-cx="41.367621"
           inkscape:tile-cy="17.722816" /><rect
           id="rect2565"
           style="fill:#000000;fill-rule:evenodd"
           inkscape:tile-w="1.4852411"
           height="3.4307001"
           width="1.4852"
           inkscape:tile-h="3.4307041"
           inkscape:tile-cy="17.722816"
           y="86.528999"
           x="49.255001"
           inkscape:tile-cx="41.367621" /></g><g
         id="g2567"
         transform="matrix(-1.5643,1.1366,-1.1366,-1.5643,288.85,175.17)"><rect
           id="rect2569"
           style="fill:#000000;fill-rule:evenodd"
           inkscape:tile-w="1.4852411"
           height="3.4307001"
           width="1.4852"
           inkscape:tile-h="3.4307041"
           inkscape:tile-cy="17.722816"
           y="9.9398003"
           x="49.262001"
           inkscape:tile-cx="41.367621" /><rect
           id="rect2571"
           style="fill:#000000;fill-rule:evenodd"
           width="1.4852"
           inkscape:tile-w="1.4852411"
           height="3.4307001"
           y="86.528999"
           inkscape:tile-h="3.4307041"
           x="49.255001"
           inkscape:tile-cx="41.367621"
           inkscape:tile-cy="17.722816" /></g><g
         id="g2579"
         transform="matrix(-1.7665,0.78649,-0.78649,-1.7665,281.47,202.77)"><rect
           id="rect2581"
           style="fill:#000000;fill-rule:evenodd"
           inkscape:tile-w="1.4852411"
           height="3.4307001"
           width="1.4852"
           inkscape:tile-h="3.4307041"
           inkscape:tile-cy="17.722816"
           y="9.9398003"
           x="49.262001"
           inkscape:tile-cx="41.367621" /><rect
           id="rect2583"
           style="fill:#000000;fill-rule:evenodd"
           width="1.4852"
           inkscape:tile-w="1.4852411"
           height="3.4307001"
           y="86.528999"
           inkscape:tile-h="3.4307041"
           x="49.255001"
           inkscape:tile-cx="41.367621"
           inkscape:tile-cy="17.722816" /></g><g
         id="g2585"
         transform="matrix(-1.839,0.59754,-0.59754,-1.839,275.66,215.84)"><rect
           id="rect2587"
           style="fill:#000000;fill-rule:evenodd"
           width="1.4852"
           inkscape:tile-w="1.4852411"
           height="3.4307001"
           y="9.9398003"
           inkscape:tile-h="3.4307041"
           x="49.262001"
           inkscape:tile-cx="41.367621"
           inkscape:tile-cy="17.722816" /><rect
           id="rect2589"
           style="fill:#000000;fill-rule:evenodd"
           inkscape:tile-w="1.4852411"
           height="3.4307001"
           width="1.4852"
           inkscape:tile-h="3.4307041"
           inkscape:tile-cy="17.722816"
           y="86.528999"
           x="49.255001"
           inkscape:tile-cx="41.367621" /></g><g
         id="g2591"
         transform="matrix(-1.8914,0.40203,-0.40203,-1.8914,268.51,228.23)"><rect
           id="rect2593"
           style="fill:#000000;fill-rule:evenodd"
           inkscape:tile-w="1.4852411"
           height="3.4307001"
           width="1.4852"
           inkscape:tile-h="3.4307041"
           inkscape:tile-cy="17.722816"
           y="9.9398003"
           x="49.262001"
           inkscape:tile-cx="41.367621" /><rect
           id="rect2595"
           style="fill:#000000;fill-rule:evenodd"
           width="1.4852"
           inkscape:tile-w="1.4852411"
           height="3.4307001"
           y="86.528999"
           inkscape:tile-h="3.4307041"
           x="49.255001"
           inkscape:tile-cx="41.367621"
           inkscape:tile-cy="17.722816" /></g><g
         id="g2597"
         transform="matrix(-1.9231,0.20213,-0.20213,-1.9231,260.11,239.81)"><rect
           id="rect2599"
           style="fill:#000000;fill-rule:evenodd"
           width="1.4852"
           inkscape:tile-w="1.4852411"
           height="3.4307001"
           y="9.9398003"
           inkscape:tile-h="3.4307041"
           x="49.262001"
           inkscape:tile-cx="41.367621"
           inkscape:tile-cy="17.722816" /><rect
           id="rect2601"
           style="fill:#000000;fill-rule:evenodd"
           inkscape:tile-w="1.4852411"
           height="3.4307001"
           width="1.4852"
           inkscape:tile-h="3.4307041"
           inkscape:tile-cy="17.722816"
           y="86.528999"
           x="49.255001"
           inkscape:tile-cx="41.367621" /></g><g
         id="g2605"
         transform="matrix(1.9336,0,0,1.9336,57.176,57.272)"><rect
           id="rect7297"
           style="fill:#000000;fill-rule:evenodd"
           height="11.657"
           width="3.2846999"
           y="9.9398003"
           x="48.356998" /><rect
           id="rect2603"
           style="fill:#000000;fill-rule:evenodd"
           height="11.657"
           width="3.2846999"
           y="78.303001"
           x="48.356998" /></g><g
         id="g2621"
         transform="matrix(3.9039e-7,1.9336,-1.9336,3.9039e-7,250.44,57.176)"><rect
           id="rect2623"
           style="fill:#000000;fill-rule:evenodd"
           height="11.657"
           width="3.2846999"
           y="9.9398003"
           x="48.356998" /><rect
           id="rect2625"
           style="fill:#000000;fill-rule:evenodd"
           height="11.657"
           width="3.2846999"
           y="78.303001"
           x="48.356998" /></g><g
         id="minutes"
         transform="rotate(150.3,153.65,154.2)"><g
           id="g1"><g
             id="g3292"
             style="fill:#000000"
             inkscape:export-ydpi="391.56"
             inkscape:export-filename="/home/fzap/klocki.png"
             transform="matrix(-0.31815935,-1.9072801,7.5274943,-1.2557435,150.77048,146.56759)"
             inkscape:export-xdpi="391.56"
             inkscape:label="Ebene 1"><path
               sodipodi:nodetypes="cc"
               style="fill:#000000;fill-rule:evenodd;stroke:#282d30;stroke-linecap:square"
               d="m -9.5402,0 40.969,1.6899"
               id="path1" /></g><animateTransform
             id="amin"
             attributeName="transform"
             type="rotate"
             from="0,153.65,154.2"
             to="360,153.65,154.2"
             dur="3600s"
             repeatCount="indefinite" /></g></g><g
         transform="rotate(53.5,153.65,154.2)"
         id="g3"><g
           id="g2"><path
             id="hours"
             transform="rotate(-47.5,153.65,154.2)"
             sodipodi:nodetypes="cc"
             style="fill:none;stroke:#000000;stroke-width:3.8673;stroke-linecap:square;stroke-miterlimit:0"
             d="m 126.53,133.84 35.04,26.51" /><animateTransform
             id="ahr"
             attributeName="transform"
             type="rotate"
             from="0,153.65,154.2"
             to="360,153.65,154.2"
             dur="43200s"
             repeatCount="indefinite" /></g></g><g
         transform="rotate(-156,153.65,154.2)"
         id="g5"><g
           id="g4"><path
             id="seconds"
             transform="rotate(21.798,153.65,154.2)"
             sodipodi:nodetypes="ccscccsccccccccccc"
             style="fill:#ef2929;fill-rule:evenodd;stroke:#cc0000;stroke-width:0.24396;stroke-linecap:square;stroke-miterlimit:0"
             d="m 150.91,146.54 2.13,4.94 c 1.24,-0.3 2.56,0.31 3.11,1.52 0.57,1.25 0.11,2.7 -1.02,3.41 l 29.2,65.71 -29.95,-65.32 c -1.42,0.21 -2.7,-0.21 -3.27,-1.47 -0.55,-1.23 -0.12,-2.65 0.96,-3.37 l -2.31,-4.9 -0.2,0.1 c -0.32,0.14 -0.7,0 -0.84,-0.32 l -6.47,-13.1 c -0.2,-0.43 -0.01,-0.94 0.42,-1.14 l 2.02,-0.91 c 0.43,-0.19 0.94,0 1.13,0.43 l 5.58,13.5 c 0.15,0.32 0.01,0.7 -0.31,0.85 -0.06,0.02 -0.12,0.05 -0.18,0.07" /><animateTransform
             id="asec"
             attributeName="transform"
             type="rotate"
             from="0,153.65,154.2"
             to="360,153.65,154.2"
             dur="60s"
             repeatCount="indefinite" /></g></g><path
         id="path5449"
         sodipodi:rx="0.64265752"
         sodipodi:ry="0.64081556"
         style="fill:url(#linearGradient2644);fill-rule:evenodd"
         sodipodi:type="arc"
         sodipodi:start="0"
         transform="matrix(1.6866,3.7378,-3.7378,1.6866,480.81,303.12)"
         sodipodi:cy="57.772465"
         sodipodi:cx="-65.926659"
         sodipodi:end="6.2777611"
         d="m -65.284001,57.772465 a 0.64265752,0.64081556 0 0 1 -0.641786,0.640815 0.64265752,0.64081556 0 0 1 -0.643527,-0.639077 0.64265752,0.64081556 0 0 1 0.640041,-0.642549 0.64265752,0.64081556 0 0 1 0.645262,0.637335 l -0.642648,0.0035 z"
         sodipodi:arc-type="slice" /><path
         id="path7241"
         style="fill:url(#linearGradient2649);fill-rule:evenodd"
         d="m 155.75,153.23 c 0.57,1.25 0.22,2.73 -1.03,3.29 -1.24,0.56 -2.82,0.12 -3.48,-1.23 -0.59,-1.24 0.71,-4.41 0.95,-3.36" /><g
         id="g1707"
         inkscape:export-ydpi="391.56"
         inkscape:export-filename="/home/fzap/klocki.png"
         transform="matrix(1.9336,0,0,1.9336,57.175,57.175)"
         inkscape:export-xdpi="391.56"
         inkscape:label="Ebene 1"><path
           id="path4460"
           style="fill:url(#radialGradient2093);fill-rule:evenodd;stroke:#d2d2d2;stroke-width:0.5;stroke-linecap:round;stroke-linejoin:round;stroke-miterlimit:0.1"
           d="M 48.703,0.33052 C 21.874,1.011 0.328,22.99452 0.328,49.98652 c 1.2e-4,27.42 22.236,49.687 49.656,49.687 27.42,0 49.688,-22.267 49.688,-49.687 0,-27.42 -22.268,-49.656 -49.688,-49.656 -0.428,-4.8e-4 -0.855,-0.01128 -1.281,-4.8e-4 z m 0.469,7.4688 c 0.272,-0.0052 0.539,0 0.812,0 23.293,0 42.219,18.895 42.219,42.188 0,23.292 -18.926,42.219 -42.219,42.219 -23.292,0 -42.187,-18.927 -42.187,-42.219 -10e-5,-23.02 18.459,-41.752 41.375,-42.188 z" /></g><rect
         id="rect2611"
         style="fill:#000000;fill-rule:evenodd"
         transform="matrix(-0.86164,0.50751,-0.50751,-0.86164,0,0)"
         height="16.193001"
         width="4.5629001"
         y="-288.17001"
         x="-56.325001" /><rect
         id="rect2613"
         style="fill:#000000;fill-rule:evenodd"
         transform="matrix(-0.86164,0.50751,-0.50751,-0.86164,0,0)"
         height="16.533001"
         width="4.6588001"
         y="-149.48"
         x="-57.287998" /><rect
         id="rect2624"
         style="fill:#000000;fill-rule:evenodd"
         transform="matrix(0.85951,0.51111,-0.51111,0.85951,0,0)"
         height="16.193001"
         width="4.5629001"
         y="-24.417"
         x="207.71001" /><rect
         id="rect2626"
         style="fill:#000000;fill-rule:evenodd"
         transform="matrix(0.85951,0.51111,-0.51111,0.85951,0,0)"
         height="16.533001"
         width="4.6588001"
         y="114.5"
         x="209.34" /><rect
         id="rect2630"
         style="fill:#000000;fill-rule:evenodd"
         transform="rotate(59.387)"
         height="16.193001"
         width="4.5629001"
         y="-131.38"
         x="208.64999" /><rect
         id="rect2632"
         style="fill:#000000;fill-rule:evenodd"
         transform="rotate(59.387)"
         height="16.533001"
         width="4.6588001"
         y="6.9061999"
         x="207.82001" /><rect
         id="rect2636"
         style="fill:#000000;fill-rule:evenodd"
         transform="rotate(119.56)"
         height="16.193001"
         width="4.5629001"
         y="-287.32999"
         x="55.999001" /><rect
         id="rect2638"
         style="fill:#000000;fill-rule:evenodd"
         transform="rotate(119.56)"
         height="16.533001"
         width="4.6588001"
         y="-148.38"
         x="54.811001" /><path
         id="path2663"
         sodipodi:rx="0.64265752"
         sodipodi:ry="0.64081556"
         style="fill:#000000;fill-rule:evenodd"
         sodipodi:type="arc"
         d="m -65.284001,57.772465 a 0.64265752,0.64081556 0 0 1 -0.633064,0.640744 0.64265752,0.64081556 0 0 1 -0.651965,-0.621614 0.64265752,0.64081556 0 0 1 0.613598,-0.659303 0.64265752,0.64081556 0 0 1 0.670285,0.601929"
         sodipodi:open="true"
         transform="matrix(0.73199,1.6222,-1.6222,0.73199,295.65,218.8)"
         sodipodi:cy="57.772465"
         sodipodi:cx="-65.926659"
         sodipodi:end="6.2234697"
         sodipodi:start="0"
         sodipodi:arc-type="arc" /><path
         id="path2673"
         sodipodi:rx="0.64265752"
         sodipodi:ry="0.64081556"
         style="fill:url(#linearGradient2681);fill-rule:evenodd"
         sodipodi:type="arc"
         sodipodi:start="0"
         sodipodi:open="true"
         transform="matrix(0.68425,1.5164,-1.5164,0.68425,286.4,214.58)"
         sodipodi:cy="57.772465"
         sodipodi:cx="-65.926659"
         sodipodi:end="6.2234697"
         d="m -65.284001,57.772465 a 0.64265752,0.64081556 0 0 1 -0.633064,0.640744 0.64265752,0.64081556 0 0 1 -0.651965,-0.621614 0.64265752,0.64081556 0 0 1 0.613598,-0.659303 0.64265752,0.64081556 0 0 1 0.670285,0.601929"
         sodipodi:arc-type="arc" /><circle
         cx="153.64999"
         cy="154.2"
         r="0.5"
         style="fill:#008000"
         id="circle5" /></g></g></svg>
