<?xml version="1.0" encoding="UTF-8"?>
<svg width="62.087917mm" height="35.796131mm" viewBox="0 0 62.087919 35.796131" version="1.1" id="svg1190" xmlns="http://www.w3.org/2000/svg">
  <g id="layer1" transform="translate(-73.681075,-130.13602)">
    <g id="g1849">
      <g id="g960">
        <g id="g977">
          <path d="m 131.0476,130.13602 c 0,0 -15.91495,3.22782 -23.99389,3.59513 -7.757244,0.35269 -21.918791,-1.09559 -24.594877,-1.37873 -0.293563,-0.0708 -0.588756,-0.1063 -0.884185,-0.10645 -0.04307,1.1e-4 -0.08613,9.8e-4 -0.129191,0.003 -1.95e-4,-2e-5 -0.02687,-0.003 -0.02687,-0.003 v 0.004 c -4.297846,0.18158 -7.737484,7.66732 -7.737512,16.83928 -5.3e-5,9.30186 3.534,16.84264 7.893574,16.8429 8.823252,-3.19491 18.204555,-7.78694 27.510981,-10.00404 1.40558,-0.32042 3.14506,-0.59535 4.99349,-0.83355 1.2671,0.16043 2.85821,0.42292 3.82923,0.82269 2.82969,1.165 5.12883,3.3807 7.29516,5.30562 1.00811,0.89577 2.88884,1.01551 4.03438,0.30386 0.87754,-0.54516 1.33574,-1.14403 1.15773,-2.16167 -0.22368,-1.27865 -2.27746,-2.35502 -2.59485,-3.61369 -0.2628,-1.04216 0.48584,-1.5738 1.43454,-1.8557 h 3.29747 c 0,0 1.426,-1.76826 2.38487,-4.88135 l -1.42731,-0.80409 1.76992,-0.46715 c 0.37285,-1.59568 0.59494,-3.46509 0.47697,-5.57072 -0.13055,-2.33042 -0.88198,-4.67895 -1.74511,-6.6797 l -1.96732,-0.0615 1.42833,-1.11828 c -1.1941,-2.47343 -2.40553,-4.17649 -2.40553,-4.17649 z" style="stroke-width: 0.264999; stroke-linecap: round; stroke-linejoin: round;" id="path890"/>
          <path id="path916" d="m 77.040023,147.48901 1.022401,0.60791 0.718444,-6.2173 c 0,0 0.09348,-3.81445 1.657947,-3.64748 1.737761,0.18546 2.404024,4.55935 2.404024,4.55935 l 0.0829,1.24346 -1.519785,0.11053 c 0,0 0.448961,-2.23516 -0.303956,-2.79088 -0.430209,-0.31753 -1.181826,-0.0584 -1.575049,0.30396 -0.43534,0.40117 -0.53889,1.58188 -0.718444,5.13964 -0.0071,0.14061 -0.656108,7.86884 0.193426,9.3674 0.186905,0.3297 0.659108,0.60532 1.022401,0.49738 1.029671,-0.30592 1.657948,-2.76324 1.657948,-2.76324 0.05567,0.27834 0.376066,-2.13559 0.331589,-4.36594 -0.01461,-0.73246 -0.515301,-1.53884 -1.13293,-0.93949 -0.352077,0.34166 -0.02763,4.14486 -0.02763,4.14486 l -1.519786,0.30396 c -0.356543,-2.20007 0.11053,-6.41073 0.11053,-6.41073 1.064206,-4.44307 3.132764,-0.27644 3.425753,4.86335 0.289599,5.08034 -1.40202,10.53783 -3.692421,7.26606 -0.940447,-1.34341 -2.250973,-3.83513 -2.7729,-9.00694 l -0.303958,-3.01194 -1.326357,0.11053 c 0.676832,14.01301 9.002777,25.41724 9.69899,3.17773 0.223818,-8.09776 -1.857254,-15.75622 -4.946208,-13.31884 -0.781792,0.75953 -1.317392,1.78308 -1.657948,2.81851 -0.833295,2.53355 -0.828981,7.95815 -0.828981,7.95815 z" style="fill:#ffffff;fill-opacity:1;stroke:none;stroke-width:0.264583px;stroke-linecap:butt;stroke-linejoin:miter;stroke-opacity:1"/>
          <path d="m 127.05321,158.63609 c -1.12433,-0.37775 -2.04305,0.61494 -2.04313,1.23817 -9e-5,0.69072 1.06308,1.25063 2.37446,1.25056 1.31119,-6e-5 2.37411,-0.55994 2.37399,-1.25056 -2e-5,-0.0962 0.0207,-0.23857 -0.063,-0.28578 -0.0982,-0.0554 -0.22047,0.0124 -0.33133,0.0124 -1.10211,-3e-5 -1.76914,-0.78275 -2.31097,-0.9648 z" style="fill:#ffffff;stroke-width:0.264999;stroke-linecap:round;stroke-linejoin:round" id="path905"/>
        </g>
      </g>
    </g>
  </g>
</svg>