<?xml version="1.0" encoding="UTF-8" standalone="no"?>
<!-- Created with Inkscape (https://www.inkscape.org/) -->
<!-- ClipArt by Arvin61r58 (https://openclipart.org/user-detail/Arvin61r58) -->
<svg
   xmlns:dc="http://purl.org/dc/elements/1.1/"
   xmlns:cc="http://creativecommons.org/ns#"
   xmlns:rdf="http://www.w3.org/1999/02/22-rdf-syntax-ns#"
   xmlns:svg="http://www.w3.org/2000/svg"
   xmlns="http://www.w3.org/2000/svg"
   id="svg8"
   version="1.1"
   viewBox="0 0 108.58595 23.263368"
   height="87.924538"
   width="410.40363">
  <title
     id="title2442">Decorative Header 6</title>
  <defs
     id="defs2" />
  <metadata
     id="metadata5">
    <rdf:RDF>
      <cc:Work
         rdf:about="">
        <dc:format>image/svg+xml</dc:format>
        <dc:type
           rdf:resource="http://purl.org/dc/dcmitype/StillImage" />
        <dc:title>Decorative Header 6</dc:title>
        <cc:license
           rdf:resource="http://creativecommons.org/publicdomain/zero/1.0/" />
        <dc:creator>
          <cc:Agent>
            <dc:title>Arvin61r58</dc:title>
          </cc:Agent>
        </dc:creator>
        <dc:publisher>
          <cc:Agent>
            <dc:title>Openclipart.org</dc:title>
          </cc:Agent>
        </dc:publisher>
        <dc:identifier>https://openclipart.org/</dc:identifier>
        <dc:source>https://openclipart.org/user-detail/Arvin61r58</dc:source>
        <dc:subject>
          <rdf:Bag>
            <rdf:li>divider</rdf:li>
            <rdf:li>DTP</rdf:li>
            <rdf:li>flourish</rdf:li>
            <rdf:li>footer</rdf:li>
            <rdf:li>header</rdf:li>
            <rdf:li>page</rdf:li>
            <rdf:li>rule</rdf:li>
          </rdf:Bag>
        </dc:subject>
        <dc:description>Decorative page divider, footer, header, etc.</dc:description>
      </cc:Work>
      <cc:License
         rdf:about="http://creativecommons.org/publicdomain/zero/1.0/">
        <cc:permits
           rdf:resource="http://creativecommons.org/ns#Reproduction" />
        <cc:permits
           rdf:resource="http://creativecommons.org/ns#Distribution" />
        <cc:permits
           rdf:resource="http://creativecommons.org/ns#DerivativeWorks" />
      </cc:License>
    </rdf:RDF>
  </metadata>
  <g
     transform="translate(-44.503086,-67.371711)"
     id="layer1">
    <title
       id="title837">Decorative Header 6  --  by Arvin61r58</title>
    <g
       transform="translate(-1.4361709,9.0950607)"
       id="g2417">
      <g
         id="g1773"
         transform="translate(18.957446,-68.936168)">
        <path
           id="path826"
           d="m 75.546175,128.53703 c -1.981502,-0.0282 -4.779769,0.7309 -4.872572,2.99672 -0.220662,1.66459 0.37715,3.03806 1.738397,3.99459 0.752115,0.52853 1.288243,0.48581 1.468128,-0.11679 0.103672,-0.34728 0.03182,-0.49802 -0.512114,-1.06918 -0.86251,-0.90572 -1.18727,-1.61568 -1.138949,-2.49391 0.07477,-1.36139 1.27205,-2.05136 3.337782,-1.92391 2.402882,0.14824 3.988038,1.54027 4.300511,3.77703 0.171214,1.22568 0.106127,1.679 -0.443384,3.08456 -0.453591,1.16025 -0.593359,1.36044 -1.510501,2.16421 -1.074443,0.94163 -2.956605,1.88471 -4.605403,2.42414 -0.90592,0.29639 -1.875089,0.42516 -2.828253,0.42117 -2.010931,-0.008 -3.856088,-0.35388 -5.959843,-0.93431 -1.050496,-0.28983 -2.832475,-1.02894 -4.440039,-1.80145 0.04484,-0.0708 0.08805,-0.13988 0.132292,-0.21135 0.358965,-0.56223 0.64316,-1.07708 0.80822,-1.65055 0.370533,-1.30915 -0.232926,-1.94361 -0.326594,-1.91771 -0.175477,0.0486 -0.0897,0.77318 -0.505396,1.60921 -0.217017,0.44955 -0.482127,0.79415 -0.874882,1.36219 -0.07132,0.10001 -0.145574,0.20736 -0.220141,0.31781 -0.608672,-0.31345 -1.149559,-0.61524 -1.573549,-0.88264 1.27e-4,-2e-4 3.92e-4,-3.1e-4 5.16e-4,-5.1e-4 0.358966,-0.56223 0.643162,-1.0776 0.80822,-1.65107 0.370536,-1.30915 -0.232923,-1.94361 -0.326594,-1.91771 -0.175477,0.0486 -0.0897,0.77318 -0.505396,1.60921 -0.217014,0.44956 -0.482124,0.79466 -0.874882,1.3627 -0.0047,0.007 -0.0098,0.0141 -0.01447,0.0207 -0.473578,-0.3003 -0.971852,-0.61227 -1.500166,-0.93999 0.255672,-0.43018 0.461359,-0.84604 0.591179,-1.29708 0.370533,-1.30915 -0.233441,-1.94361 -0.327112,-1.91771 -0.175477,0.0486 -0.08918,0.77317 -0.50488,1.6092 -0.170477,0.35316 -0.390504,0.66828 -0.658874,1.0511 -3.005349,-1.84569 -6.305801,-3.79027 -7.128248,-4.16977 -0.667038,-0.30778 -1.661789,-0.77278 -2.210715,-1.03353 -4.257374,-1.99629 -11.162467,-1.86736 -14.62495,2.53421 -0.812673,1.01407 -1.612495,2.56659 -1.863449,4.02301 -0.127707,0.74114 -0.114486,1.57504 0.208253,2.24638 0.615379,1.28008 1.633307,2.33377 3.043743,2.87424 1.975845,0.75713 3.319066,0.60669 4.930965,0.27285 1.164903,-0.24126 2.114624,-0.67995 3.192053,-1.59628 1.216371,-1.03453 1.792618,-2.19986 1.966288,-3.08715 0.397833,-2.03255 -1.37499,-4.07458 -3.931542,-4.2323 -1.232164,-0.076 -2.143119,0.53071 -2.948141,1.25729 -0.496006,0.44769 -0.901395,1.09286 -1.004588,1.77198 -0.06006,0.39523 0.142703,0.97412 0.249597,1.17151 0.544174,1.00489 2.225347,1.70236 2.98948,1.24023 1.173765,-0.79037 -1.350436,-1.11028 -1.687751,-2.49236 0.02533,-0.45499 0.388977,-0.83833 1.243335,-1.30896 1.0966,-0.60406 2.800808,-0.004 3.379121,1.19011 0.596987,1.23233 0.210317,2.45012 -1.137399,3.58273 -0.989274,0.83138 -1.793981,1.1868 -3.188951,1.40921 -2.191298,0.34936 -3.672671,-0.10414 -4.972307,-1.52187 -1.113329,-1.21449 -1.209651,-1.92053 -0.504878,-3.70158 1.019191,-2.57561 3.134299,-4.31624 5.476666,-4.96507 0.973349,-0.26961 2.051116,-0.47856 3.169317,-0.40876 4.367874,0.27259 6.038101,1.12427 12.295891,4.81624 0.673309,0.39708 1.459873,0.83772 2.278412,1.31878 -0.121494,0.21996 -0.232551,0.44631 -0.319876,0.68678 -0.248452,0.69859 -0.196795,1.3985 0.03101,1.95337 0.571757,1.26113 1.506749,1.43884 1.499651,1.44384 0.152204,-0.11241 -0.477557,-0.83834 -0.638204,-1.73736 -0.09005,-0.3763 -0.06183,-0.83187 0.119888,-1.28054 0.06395,-0.16343 0.150352,-0.32774 0.246496,-0.49713 0.505666,0.31122 1.010322,0.63205 1.501201,0.97359 -0.04539,0.10083 -0.0915,0.20123 -0.129707,0.30644 -0.248454,0.69859 -0.196794,1.39901 0.031,1.95388 0.571759,1.26113 1.506752,1.43833 1.49965,1.44332 0.152207,-0.1124 -0.477038,-0.83834 -0.637685,-1.73736 -0.09005,-0.3763 -0.06183,-0.83135 0.119888,-1.28002 0.0091,-0.0233 0.02219,-0.0469 0.03204,-0.0703 0.595479,0.39381 1.065797,0.6798 1.61489,0.95911 -0.207214,0.66293 -0.153186,1.32074 0.06305,1.84743 0.571756,1.26113 1.506752,1.43884 1.49965,1.44384 0.152207,-0.11241 -0.477038,-0.83885 -0.637688,-1.73788 -0.07768,-0.32462 -0.06723,-0.7078 0.05374,-1.09502 0.599659,0.26527 1.330859,0.5691 2.369881,0.99374 1.750636,0.71548 2.248844,0.85751 4.610055,1.31413 2.403969,0.4649 4.813477,0.52473 6.585127,0.1633 3.920148,-0.33268 8.994201,-3.93471 8.262027,-9.44335 -0.2017,-1.34014 -0.733991,-2.7728 -1.720823,-3.64578 -1.047851,-0.92694 -2.56816,-1.25253 -3.936712,-1.22783 z"
           style="fill:#000000;stroke-width:0.14989053" />
        <path
           style="fill:#000000;stroke-width:0.14989053"
           d="m 87.003374,128.53702 c 1.981502,-0.0282 4.77977,0.73089 4.872572,2.99671 0.220663,1.66459 -0.37715,3.03806 -1.738397,3.99459 -0.752115,0.52853 -1.288243,0.48581 -1.468128,-0.11679 -0.103671,-0.34728 -0.03182,-0.49801 0.512115,-1.06918 0.862509,-0.90571 1.18727,-1.61568 1.138949,-2.49391 -0.07477,-1.36139 -1.272051,-2.05136 -3.337782,-1.92391 -2.402883,0.14824 -3.988039,1.54027 -4.300511,3.77703 -0.171215,1.22568 -0.106127,1.67901 0.443383,3.08457 0.453591,1.16025 0.59336,1.36044 1.510501,2.1642 1.074444,0.94164 2.956605,1.88472 4.605404,2.42415 0.90592,0.29639 1.875088,0.42516 2.828252,0.42116 2.010932,-0.008 3.856088,-0.35388 5.959843,-0.93431 1.050497,-0.28983 2.832475,-1.02894 4.440045,-1.80144 -0.0448,-0.0708 -0.0881,-0.13989 -0.1323,-0.21136 -0.35896,-0.56223 -0.64316,-1.07707 -0.80822,-1.65054 -0.37053,-1.30915 0.23293,-1.94361 0.3266,-1.91771 0.17547,0.0486 0.0897,0.77317 0.50539,1.6092 0.21702,0.44956 0.48213,0.79415 0.87489,1.36219 0.0713,0.10002 0.14557,0.20737 0.22014,0.31781 0.60867,-0.31344 1.14956,-0.61524 1.57355,-0.88263 -1.3e-4,-2.1e-4 -4e-4,-3.2e-4 -5.2e-4,-5.2e-4 -0.35897,-0.56223 -0.64316,-1.07759 -0.80822,-1.65106 -0.37054,-1.30915 0.23292,-1.94361 0.32659,-1.91771 0.17548,0.0486 0.0897,0.77317 0.5054,1.6092 0.21701,0.44956 0.48212,0.79467 0.87488,1.36271 0.005,0.007 0.01,0.0141 0.0145,0.0207 0.47358,-0.30031 0.97185,-0.61228 1.50017,-0.94 -0.25567,-0.43018 -0.46136,-0.84604 -0.59118,-1.29708 -0.37053,-1.30914 0.23344,-1.94361 0.32711,-1.91771 0.17548,0.0486 0.0892,0.77318 0.50488,1.60921 0.17048,0.35315 0.39051,0.66827 0.65887,1.0511 3.00535,-1.84569 6.30581,-3.79028 7.12825,-4.16978 0.66704,-0.30778 1.66179,-0.77278 2.21072,-1.03352 4.25737,-1.99629 11.16246,-1.86736 14.62495,2.53421 0.81267,1.01407 1.61249,2.56658 1.86345,4.02301 0.1277,0.74114 0.11448,1.57503 -0.20826,2.24637 -0.61537,1.28008 -1.6333,2.33378 -3.04374,2.87425 -1.97584,0.75712 -3.31906,0.60669 -4.93096,0.27285 -1.16491,-0.24126 -2.11463,-0.67996 -3.19206,-1.59629 -1.21637,-1.03453 -1.79262,-2.19986 -1.96628,-3.08715 -0.39784,-2.03255 1.37498,-4.07458 3.93154,-4.2323 1.23216,-0.076 2.14312,0.53072 2.94814,1.25729 0.496,0.44769 0.90139,1.09286 1.00459,1.77198 0.0601,0.39523 -0.14271,0.97413 -0.2496,1.17151 -0.54418,1.00489 -2.22535,1.70236 -2.98948,1.24023 -1.17377,-0.79037 1.35044,-1.11027 1.68775,-2.49235 -0.0253,-0.455 -0.38898,-0.83833 -1.24334,-1.30896 -1.0966,-0.60406 -2.8008,-0.004 -3.37912,1.1901 -0.59698,1.23233 -0.21031,2.45012 1.1374,3.58273 0.98928,0.83138 1.79398,1.18681 3.18895,1.40922 2.1913,0.34936 3.67267,-0.10414 4.97231,-1.52187 1.11333,-1.21449 1.20965,-1.92054 0.50488,-3.70159 -1.01919,-2.57561 -3.1343,-4.31624 -5.47667,-4.96507 -0.97335,-0.26961 -2.05111,-0.47856 -3.16931,-0.40876 -4.36788,0.27259 -6.03811,1.12427 -12.2959,4.81624 -0.6733,0.39708 -1.45987,0.83772 -2.27841,1.31879 0.1215,0.21995 0.23255,0.4463 0.31988,0.68678 0.24845,0.69859 0.19679,1.3985 -0.031,1.95336 -0.57176,1.26114 -1.50675,1.43885 -1.49965,1.44385 -0.1522,-0.11241 0.47756,-0.83835 0.6382,-1.73737 0.0901,-0.3763 0.0618,-0.83187 -0.11988,-1.28054 -0.064,-0.16342 -0.15036,-0.32774 -0.2465,-0.49713 -0.50567,0.31122 -1.01032,0.63206 -1.5012,0.97359 0.0454,0.10083 0.0915,0.20123 0.1297,0.30644 0.24846,0.69859 0.1968,1.39902 -0.031,1.95389 -0.57175,1.26113 -1.50675,1.43832 -1.49965,1.44332 -0.1522,-0.11241 0.47704,-0.83834 0.63769,-1.73736 0.0901,-0.3763 0.0618,-0.83136 -0.11989,-1.28003 -0.009,-0.0233 -0.0222,-0.047 -0.032,-0.0703 -0.59548,0.39381 -1.06579,0.67981 -1.61489,0.95912 0.20722,0.66292 0.15319,1.32073 -0.0631,1.84743 -0.57175,1.26113 -1.50675,1.43884 -1.49965,1.44384 -0.1522,-0.11241 0.47704,-0.83886 0.63769,-1.73788 0.0777,-0.32463 0.0672,-0.70781 -0.0537,-1.09503 -0.59966,0.26527 -1.33086,0.5691 -2.36988,0.99374 -1.750639,0.71548 -2.248847,0.85751 -4.610057,1.31414 -2.40397,0.46489 -4.813477,0.52472 -6.585127,0.16329 -3.920149,-0.33268 -8.994201,-3.93471 -8.262028,-9.44335 0.2017,-1.34014 0.733992,-2.7728 1.720824,-3.64577 1.04785,-0.92695 2.568159,-1.25253 3.936711,-1.22783 z"
           id="path1769" />
      </g>
      <g
         id="g927"
         transform="matrix(0.7066898,-0.7066898,-0.70753845,-0.70753845,232.41977,165.33204)"
         style="stroke-width:0.49999487">
        <g
           id="g1858"
           transform="translate(-59.962206,-0.6857666)"
           style="stroke-width:0.49999487">
          <path
             style="fill:#000000;stroke-width:0.1322903"
             d="m 25.995312,161.30497 c -0.519926,-0.59053 -0.390642,-1.32423 0.366809,-2.08169 0.765841,-0.76584 1.851573,-0.90814 2.798727,-0.3668 0.963091,0.55044 1.914149,1.4908 1.712105,1.69284 -0.104559,0.10456 -0.330997,0.0492 -0.503197,-0.12298 -0.585831,-0.58583 -1.803466,-0.35973 -2.588507,0.48066 -0.811626,0.86885 -1.27956,0.97312 -1.785937,0.39797 z"
             id="path899" />
          <path
             style="fill:#000000;stroke-width:0.1322903"
             d="m 32.543749,160.82422 c 0,-0.37456 -1.342663,-1.7693 -1.703234,-1.7693 -0.12049,0 -0.411631,-0.2104 -0.646981,-0.46756 -0.23535,-0.25716 -1.023222,-0.75696 -1.750826,-1.11067 -1.810255,-0.88002 -2.248958,-1.29472 -2.248958,-2.12593 0,-0.87003 0.73825,-1.5875 1.633472,-1.5875 0.785276,0 1.209832,0.45905 2.079957,2.24896 0.353709,0.7276 0.853511,1.51547 1.110672,1.75082 0.257161,0.23535 0.467565,0.5405 0.467565,0.6781 0,0.35347 1.419824,1.67212 1.800415,1.67212 0.173938,0 0.316252,0.23812 0.316252,0.52916 0,0.35278 -0.176389,0.52917 -0.529167,0.52917 -0.291042,0 -0.529167,-0.15632 -0.529167,-0.34737 z"
             id="path895" />
          <path
             style="fill:#000000;stroke-width:0.1322903"
             d="m 32.128442,157.91072 c -1.396512,-1.68171 -1.543107,-2.91064 -0.474655,-3.97909 0.775857,-0.77586 1.528615,-0.89044 2.099486,-0.31956 0.554925,0.55492 0.469635,0.91159 -0.415774,1.73869 -0.803991,0.75104 -1.100682,2.16032 -0.529166,2.51354 0.318491,0.19684 0.352006,0.66146 0.04771,0.66146 -0.119278,0 -0.4467,-0.27677 -0.727604,-0.61504 z"
             id="path852" />
        </g>
      </g>
      <g
         id="g2395"
         transform="translate(-0.793752,0.52916666)">
        <path
           style="fill:#000000;fill-rule:evenodd;stroke:none;stroke-width:0.26458332"
           id="path1732"
           d="m 95.184668,67.117047 c 0.388295,-0.540366 1.352603,-0.21883 1.20644,0.54278 -0.234728,1.223088 -1.593682,1.898208 -2.726461,2.221604 -1.133768,0.320617 -2.346922,0.152012 -3.305339,-0.409882 v 0 c -0.737861,-0.433489 -1.315945,-1.090308 -1.646813,-1.836985 0.438994,0.688669 1.087756,1.218664 1.809972,1.507001 v 0 c 0.935399,0.37442 2.001936,0.336735 2.856718,-0.056 v 0 c 0.855768,-0.389962 1.295634,-1.258972 1.805507,-1.968546 z" />
        <path
           d="m 106.86727,67.117047 c -0.38829,-0.540366 -1.35261,-0.21883 -1.20645,0.54278 0.23474,1.223088 1.5937,1.898208 2.72648,2.221604 1.13377,0.320617 2.34694,0.152012 3.30536,-0.409882 v 0 c 0.73786,-0.433489 1.31595,-1.090308 1.64682,-1.836985 -0.43899,0.688669 -1.08776,1.218664 -1.80998,1.507001 v 0 c -0.93541,0.37442 -2.00195,0.336735 -2.85673,-0.056 v 0 c -0.85578,-0.389962 -1.29565,-1.258972 -1.80552,-1.968546 z"
           id="path2356"
           style="fill:#000000;fill-rule:evenodd;stroke:none;stroke-width:0.26458332" />
      </g>
      <g
         id="g2401"
         transform="translate(-0.49523384)">
        <path
           style="fill:#000000;fill-opacity:1;fill-rule:evenodd;stroke:none;stroke-width:0.13229166"
           id="path3221"
           d="m 60.819668,74.750925 c 0.690969,-0.149171 1.128268,-0.827283 0.979084,-1.518258 -0.149171,-0.690973 -0.827274,-1.128273 -1.518223,-0.97915 -0.690969,0.149171 -1.134339,0.828582 -0.985191,1.51954 0.149171,0.690973 0.833327,1.126965 1.524298,0.977813 z m 1.827203,-2.614865 c 0.518224,-0.111877 0.848569,-0.624154 0.736713,-1.142373 -0.111877,-0.518217 -0.624153,-0.848569 -1.142359,-0.736706 -0.518235,0.111879 -0.842507,0.622861 -0.730622,1.141069 0.11188,0.518242 0.618104,0.849881 1.136304,0.738026 z m 0.65692,-2.628673 c 0.388672,-0.0839 0.635239,-0.466275 0.551374,-0.854919 -0.08391,-0.388673 -0.466281,-0.635231 -0.85492,-0.551374 -0.388672,0.08391 -0.635241,0.46628 -0.551374,0.854919 0.0839,0.388665 0.466276,0.63524 0.854912,0.551369 z M 62.66347,67.39349 c 0.291506,-0.06293 0.476459,-0.349668 0.413534,-0.641196 -0.06294,-0.291501 -0.349725,-0.476419 -0.641186,-0.41353 -0.291507,0.06293 -0.476419,0.349725 -0.413529,0.641188 0.06293,0.291509 0.349659,0.47646 0.641186,0.413528 z" />
        <path
           d="m 140.63526,74.750925 c -0.69097,-0.149171 -1.12827,-0.827283 -0.97909,-1.518258 0.14918,-0.690973 0.82728,-1.128273 1.51824,-0.97915 0.69097,0.149171 1.13434,0.828582 0.98519,1.51954 -0.14917,0.690973 -0.83333,1.126965 -1.5243,0.977813 z m -1.82721,-2.614865 c -0.51823,-0.111877 -0.84857,-0.624154 -0.73672,-1.142373 0.11188,-0.518217 0.62416,-0.848569 1.14237,-0.736706 0.51824,0.111879 0.84251,0.622861 0.73063,1.141069 -0.11188,0.518242 -0.61811,0.849881 -1.13631,0.738026 z m -0.65692,-2.628673 c -0.38868,-0.0839 -0.63525,-0.466275 -0.55138,-0.854919 0.0839,-0.388673 0.46628,-0.635231 0.85492,-0.551374 0.38868,0.08391 0.63525,0.46628 0.55138,0.854919 -0.0839,0.388665 -0.46628,0.63524 -0.85491,0.551369 z m 0.64032,-2.113897 c -0.29151,-0.06293 -0.47646,-0.349668 -0.41353,-0.641196 0.0629,-0.291501 0.34972,-0.476419 0.64118,-0.41353 0.29151,0.06293 0.47643,0.349725 0.41354,0.641188 -0.0629,0.291509 -0.34967,0.47646 -0.64119,0.413528 z"
           id="path2397"
           style="fill:#000000;fill-opacity:1;fill-rule:evenodd;stroke:none;stroke-width:0.13229166" />
      </g>
    </g>
  </g>
</svg>
